<svg width="40" height="30" viewBox="0 0 40 30" fill="none" xmlns="http://www.w3.org/2000/svg">
    <rect x="0.25" y="0.25" width="39.5" height="29.5" rx="1.75" fill="white" stroke="#F5F5F5" stroke-width="0.5"/>
    <mask id="mask0_194_6162" style="mask-type:luminance" maskUnits="userSpaceOnUse" x="0" y="0" width="40" height="30">
        <rect x="0.25" y="0.25" width="39.5" height="29.5" rx="1.75" fill="white" stroke="white" stroke-width="0.5"/>
    </mask>
    <g mask="url(#mask0_194_6162)">
        <path fill-rule="evenodd" clip-rule="evenodd" d="M20.0002 22C23.6821 22 26.6668 18.866 26.6668 15C26.6668 11.134 23.6821 8 20.0002 8C16.3183 8 13.3335 11.134 13.3335 15C13.3335 18.866 16.3183 22 20.0002 22Z" fill="#E01B41"/>
        <mask id="mask1_194_6162" style="mask-type:luminance" maskUnits="userSpaceOnUse" x="13" y="8" width="14" height="14">
            <path fill-rule="evenodd" clip-rule="evenodd" d="M20.0002 22C23.6821 22 26.6668 18.866 26.6668 15C26.6668 11.134 23.6821 8 20.0002 8C16.3183 8 13.3335 11.134 13.3335 15C13.3335 18.866 16.3183 22 20.0002 22Z" fill="white"/>
        </mask>
        <g mask="url(#mask1_194_6162)">
            <path fill-rule="evenodd" clip-rule="evenodd" d="M13.3334 15.9999C15.2381 17.8749 18.0953 18.9999 20 15.9999C21.9048 12.9999 25.7143 12.9999 26.6667 15.9999C27.6191 18.9999 26.6667 21.9999 26.6667 21.9999H13.3334C13.3334 21.9999 11.4286 14.1249 13.3334 15.9999Z" fill="#0E4B9C"/>
        </g>
        <path opacity="0.75" fill-rule="evenodd" clip-rule="evenodd" d="M8.89599 5.1941C8.98469 5.03278 9.18422 4.97937 9.34165 5.07481L10.4211 5.72921C10.5786 5.82464 10.6343 6.03278 10.5456 6.1941L8.00964 10.8061C7.92094 10.9674 7.72141 11.0208 7.56398 10.9254L6.4845 10.271C6.32708 10.1755 6.27136 9.96738 6.36007 9.80607L8.89599 5.1941ZM29.5785 5.72922C29.4211 5.82465 29.3654 6.03279 29.4541 6.19411L31.99 10.8061C32.0787 10.9674 32.2782 11.0208 32.4357 10.9254L33.5151 10.271C33.6726 10.1755 33.7283 9.9674 33.6396 9.80608L31.1037 5.19411C31.0149 5.03279 30.8154 4.97938 30.658 5.07482L29.5785 5.72922ZM27.1042 7.22924C26.9467 7.32467 26.891 7.53281 26.9797 7.69413L29.5156 12.3061C29.6043 12.4674 29.8039 12.5208 29.9613 12.4254L31.0408 11.771C31.1982 11.6756 31.2539 11.4674 31.1652 11.3061L28.6293 6.69413C28.5406 6.53281 28.3411 6.4794 28.1836 6.57484L27.1042 7.22924ZM6.36006 20.1941C6.27136 20.0328 6.32707 19.8246 6.4845 19.7292L7.56398 19.0748C7.72141 18.9794 7.92093 19.0328 8.00963 19.1941L10.5456 23.8061C10.6343 23.9674 10.5785 24.1755 10.4211 24.2709L9.34164 24.9253C9.18422 25.0208 8.98469 24.9674 8.89599 24.8061L6.36006 20.1941ZM8.95887 18.2292C8.80144 18.3246 8.74573 18.5328 8.83443 18.6941L11.3704 23.306C11.4591 23.4674 11.6586 23.5208 11.816 23.4253L12.8955 22.7709C13.0529 22.6755 13.1086 22.4674 13.0199 22.306L10.484 17.6941C10.3953 17.5328 10.1958 17.4793 10.0383 17.5748L8.95887 18.2292ZM29.5157 17.6941C29.6044 17.5327 29.8039 17.4793 29.9613 17.5748L31.0408 18.2292C31.1982 18.3246 31.2539 18.5327 31.1652 18.6941L28.6293 23.306C28.5406 23.4673 28.3411 23.5208 28.1836 23.4253L27.1042 22.7709C26.9467 22.6755 26.891 22.4673 26.9797 22.306L29.5157 17.6941ZM32.4357 19.0748C32.2782 18.9794 32.0787 19.0328 31.99 19.1941L29.4541 23.806C29.3654 23.9674 29.4211 24.1755 29.5785 24.2709L30.658 24.9253C30.8154 25.0208 31.0149 24.9674 31.1036 24.806L33.6396 20.1941C33.7283 20.0328 33.6726 19.8246 33.5151 19.7292L32.4357 19.0748ZM11.816 6.57482C11.6586 6.47939 11.4591 6.5328 11.3704 6.69411L8.83443 11.3061C8.74573 11.4674 8.80144 11.6755 8.95887 11.771L10.0383 12.4254C10.1958 12.5208 10.3953 12.4674 10.484 12.3061L13.0199 7.69411C13.1086 7.5328 13.0529 7.32466 12.8955 7.22922L11.816 6.57482Z" fill="#262626"/>
    </g>
</svg>
