<svg width="100" height="100" viewBox="0 0 100 100" fill="none" xmlns="http://www.w3.org/2000/svg">
    <path fill-rule="evenodd" clip-rule="evenodd" d="M100 50.1121C100 46.9318 99.7041 43.8288 99.0925 40.6258L98.8543 39.3939H98.8224C96.0895 27.3515 88.9194 16.4697 79.0041 9.38636C78.3213 8.89697 77.3759 9.05606 76.8857 9.73636C76.3986 10.4167 76.5534 11.3636 77.2348 11.85C86.8617 18.7288 93.7374 29.4288 96.1061 41.2061L96.1684 41.5136C96.7056 44.4151 96.965 47.2303 96.965 50.1121C96.965 50.9485 97.6433 51.6273 98.4825 51.6273C99.3217 51.6273 100 50.9485 100 50.1121ZM12.2805 21.8636C19.2806 12.4985 29.4781 6.11515 40.9988 3.88939C43.9169 3.31818 46.9261 3.0303 49.9398 3.0303C57.1236 3.0303 64.0509 4.63788 70.5351 7.80606C71.2908 8.17424 72.1998 7.86515 72.5655 7.11212C72.9327 6.36061 72.6216 5.45303 71.8689 5.08485C64.9674 1.71061 57.591 0 49.9398 0C46.7304 0 43.5254 0.307576 40.4192 0.915152C28.1579 3.28485 17.3018 10.0803 9.84798 20.0515C9.34569 20.7227 9.4853 21.6712 10.156 22.1712C10.4292 22.3742 10.7463 22.4727 11.062 22.4727C11.5263 22.4727 11.9831 22.2621 12.2805 21.8636ZM3.07091 62.7636C3.8858 62.5682 4.38808 61.75 4.19384 60.9364C4.16349 60.8106 4.13315 60.7045 4.10431 60.6061H4.10735L3.78868 58.7985C1.76132 48.5576 3.35619 37.7636 8.21365 28.403C8.59909 27.6606 8.38664 26.7455 7.64308 26.3606C6.89799 25.9758 6.13925 26.2667 5.75381 27.0091C0.606519 36.9258 -1.67122 48.3591 1.36374 59.2212V59.2288C1.36374 60.3758 1.27876 60.797 1.44265 61.2727C1.47755 61.3758 1.20441 61.4864 1.24234 61.6455C1.40927 62.3379 2.03143 62.8076 2.71734 62.8076C2.83418 62.8045 2.95254 62.7894 3.07091 62.7636ZM38.9745 97.8894C51.1052 81.747 54.8246 67.3515 51.4194 49.753C51.26 48.9318 50.4603 48.3939 49.6409 48.553C48.8184 48.7121 48.2812 49.5061 48.439 50.3288C51.7138 67.2227 48.266 80.4742 36.5481 96.0697C36.0443 96.7394 36.1808 97.6894 36.8515 98.1894C37.1247 98.3939 37.4449 98.4924 37.7605 98.4924C38.2218 98.497 38.6771 98.2879 38.9745 97.8894ZM45.6165 99.0803C57.4711 82.3485 60.9886 67.2515 57.377 48.6045C56.9916 46.6136 55.8519 44.8924 54.1706 43.7576C52.4937 42.6258 50.474 42.2152 48.4876 42.6015C46.4982 42.9864 44.7774 44.1212 43.6423 45.8C42.5087 47.4773 42.096 49.497 42.4814 51.4833C43.8335 58.4667 43.838 64.7758 42.4966 70.7712C42.3145 71.5879 42.8289 72.397 43.6468 72.5788C44.4693 72.7621 45.2766 72.247 45.4587 71.4303C46.8927 65.0227 46.8942 58.3061 45.4617 50.9045C45.2311 49.7106 45.4784 48.4985 46.1583 47.4909C46.8381 46.4833 47.87 45.803 49.0658 45.5712C50.26 45.3409 51.4679 45.5864 52.4725 46.2636C53.4831 46.9439 54.166 47.9773 54.4012 49.1742C57.8398 66.9318 54.4725 81.3348 43.1415 97.3258C42.6574 98.0091 42.8198 98.953 43.5042 99.4394C43.7713 99.6273 44.0763 99.7182 44.3798 99.7182C44.8517 99.7182 45.3206 99.497 45.6165 99.0803ZM32.8575 95.8985C37.4115 90.0651 40.7044 84.6545 42.923 79.353C43.2462 78.5803 42.8805 77.6924 42.1066 77.3697C41.3296 77.0439 40.4434 77.4091 40.1217 78.1833C38.0094 83.2318 34.85 88.4167 30.4645 94.0333C29.9485 94.6939 30.0669 95.6439 30.7285 96.1576C31.0062 96.3742 31.334 96.4788 31.6602 96.4788C32.1125 96.4818 32.5586 96.2818 32.8575 95.8985ZM27.2429 93.2136C38.1262 79.6485 41.8304 68.6606 40.0246 55.2909C39.9123 54.4591 39.1429 53.8879 38.3174 53.9924C37.4874 54.1045 36.9047 54.8667 37.017 55.697C38.7226 68.3167 35.3174 78.3061 24.8756 91.3212C24.3505 91.9758 24.4568 92.9303 25.1108 93.45C25.39 93.6742 25.7254 93.7833 26.0592 93.7833C26.5023 93.7818 26.9439 93.5909 27.2429 93.2136ZM63.2527 62.1212C64.0919 62.1212 64.7595 61.4636 64.7474 60.6303C64.6822 56.3652 64.2102 51.9591 63.3331 47.45C62.0918 41.0439 56.4604 36.3955 49.9368 36.3955C49.0642 36.3955 48.1871 36.4803 47.3313 36.6455C43.7485 37.3394 40.6513 39.3849 38.6088 42.4045C37.6285 43.8561 36.9441 45.4591 36.5754 47.1697C36.3993 47.9879 36.9198 48.7939 37.7393 48.9697C38.5618 49.1409 39.366 48.6242 39.542 47.8076C39.8289 46.4758 40.363 45.2258 41.1248 44.097C42.7121 41.7485 45.1218 40.1545 47.9094 39.6152C48.5756 39.4864 49.2585 39.4152 49.9368 39.4152C55.0082 39.4152 59.3892 43.0212 60.3543 48.003C61.1935 52.3394 61.6502 56.5879 61.7124 60.6758C61.7246 61.5045 62.3999 62.1227 63.2299 62.1227C63.236 62.1212 63.2451 62.1212 63.2527 62.1212ZM52.7669 99.3106C59.3588 89.1758 63.1419 79.2333 64.3301 68.9152C64.4242 68.0833 63.8293 67.3318 62.9962 67.2379C62.1601 67.1439 61.4105 67.7394 61.3164 68.5697C60.1813 78.4106 56.5515 87.9258 50.2206 97.6591C49.7638 98.3621 49.9641 99.3 50.6667 99.7561C50.9232 99.9212 51.21 100 51.4922 100C51.9884 100 52.4786 99.7576 52.7669 99.3106ZM60.4833 98.3985C70.1694 81.8242 72.9706 65.2682 69.2953 46.2955C68.2164 40.7333 64.7762 35.8939 59.8611 33.0212C59.1388 32.597 58.2086 32.8394 57.7867 33.5621C57.3633 34.2849 57.6061 35.2121 58.3285 35.6348C62.4909 38.0682 65.4014 42.1636 66.3165 46.8712C69.8416 65.0803 67.1587 80.9682 57.8641 96.8712C57.4438 97.5954 57.6881 98.5227 58.4089 98.9424C58.6487 99.0848 58.9127 99.15 59.1737 99.15C59.6927 99.15 60.201 98.8848 60.4833 98.3985ZM22.1305 89.8939C33.0305 76.4788 36.1232 66.5364 33.5434 53.2121C32.6952 48.8364 33.6026 44.3939 36.1004 40.703C38.5982 37.0106 42.3828 34.5121 46.7607 33.6636C48.2569 33.3712 49.8093 33.2985 51.3131 33.4182C52.1402 33.4848 52.8807 32.8636 52.9475 32.0303C53.0158 31.197 52.3936 30.4652 51.5575 30.3985C49.7805 30.2545 47.9474 30.3455 46.181 30.6879C41.0079 31.6879 36.5344 34.6424 33.5844 39.0045C30.6344 43.3652 29.5616 48.6152 30.5631 53.7848C32.9471 66.0985 30.0229 75.3667 19.7738 87.9803C19.2457 88.6318 19.3444 89.5864 19.9954 90.1106C20.2761 90.3379 20.6145 90.4515 20.9499 90.4515C21.393 90.4545 21.83 90.2636 22.1305 89.8939ZM68.749 95.9576C71.0192 91.4212 72.8477 86.7439 74.1846 82.0545C74.4122 81.25 73.9464 80.4121 73.1406 80.1833C72.3333 79.9515 71.4941 80.4212 71.2665 81.2258C69.9827 85.7348 68.2255 90.2333 66.0373 94.6015C65.6624 95.35 65.9644 96.2606 66.7141 96.6348C66.9341 96.7409 67.1647 96.7924 67.3924 96.7924C67.9478 96.7955 68.4819 96.4909 68.749 95.9576ZM75.9935 74.0182C77.4897 64.8894 77.2484 55.4424 75.2529 45.1439C72.9084 33.0455 62.2633 24.2636 49.9429 24.2636C48.2934 24.2636 46.6408 24.4227 45.0323 24.7364C38.2658 26.0424 32.416 29.9061 28.5585 35.6136C24.6996 41.3182 23.2974 48.1833 24.607 54.9455C25.2686 58.3606 25.4462 61.2273 25.1669 63.9697C25.082 64.803 25.689 65.5455 26.5221 65.6318C27.3688 65.7 28.1002 65.1106 28.1852 64.2773C28.4978 61.2318 28.3066 58.0833 27.5873 54.3682C26.4295 48.4015 27.6678 42.3439 31.073 37.3091C34.4767 32.2742 39.6376 28.8652 45.6105 27.7121C47.0293 27.4349 48.4876 27.2955 49.9413 27.2955C60.8141 27.2955 70.2058 35.0439 72.2741 45.7212C74.1998 55.6621 74.435 64.7591 72.998 73.5303C72.8629 74.3561 73.4213 75.1348 74.2514 75.2682C74.3349 75.2833 74.4138 75.2894 74.4972 75.2894C75.2271 75.2864 75.8721 74.7606 75.9935 74.0182ZM17.4976 85.9697C21.5159 80.9985 24.3096 76.5864 26.035 72.4864C26.3597 71.7136 25.997 70.8258 25.2231 70.5015C24.4477 70.1788 23.5615 70.5394 23.2367 71.3091C21.6236 75.1439 18.9726 79.3167 15.1349 84.0667C14.6083 84.7182 14.7115 85.6727 15.3625 86.197C15.6432 86.4212 15.9801 86.5318 16.314 86.5318C16.7586 86.5318 17.1987 86.3394 17.4976 85.9697ZM13.3488 81.4424C23.2489 68.9606 22.9909 62.5727 21.6267 55.5197C20.1623 47.9652 21.7299 40.2909 26.041 33.9121C27.5888 31.6242 29.4478 29.5727 31.5692 27.8167C32.2141 27.2818 32.3037 26.3273 31.768 25.6833C31.2323 25.0394 30.2763 24.9515 29.6314 25.4848C27.2884 27.4242 25.2337 29.6894 23.525 32.2167C18.7601 39.2652 17.0287 47.7455 18.6463 56.0924C19.9028 62.5818 20.0879 68.0636 10.9694 79.5591C10.4489 80.2167 10.5597 81.1682 11.2183 81.6879C11.4975 81.9091 11.8283 82.0152 12.1591 82.0152C12.6068 82.0167 13.0499 81.8197 13.3488 81.4424ZM77.4684 91.45C83.3988 76.5106 84.5869 61.4303 81.2105 43.9894C80.3456 39.5152 78.5641 35.3606 75.9191 31.6394C75.4335 30.9576 74.4881 30.797 73.8022 31.2818C73.1193 31.7667 72.957 32.7121 73.4441 33.3955C75.8372 36.7606 77.4487 40.5197 78.2302 44.5667C81.4928 61.4136 80.3547 75.9561 74.6474 90.3364C74.3394 91.1136 74.7203 91.9955 75.5003 92.303C75.6839 92.3758 75.8705 92.4091 76.0572 92.4091C76.6611 92.4091 77.2332 92.047 77.4684 91.45ZM70.3712 27.5955C70.9053 26.95 70.8128 25.9939 70.1633 25.4621C64.4697 20.7773 57.289 18.197 49.9398 18.197C47.9003 18.197 45.8593 18.3924 43.876 18.7803C41.448 19.25 39.0686 20.003 36.806 21.0212C36.0427 21.3652 35.7013 22.2621 36.0458 23.0242C36.3887 23.7864 37.2856 24.1273 38.0519 23.7833C40.1005 22.8621 42.2553 22.1803 44.4557 21.7545C46.2493 21.4045 48.0946 21.2273 49.9398 21.2273C56.5849 21.2273 63.0827 23.5621 68.2331 27.8C68.5153 28.0333 68.8552 28.147 69.1967 28.147C69.6352 28.147 70.0677 27.9591 70.3712 27.5955ZM86.6705 49.0227C87.499 48.8955 88.0681 48.1212 87.9391 47.2939C87.713 45.8197 87.4611 44.3364 87.1697 42.8379C83.722 25.0455 68.0661 12.1318 49.9398 12.1318C47.5134 12.1318 45.0839 12.3652 42.7242 12.8258C32.7756 14.75 24.1715 20.4303 18.4976 28.8212C15.4718 33.2955 13.4717 38.2424 12.5521 43.5227C12.408 44.347 12.9619 45.1318 13.7874 45.2758C14.622 45.4197 15.3989 44.8667 15.5431 44.0424C16.3883 39.1848 18.229 34.6348 21.0121 30.5167C26.2322 22.797 34.1474 17.5712 43.3024 15.8C45.4754 15.3773 47.7076 15.1621 49.9398 15.1621C66.6154 15.1621 81.0194 27.0439 84.1909 43.4136C84.4731 44.8758 84.719 46.3212 84.939 47.7591C85.0528 48.5076 85.7008 49.0424 86.4368 49.0424C86.5142 49.0409 86.5916 49.0349 86.6705 49.0227ZM86.3806 84.0288C88.8253 74.8409 89.6402 65.4773 88.8784 55.403C88.8147 54.5682 88.0863 53.947 87.2532 54.0061C86.4155 54.0682 85.7888 54.7955 85.8525 55.6288C86.59 65.3606 85.804 74.3955 83.4488 83.2485C83.2334 84.0561 83.7174 84.8879 84.5263 85.103C84.6568 85.1364 84.7903 85.153 84.9178 85.153C85.5885 85.1545 86.2016 84.7061 86.3806 84.0288ZM9.70989 76.2424C17.4733 66.003 16.5962 61.4697 15.6675 56.6667C15.3549 55.0606 15.1546 53.4061 15.0696 51.7424C15.0287 50.9045 14.3291 50.2621 13.4778 50.3061C12.6417 50.3485 11.9967 51.0606 12.0392 51.8955C12.1303 53.6985 12.3488 55.4985 12.6872 57.2424C13.5521 61.7152 14.2365 65.2485 7.2895 74.4106C6.78418 75.0773 6.91469 76.0288 7.5839 76.5318C7.85856 76.7394 8.18027 76.8394 8.49894 76.8394C8.95722 76.8439 9.41094 76.6364 9.70989 76.2424ZM6.6294 70.1727C10.8875 63.9106 10.3412 61.0879 9.70989 57.8212C7.62942 47.0864 9.8586 36.1833 15.9847 27.1197C22.1123 18.0561 31.4053 11.9212 42.1521 9.84394C46.3995 9.01364 50.8473 8.86515 55.2525 9.44394C56.0887 9.54242 56.8474 8.96818 56.9536 8.13939C57.0629 7.30909 56.4802 6.54849 55.6471 6.43939C50.9216 5.81818 46.1355 5.97727 41.574 6.8697C30.0335 9.10151 20.0515 15.6909 13.4702 25.4258C6.89041 35.1591 4.49582 46.8697 6.73107 58.3985C7.29709 61.3227 7.67039 63.2515 4.12101 68.4712C3.64907 69.1636 3.83117 70.1076 4.52466 70.5773C4.78566 70.7545 5.08157 70.8394 5.37596 70.8394C5.85852 70.8379 6.33501 70.6061 6.6294 70.1727ZM93.2776 73.3909C93.229 73.3909 93.1774 73.3879 93.1213 73.3848C92.2882 73.297 91.6827 72.5545 91.7646 71.7212C92.7146 62.4167 92.1819 52.7818 90.147 42.2591C87.3366 27.7682 76.8645 15.8636 62.8172 11.1894C62.0235 10.9242 61.5926 10.0667 61.8581 9.27273C62.1237 8.4803 62.9765 8.04848 63.7777 8.31515C78.86 13.3333 90.1091 26.1212 93.1258 41.6848C95.2215 52.503 95.7647 62.4288 94.7859 72.0303C94.7101 72.8106 94.0484 73.3909 93.2776 73.3909Z" fill="#3629B7"/>
</svg>
