<svg width="100" height="100" viewBox="0 0 100 100" fill="none" xmlns="http://www.w3.org/2000/svg">
    <path fill-rule="evenodd" clip-rule="evenodd" d="M100 83.7891V72.5586C100 71.1563 98.8632 70.0195 97.4609 70.0195C96.0587 70.0195 94.9219 71.1563 94.9219 72.5586V83.7891C94.9219 89.9276 89.9276 94.9219 83.7891 94.9219H72.5586C71.1563 94.9219 70.0195 96.0587 70.0195 97.4609C70.0195 98.8632 71.1563 100 72.5586 100H83.7891C92.7277 100 100 92.7277 100 83.7891ZM29.9805 97.4609C29.9805 96.0587 28.8437 94.9219 27.4414 94.9219H16.2109C10.0724 94.9219 5.07812 89.9276 5.07812 83.7891V72.5586C5.07812 71.1563 3.94131 70.0195 2.53906 70.0195C1.13682 70.0195 0 71.1563 0 72.5586V83.7891C0 92.7277 7.27227 100 16.2109 100H27.4414C28.8437 100 29.9805 98.8632 29.9805 97.4609ZM5.07812 27.4414V16.2109C5.07812 10.0723 10.0724 5.07812 16.2109 5.07812H27.4414C28.8437 5.07812 29.9805 3.94131 29.9805 2.53906C29.9805 1.13682 28.8437 0 27.4414 0H16.2109C7.27227 0 0 7.27217 0 16.2109V27.4414C0 28.8437 1.13682 29.9805 2.53906 29.9805C3.94131 29.9805 5.07812 28.8437 5.07812 27.4414ZM100 27.4414V16.2109C100 7.27217 92.7277 0 83.7891 0H72.5586C71.1563 0 70.0195 1.13682 70.0195 2.53906C70.0195 3.94131 71.1563 5.07812 72.5586 5.07812H83.7891C89.9276 5.07812 94.9219 10.0723 94.9219 16.2109V27.4414C94.9219 28.8437 96.0587 29.9805 97.4609 29.9805C98.8632 29.9805 100 28.8437 100 27.4414ZM67.5224 73.9098C68.5921 72.9217 68.6583 71.2536 67.6702 70.1838C66.682 69.1141 65.0139 69.048 63.9442 70.036C60.1378 73.552 55.1857 75.4883 50.0001 75.4883C44.8144 75.4883 39.8623 73.552 36.0559 70.036C34.986 69.048 33.3181 69.1142 32.3299 70.1838C31.3419 71.2536 31.408 72.9217 32.4777 73.9098C37.2614 78.3284 43.4841 80.7618 50.0001 80.7618C56.516 80.7618 62.7387 78.3284 67.5224 73.9098ZM55.2734 56.4453V37.6953C55.2734 36.2391 54.093 35.0586 52.6367 35.0586C51.1805 35.0586 50 36.2391 50 37.6953V56.4453C50 57.253 49.3429 57.9102 48.5352 57.9102H46.3867C44.9305 57.9102 43.75 59.0906 43.75 60.5469C43.75 62.0031 44.9305 63.1836 46.3867 63.1836H48.5352C52.2507 63.1836 55.2734 60.1608 55.2734 56.4453ZM73.4375 45.0684V37.5488C73.4375 36.1735 72.3226 35.0586 70.9473 35.0586C69.572 35.0586 68.457 36.1735 68.457 37.5488V45.0684C68.457 46.4437 69.572 47.5586 70.9473 47.5586C72.3226 47.5586 73.4375 46.4437 73.4375 45.0684ZM29.6387 47.5586C28.2634 47.5586 27.1484 46.4437 27.1484 45.0684V37.5488C27.1484 36.1735 28.2634 35.0586 29.6387 35.0586C31.014 35.0586 32.1289 36.1735 32.1289 37.5488V45.0684C32.1289 46.4437 31.014 47.5586 29.6387 47.5586Z" fill="#3629B7"/>
</svg>
