<svg width="100" height="78" viewBox="0 0 100 78" fill="none" xmlns="http://www.w3.org/2000/svg">
    <path d="M23.497 37.0333H15.4619V67.6919H23.497V37.0333Z" fill="#3629B7"/>
    <path d="M25.2381 34.9881H13.7212V39.078H25.2381V34.9881Z" fill="#0890FE"/>
    <path d="M25.2381 65.6464H13.7212V69.7363H25.2381V65.6464Z" fill="#0890FE"/>
    <path d="M17.916 63.3061H17.532C17.1204 63.3061 16.7866 62.9664 16.7866 62.5474V42.1771C16.7866 41.758 17.1204 41.4183 17.532 41.4183H17.916C18.3277 41.4183 18.6614 41.758 18.6614 42.1771V62.5474C18.6614 62.9664 18.3277 63.3061 17.916 63.3061Z" fill="white"/>
    <path d="M21.427 63.3061H21.043C20.6313 63.3061 20.2976 62.9664 20.2976 62.5474V42.1771C20.2976 41.758 20.6313 41.4183 21.043 41.4183H21.427C21.8386 41.4183 22.1724 41.758 22.1724 42.1771V62.5474C22.1724 62.9664 21.8386 63.3061 21.427 63.3061Z" fill="white"/>
    <path d="M39.467 37.0333H31.4319V67.6919H39.467V37.0333Z" fill="#3629B7"/>
    <path d="M41.2081 34.9881H29.6912V39.078H41.2081V34.9881Z" fill="#0890FE"/>
    <path d="M41.2081 65.6464H29.6912V69.7363H41.2081V65.6464Z" fill="#0890FE"/>
    <path d="M33.886 63.3061H33.502C33.0903 63.3061 32.7566 62.9664 32.7566 62.5474V42.1771C32.7566 41.758 33.0903 41.4183 33.502 41.4183H33.886C34.2976 41.4183 34.6314 41.758 34.6314 42.1771V62.5474C34.6314 62.9664 34.2976 63.3061 33.886 63.3061Z" fill="white"/>
    <path d="M37.3969 63.3061H37.013C36.6013 63.3061 36.2676 62.9664 36.2676 62.5474V42.1771C36.2676 41.758 36.6013 41.4183 37.013 41.4183H37.3969C37.8086 41.4183 38.1423 41.758 38.1423 42.1771V62.5474C38.1423 62.9664 37.8086 63.3061 37.3969 63.3061Z" fill="white"/>
    <path d="M55.437 37.0333H47.4019V67.6919H55.437V37.0333Z" fill="#3629B7"/>
    <path d="M57.178 34.9881H45.6611V39.078H57.178V34.9881Z" fill="#0890FE"/>
    <path d="M57.178 65.6464H45.6611V69.7363H57.178V65.6464Z" fill="#0890FE"/>
    <path d="M49.8562 63.3061H49.4722C49.0605 63.3061 48.7268 62.9664 48.7268 62.5474V42.1771C48.7268 41.758 49.0605 41.4183 49.4722 41.4183H49.8562C50.2678 41.4183 50.6016 41.758 50.6016 42.1771V62.5474C50.6016 62.9664 50.2678 63.3061 49.8562 63.3061Z" fill="white"/>
    <path d="M53.3667 63.3061H52.9827C52.571 63.3061 52.2373 62.9664 52.2373 62.5474V42.1771C52.2373 41.758 52.571 41.4183 52.9827 41.4183H53.3667C53.7783 41.4183 54.1121 41.758 54.1121 42.1771V62.5474C54.1121 62.9664 53.7783 63.3061 53.3667 63.3061Z" fill="white"/>
    <path d="M71.4067 37.0333H63.3716V67.6919H71.4067V37.0333Z" fill="#98C9ED"/>
    <path d="M73.1478 34.9881H61.6309V39.078H73.1478V34.9881Z" fill="#63AEE0"/>
    <path d="M73.1478 65.6464H61.6309V69.7363H73.1478V65.6464Z" fill="#63AEE0"/>
    <path d="M65.8259 63.3061H65.4419C65.0303 63.3061 64.6965 62.9664 64.6965 62.5474V42.1771C64.6965 41.758 65.0303 41.4183 65.4419 41.4183H65.8259C66.2376 41.4183 66.5713 41.758 66.5713 42.1771V62.5474C66.5713 62.9664 66.2376 63.3061 65.8259 63.3061Z" fill="#D4EFFF"/>
    <path d="M69.3366 63.3061H68.9527C68.541 63.3061 68.2073 62.9664 68.2073 62.5474V42.1771C68.2073 41.758 68.541 41.4183 68.9527 41.4183H69.3366C69.7483 41.4183 70.082 41.758 70.082 42.1771V62.5474C70.082 62.9664 69.7483 63.3061 69.3366 63.3061Z" fill="#D4EFFF"/>
    <path d="M76.4121 31.1586H10.458V34.9879H76.4121V31.1586Z" fill="#3629B7"/>
    <path d="M76.4121 31.1586H10.458V32.3816H76.4121V31.1586Z" fill="white"/>
    <path d="M76.4121 67.8218H10.458V71.6511H76.4121V67.8218Z" fill="#3629B7"/>
    <path d="M76.4121 67.8218H10.458V69.0449H76.4121V67.8218Z" fill="white"/>
    <path d="M73.1478 31.1585H13.7214V27.0526C13.7214 27.0235 13.7399 26.9981 13.7671 26.9893L43.4152 17.5708C43.4277 17.567 43.4413 17.567 43.454 17.5708L73.1022 26.9893C73.1294 26.9978 73.1478 27.0235 73.1478 27.0526V31.1585Z" fill="#3629B7"/>
    <path d="M62.2458 28.6654H24.6248V26.0349L43.4352 20.0593L62.2458 26.0349V28.6654Z" fill="white"/>
    <path d="M39.1383 26.2616C39.1383 27.0583 38.4125 27.4249 37.4859 27.4249H35.5039L36.2246 23.7565H38.0467C38.86 23.7565 39.2974 24.0659 39.2974 24.6158C39.2974 25.0562 39.0452 25.3653 38.6541 25.5328C38.9634 25.6694 39.1383 25.921 39.1383 26.2616ZM38.1241 26.2406C38.1241 26.0205 37.9492 25.9315 37.7018 25.9315H36.8011L36.6572 26.6754H37.5424C37.8979 26.6754 38.1241 26.5342 38.1241 26.2406ZM37.0846 24.506L36.9456 25.2135H37.6766C38.0369 25.2135 38.2324 25.0667 38.2324 24.7944C38.2324 24.595 38.073 24.506 37.8053 24.506H37.0846Z" fill="#3629B7"/>
    <path d="M42.0567 26.7122H40.5227L40.1059 27.4249H39.03L41.3412 23.7565H42.3451L43.2151 27.4249H42.2009L42.0567 26.7122ZM41.9022 25.947L41.6602 24.7576L40.9705 25.947H41.9022Z" fill="#3629B7"/>
    <path d="M47.6533 23.7565L46.9326 27.4249H46.0935L44.9044 25.4126L44.5082 27.4249H43.5098L44.2302 23.7565H45.069L46.2635 25.7637L46.6546 23.7565H47.6533Z" fill="#3629B7"/>
    <path d="M50.0624 25.4441L51.2719 27.4252H50.1344L49.3059 26.1046L48.8372 26.5345L48.6623 27.4252H47.6587L48.3791 23.7568H49.3827L49.0895 25.2555L50.7161 23.7568H51.9155L50.0624 25.4441Z" fill="#3629B7"/>
    <path d="M65.4079 19.639C61.1149 13.6349 59.4452 11.7106 53.312 7.43191C55.057 4.99017 56.6645 2.45446 58.3927 0C65.2341 4.79476 67.9194 7.38382 72.5927 14.3903C70.1917 16.1328 67.7703 17.8421 65.4079 19.639Z" fill="#285193"/>
    <path d="M65.6091 18.2089C62.152 12.7058 60.082 10.8058 54.7292 7.207C56.0737 5.31447 57.3361 3.36611 58.6724 1.46777C64.6318 5.45239 67.3557 7.89911 71.1544 14.1077C69.2989 15.4643 67.413 16.7802 65.6091 18.2089Z" fill="#D4EFFF"/>
    <path d="M67.2555 14.3366C66.8012 14.6974 66.2407 14.5973 65.9467 14.1019C65.6523 13.6065 65.7625 12.956 66.1886 12.5584C66.6144 12.1611 67.2248 12.2598 67.529 12.7699C67.8328 13.28 67.7098 13.9759 67.2555 14.3366Z" fill="#285193"/>
    <path d="M60.391 6.73632C60.0078 7.22345 59.3368 7.27404 58.8366 6.96081C58.3365 6.64757 58.1781 6.05207 58.5374 5.55333C58.8964 5.05459 59.5812 4.97801 60.0904 5.30147C60.5995 5.62493 60.7741 6.24919 60.391 6.73632Z" fill="#285193"/>
    <path d="M71.6432 14.8529C71.2302 15.1507 70.7186 15.0592 70.447 14.6265C70.1752 14.1938 70.2803 13.6392 70.6849 13.3335C71.0898 13.0277 71.5959 13.1527 71.8786 13.5765C72.161 14.0003 72.0562 14.5552 71.6432 14.8529Z" fill="#285193"/>
    <path d="M66.0814 18.8992C65.7159 19.1825 65.209 19.1272 64.9485 18.7272C64.6881 18.3271 64.8046 17.8066 65.1764 17.5085C65.5481 17.2105 65.9937 17.3136 66.2514 17.704C66.5089 18.0941 66.4469 18.6158 66.0814 18.8992Z" fill="#285193"/>
    <path d="M59.4339 1.96932C59.1354 2.39037 58.5788 2.49183 58.1565 2.20265C57.7343 1.91319 57.6528 1.37824 57.9444 0.959946C58.2361 0.541379 58.7759 0.444893 59.1889 0.734074C59.6022 1.02298 59.7323 1.54826 59.4339 1.96932Z" fill="#285193"/>
    <path d="M55.4355 7.68013C55.1496 8.07299 54.632 8.1739 54.2334 7.89882C53.835 7.62401 53.749 7.12057 54.0325 6.72523C54.3159 6.32988 54.821 6.24915 55.2224 6.51484C55.6235 6.78052 55.7215 7.28728 55.4355 7.68013Z" fill="#285193"/>
    <path d="M63.6304 9.70355C63.4544 9.89265 63.2793 10.084 63.1052 10.2745C63.279 10.4019 63.4607 10.4699 63.6277 10.3085C63.7056 10.2333 63.7189 10.1735 63.723 10.0638C63.7271 9.95403 63.6692 9.81165 63.6304 9.70355Z" fill="#285193"/>
    <path d="M63.8497 8.39329C63.7908 8.46324 63.7658 8.52157 63.7674 8.62635C63.769 8.73141 63.8274 8.87462 63.873 8.97691C64.0303 8.79417 64.1875 8.60921 64.3434 8.42453C64.2624 8.36731 64.1579 8.3051 64.0626 8.30234C63.967 8.29957 63.9086 8.32335 63.8497 8.39329Z" fill="#285193"/>
    <path d="M65.5803 7.31059C64.4913 6.23124 62.9164 6.92805 62.0596 7.92863C61.2029 8.92921 60.7242 10.5127 61.7324 11.51C62.7407 12.5072 64.1826 11.8972 65.0974 10.9812C66.0126 10.0652 66.6692 8.38995 65.5803 7.31059ZM63.4481 10.9237C63.2099 10.9127 62.9737 10.7637 62.7803 10.6144C62.6519 10.7449 62.5275 10.8781 62.401 11.01C62.3306 10.9364 62.26 10.8626 62.1897 10.7888C62.3122 10.6606 62.4365 10.5343 62.5566 10.4038C62.3179 10.1636 62.1142 9.91569 61.9727 9.60391C62.0906 9.47483 62.2109 9.34796 62.326 9.21667C62.4023 9.36979 62.4718 9.52845 62.5625 9.67273C62.6532 9.81701 62.7518 9.9436 62.8699 10.0641C63.0798 9.83885 63.2889 9.61469 63.4959 9.38582C63.4771 9.33552 63.4307 9.23187 63.4163 9.18958C63.3405 8.96901 63.2238 8.7407 63.2229 8.52151C63.2221 8.30233 63.2718 8.16799 63.4147 8.00602C63.5578 7.84405 63.7324 7.76528 63.9702 7.77661C64.2079 7.78794 64.458 7.93913 64.6513 8.0895C64.7442 7.99331 64.8324 7.89408 64.9212 7.79485C64.9994 7.87363 65.0782 7.95212 65.1569 8.03007C65.0687 8.12598 64.9801 8.22162 64.8916 8.31753C65.1205 8.57182 65.2745 8.84076 65.3999 9.16056C65.2615 9.22219 65.123 9.28383 64.9829 9.34243C64.8873 9.08095 64.7613 8.86287 64.5845 8.65032C64.3895 8.86315 64.2054 9.08344 64.0096 9.29682C64.0259 9.33966 64.0675 9.44083 64.08 9.47538C64.1639 9.7059 64.2611 9.97898 64.2377 10.2034C64.2144 10.4279 64.1595 10.534 64.0107 10.6899C63.8616 10.8463 63.6859 10.9351 63.4481 10.9237Z" fill="#285193"/>
    <path d="M100 51.8116C91.6925 59.2115 87.2758 61.5358 76.6933 64.5535C75.4523 60.7859 74.4698 56.997 73.4456 53.1677C85.4129 50.2751 83.4347 51.7597 91.6203 42.4463C94.9318 45.1841 97.389 48.4097 100 51.8116Z" fill="#285193"/>
    <path d="M98.1485 51.7076C91.3563 57.9466 86.5792 60.8123 77.6076 62.892C76.6379 59.9698 75.8216 57.0303 75.0374 54.0529C83.7741 52.6869 86.6192 52.0324 91.7389 44.271C94.2586 46.4233 96.1709 49.0522 98.1485 51.7076Z" fill="#D4EFFF"/>
    <path d="M93.2625 50.0148C93.7537 50.6723 93.6068 51.573 93.0273 52.1113C92.4478 52.6495 91.685 52.662 91.2261 52.0092C90.7672 51.3565 90.9489 50.5376 91.4787 49.9828C92.0084 49.4279 92.7712 49.3574 93.2625 50.0148Z" fill="#285193"/>
    <path d="M81.6614 57.3111C81.9408 58.0462 81.5454 58.6738 80.7897 58.8638C80.034 59.0537 79.2351 58.629 78.9874 57.8818C78.7398 57.1345 79.1802 56.5409 79.9001 56.4079C80.6202 56.2749 81.3819 56.5763 81.6614 57.3111Z" fill="#285193"/>
    <path d="M92.4923 43.4869C93.0017 43.8977 93.1356 44.572 92.7046 45.0857C92.2737 45.5993 91.6165 45.5974 91.1364 45.1824C90.6563 44.7675 90.457 44.0666 90.901 43.5624C91.345 43.0584 91.9829 43.076 92.4923 43.4869Z" fill="#285193"/>
    <path d="M98.9995 50.9402C99.396 51.4688 99.3105 52.1536 98.8306 52.5869C98.3511 53.0201 97.6858 53.019 97.2912 52.4865C96.8967 51.9538 96.9806 51.2361 97.4596 50.7769C97.9391 50.3174 98.6031 50.4116 98.9995 50.9402Z" fill="#285193"/>
    <path d="M76.0966 53.8836C76.269 54.4893 75.8823 54.9369 75.3009 55.0425C74.7195 55.1481 74.1561 54.8753 73.9961 54.2809C73.8362 53.6865 74.1677 53.1629 74.7641 53.0443C75.3604 52.9254 75.9241 53.2776 76.0966 53.8836Z" fill="#285193"/>
    <path d="M78.7473 62.6225C78.9645 63.2589 78.5941 63.808 77.9671 63.9758C77.3401 64.1433 76.7147 63.8224 76.504 63.1873C76.2933 62.5523 76.5974 61.9438 77.2421 61.8028C77.8865 61.6618 78.53 61.9861 78.7473 62.6225Z" fill="#285193"/>
    <path d="M86.9822 55.3688C87.1323 55.6561 87.2882 55.9406 87.4484 56.222C87.6572 56.0368 87.8389 55.8272 87.7211 55.5419C87.6659 55.4086 87.5937 55.3868 87.4579 55.3503C87.3224 55.3135 87.1277 55.3542 86.9822 55.3688Z" fill="#285193"/>
    <path d="M85.5315 54.6661C85.5894 54.7678 85.6445 54.8143 85.7694 54.8499C85.8943 54.8856 86.0795 54.8651 86.2164 54.8458C86.0733 54.5898 85.9272 54.3335 85.7789 54.0797C85.6817 54.158 85.5652 54.2591 85.5212 54.3733C85.477 54.4878 85.4737 54.5643 85.5315 54.6661Z" fill="#285193"/>
    <path d="M85.0751 52.3852C83.5332 53.2144 83.3912 54.8963 84.1502 56.4676C84.9092 58.0393 86.6169 59.1897 88.3201 58.2543C90.0232 57.319 89.9988 55.1735 89.0753 53.7003C88.1517 52.2271 86.6169 51.556 85.0751 52.3852ZM88.4143 55.9195C88.3 56.2247 87.9956 56.513 87.7314 56.7186C87.8335 56.9168 87.9432 57.1089 88.0474 57.3051C87.9204 57.3792 87.7933 57.4533 87.6662 57.5274C87.563 57.3378 87.4609 57.1476 87.3561 56.9588C86.9444 57.1719 86.5165 57.3057 86.0597 57.3734C85.9617 57.1849 85.8642 56.9959 85.77 56.8054C86.0002 56.7899 86.2308 56.7537 86.4535 56.6973C86.6759 56.641 86.8763 56.558 87.0821 56.4594C86.8996 56.1238 86.7231 55.7866 86.5376 55.4524C86.47 55.4635 86.3313 55.4942 86.2745 55.5016C85.9772 55.5398 85.6657 55.5721 85.4045 55.4668C85.1435 55.3615 85.011 55.2454 84.8885 55.0013C84.7663 54.7573 84.7598 54.5461 84.8855 54.2813C85.0113 54.0168 85.2785 53.7943 85.5161 53.6185C85.4468 53.4833 85.367 53.3534 85.2958 53.2191C85.4142 53.1547 85.5326 53.09 85.651 53.0256C85.7249 53.1547 85.7974 53.2846 85.8721 53.4131C86.246 53.2393 86.6202 53.1008 87.0202 53.0029C87.0441 53.1873 87.0669 53.3717 87.0894 53.5563C86.759 53.6265 86.4497 53.7346 86.1376 53.865C86.312 54.1638 86.4836 54.4629 86.6601 54.7614C86.7174 54.7531 86.8518 54.7252 86.898 54.7194C87.2054 54.6802 87.5679 54.6122 87.8416 54.7006C88.1151 54.7891 88.2202 54.8651 88.3567 55.1149C88.4933 55.3648 88.5286 55.6141 88.4143 55.9195Z" fill="#285193"/>
    <path d="M33.2491 76.246C18.79 69.3627 13.3207 66.7819 1.4856 55.2963C5.18462 50.9548 9.06396 46.7975 12.8219 42.5129C22.6408 51.3526 28.2002 55.2128 40.2236 60.6814C37.8312 65.8386 35.5961 71.0673 33.2491 76.246Z" fill="#285193"/>
    <path d="M32.2196 73.6998C19.5016 68.2522 14.1771 65.238 4.21021 55.2906C7.03458 51.8292 10.1009 48.6052 13.0184 45.2303C20.993 53.353 27.3551 57.2163 37.6994 61.5845C35.7978 65.588 34.0862 69.679 32.2196 73.6998Z" fill="#D4EFFF"/>
    <path d="M31.2867 66.0681C30.8094 67.0955 29.6205 67.5996 28.5541 67.1814C27.4878 66.7632 27.1073 65.6087 27.6325 64.6051C28.1577 63.6015 29.3145 63.1457 30.335 63.5716C31.3554 63.9973 31.7641 65.0404 31.2867 66.0681Z" fill="#285193"/>
    <path d="M14.4911 56.0744C13.7731 57.0255 12.5593 57.0805 11.714 56.2552C10.8686 55.4298 10.7709 54.0456 11.522 53.1525C12.2731 52.2595 13.4348 52.2481 14.2364 53.063C15.0383 53.8784 15.2091 55.1233 14.4911 56.0744Z" fill="#285193"/>
    <path d="M39.1487 62.2116C38.7666 63.0368 37.8382 63.3799 37.0108 63.0257C36.1834 62.6713 35.8413 61.7814 36.2342 60.9617C36.6271 60.1419 37.5493 59.7707 38.3705 60.1254C39.1919 60.4803 39.5308 61.3866 39.1487 62.2116Z" fill="#285193"/>
    <path d="M33.7329 74.3559C33.334 75.2268 32.385 75.5754 31.5193 75.216C30.6536 74.8568 30.278 73.9348 30.6788 73.0723C31.0796 72.2097 32.0477 71.8 32.9213 72.168C33.7946 72.5362 34.1315 73.485 33.7329 74.3559Z" fill="#285193"/>
    <path d="M14.136 46.3923C13.5446 47.086 12.5912 47.0539 11.9837 46.4084C11.3763 45.7628 11.2533 44.8035 11.8515 44.1251C12.4497 43.4466 13.4064 43.4032 14.0559 44.0391C14.7052 44.6747 14.7275 45.6987 14.136 46.3923Z" fill="#285193"/>
    <path d="M5.42576 56.5082C4.80256 57.2618 3.80679 57.2176 3.13444 56.5413C2.46181 55.8654 2.37438 54.8184 2.99133 54.0745C3.60829 53.3305 4.60677 53.2865 5.29107 53.9677C5.97537 54.6492 6.04896 55.7548 5.42576 56.5082Z" fill="#285193"/>
    <path d="M20.8791 61.4504C20.5953 61.898 20.3039 62.3434 20.0237 62.7921C20.4318 62.9489 20.8291 62.9807 21.0901 62.5925C21.212 62.4112 21.2201 62.2975 21.1894 62.0849C21.1588 61.8723 20.995 61.6379 20.8791 61.4504Z" fill="#285193"/>
    <path d="M20.8855 58.9146C20.7924 59.0677 20.7563 59.1899 20.7861 59.3882C20.816 59.5864 20.964 59.8258 21.0786 60.0025C21.3355 59.5936 21.5877 59.1781 21.8433 58.7672C21.6676 58.6926 21.4544 58.6226 21.2711 58.6558C21.0875 58.6887 20.9787 58.7614 20.8855 58.9146Z" fill="#285193"/>
    <path d="M23.7935 56.1904C21.4894 54.7089 18.8983 56.4458 17.4749 58.5194C16.0514 60.593 15.2319 64.2539 17.76 65.8297C20.2881 67.4055 23.0723 65.1373 24.3366 62.9794C25.6004 60.8213 26.0976 57.672 23.7935 56.1904ZM21.0088 63.8518C20.53 63.9554 19.975 63.8073 19.5139 63.6C19.3149 63.912 19.1204 64.2227 18.9257 64.5361C18.7481 64.4247 18.57 64.3134 18.394 64.1987C18.5847 63.8935 18.7794 63.5903 18.973 63.2871C18.4234 62.8949 17.955 62.4739 17.5938 61.8935C17.7912 61.5983 17.9922 61.3044 18.1912 61.0109C18.3577 61.305 18.5562 61.585 18.7756 61.8365C18.995 62.0878 19.2215 62.2964 19.4881 62.4897C19.8281 61.9695 20.1754 61.4559 20.501 60.9249C20.4453 60.839 20.321 60.6676 20.2759 60.5946C20.0394 60.2126 19.7933 59.8135 19.7474 59.3895C19.7015 58.9652 19.7836 58.6814 20.0051 58.329C20.2265 57.9766 20.5211 57.772 20.9653 57.7129C21.4096 57.6534 21.8986 57.8143 22.3125 58.0155C22.4553 57.7969 22.5873 57.5733 22.7242 57.3516C22.8887 57.4547 23.0538 57.5581 23.2184 57.6612C23.0845 57.8804 22.9509 58.0998 22.817 58.3193C23.2996 58.6653 23.7023 59.0625 24.0602 59.5402C23.8217 59.7281 23.5831 59.9158 23.3457 60.1057C23.0568 59.7129 22.7339 59.381 22.3524 59.0811C22.0559 59.5703 21.7479 60.0496 21.4492 60.5388C21.4987 60.6098 21.6198 60.7732 21.6591 60.831C21.9206 61.216 22.215 61.6582 22.2593 62.0905C22.3035 62.5228 22.269 62.7351 22.0428 63.1044C21.8166 63.4731 21.4878 63.7484 21.0088 63.8518Z" fill="#285193"/>
    <path d="M15.2288 30.003C11.1765 31.4889 10.4034 32.3543 7.19666 35.1139C6.10857 33.8358 5.01043 32.571 3.95166 31.2667C7.62924 28.0397 8.92886 27.1986 13.398 25.3127C14.022 26.8699 14.6311 28.4352 15.2288 30.003Z" fill="#285193"/>
    <path d="M14.5022 29.6924C10.7429 30.9436 10.1629 31.8525 7.27363 34.334C6.41526 33.3475 5.56342 32.3599 4.75366 31.3306C7.84035 28.4682 9.01751 27.4093 13.0704 26.0729C13.5499 27.2783 14.0216 28.487 14.5022 29.6924Z" fill="#D4EFFF"/>
    <path d="M12.6833 28.254C12.815 28.5553 12.6896 28.85 12.3825 28.9435C12.0753 29.0369 11.7424 28.8829 11.5974 28.5882C11.4524 28.2935 11.5749 27.9877 11.8899 27.8888C12.2046 27.7898 12.5516 27.9526 12.6833 28.254Z" fill="#285193"/>
    <path d="M7.72132 31.1135C7.9353 31.4022 7.88751 31.8221 7.67353 32.0953C7.45955 32.3684 7.12881 32.414 6.90098 32.1265C6.67315 31.8393 6.71225 31.4044 6.94144 31.1329C7.17063 30.8614 7.50734 30.8246 7.72132 31.1135Z" fill="#285193"/>
    <path d="M13.5142 25.8824C13.6147 26.1442 13.5075 26.4276 13.2506 26.5274C12.9934 26.6275 12.7023 26.4865 12.5913 26.228C12.4799 25.9692 12.6257 25.7124 12.8826 25.614C13.1395 25.5153 13.4138 25.6206 13.5142 25.8824Z" fill="#285193"/>
    <path d="M14.9392 29.5243C15.0378 29.7709 14.9308 30.0391 14.6826 30.1218C14.4341 30.2044 14.1778 30.0775 14.0751 29.8331C13.9725 29.5887 14.0828 29.3504 14.3282 29.2539C14.5737 29.1577 14.8406 29.2777 14.9392 29.5243Z" fill="#285193"/>
    <path d="M5.12085 30.9877C5.29247 31.2078 5.27591 31.5379 5.06328 31.717C4.85066 31.8962 4.56065 31.858 4.38577 31.6424C4.21089 31.4267 4.24185 31.1287 4.44633 30.9385C4.65053 30.748 4.94923 30.7674 5.12085 30.9877Z" fill="#285193"/>
    <path d="M7.62684 34.0291C7.80009 34.2359 7.77483 34.517 7.57525 34.6895C7.37566 34.862 7.09705 34.8397 6.92136 34.6436C6.74567 34.4476 6.78233 34.1734 6.97648 33.9973C7.17064 33.8209 7.45359 33.8223 7.62684 34.0291Z" fill="#285193"/>
    <path d="M9.69897 29.5362C9.77256 29.6694 9.84914 29.8043 9.92354 29.9334C10.0227 29.8735 10.0653 29.7325 10.0227 29.6506C9.98003 29.5691 9.96781 29.5782 9.90562 29.5494C9.84344 29.521 9.76578 29.5384 9.69897 29.5362Z" fill="#285193"/>
    <path d="M9.04433 29.2175C9.0723 29.2585 9.09864 29.2775 9.15322 29.2883C9.20753 29.2994 9.29334 29.285 9.35308 29.2825C9.28682 29.1703 9.21323 29.0619 9.13965 28.9543C9.09756 28.9906 9.04786 29.0414 9.0313 29.0923C9.01419 29.1429 9.01663 29.1766 9.04433 29.2175Z" fill="#285193"/>
    <path d="M8.73904 28.1506C8.00015 28.5689 8.14462 29.6029 8.55058 30.2202C8.95655 30.8375 9.70873 31.3197 10.3789 30.8973C11.0491 30.4748 10.9565 29.6023 10.6062 28.954C10.2559 28.306 9.47792 27.7323 8.73904 28.1506ZM10.3222 29.842C10.2768 29.9725 10.1725 30.0872 10.0609 30.174C10.1106 30.2647 10.1625 30.3535 10.2133 30.4436C10.1636 30.4721 10.1139 30.5003 10.0642 30.5287C10.0145 30.4411 9.96453 30.3535 9.91484 30.2658C9.74838 30.3496 9.59523 30.4463 9.41193 30.4875C9.35844 30.3985 9.3063 30.3087 9.25471 30.2183C9.34758 30.2019 9.43882 30.174 9.52625 30.1403C9.61342 30.1066 9.69733 30.0706 9.78042 30.0292C9.69 29.8713 9.60174 29.7132 9.5105 29.5559C9.48145 29.5581 9.42035 29.5672 9.39645 29.5688C9.27046 29.5777 9.13441 29.6183 9.01954 29.5907C8.90468 29.563 8.84114 29.516 8.77787 29.4165C8.7146 29.317 8.69423 29.2056 8.74202 29.0809C8.78982 28.9562 8.90006 28.8398 9.00733 28.7541C8.96904 28.6902 8.92858 28.6283 8.88947 28.565C8.94161 28.5329 8.99293 28.4981 9.04779 28.4702C9.08689 28.5307 9.12463 28.5921 9.16292 28.6532C9.33183 28.5614 9.49421 28.5216 9.6843 28.5045C9.69489 28.5882 9.7052 28.6723 9.71579 28.756C9.57133 28.7701 9.42904 28.7931 9.29489 28.852C9.38505 28.9844 9.46108 29.1265 9.54526 29.2636C9.57079 29.2617 9.63107 29.2556 9.65144 29.2542C9.78775 29.2459 9.94742 29.2399 10.0626 29.2899C10.1777 29.3399 10.2271 29.3856 10.2869 29.4925C10.3461 29.5993 10.3672 29.7115 10.3222 29.842Z" fill="#285193"/>
    <path d="M89.4008 26.072C87.3726 28.786 85.4384 30.7484 82.7598 32.7938C81.883 31.6733 81.0667 30.5044 80.1733 29.3971C82.5706 27.564 84.2873 25.8854 86.0904 23.4312C87.176 24.3345 88.3114 25.1728 89.4008 26.072Z" fill="#285193"/>
    <path d="M88.7112 26.1611C87.0322 28.6387 85.2639 30.3679 82.8569 32.0963C82.1864 31.2187 81.5383 30.3226 80.8447 29.4632C83.0282 27.8648 84.594 26.3731 86.1565 24.1229C86.9956 24.8188 87.8699 25.4687 88.7112 26.1611Z" fill="#D4EFFF"/>
    <path d="M86.8365 26.0021C87.0587 26.1837 87.0836 26.5221 86.9242 26.7571C86.7646 26.9921 86.4765 27.0601 86.2606 26.8671C86.0447 26.6739 86.0268 26.3518 86.1824 26.1168C86.338 25.8821 86.6144 25.8204 86.8365 26.0021Z" fill="#285193"/>
    <path d="M83.4891 29.6489C83.6722 29.8588 83.6295 30.1505 83.3925 30.3017C83.1554 30.4529 82.8344 30.4001 82.6604 30.18C82.4863 29.9602 82.5325 29.6877 82.7638 29.54C82.9949 29.3924 83.3061 29.4388 83.4891 29.6489Z" fill="#285193"/>
    <path d="M86.3953 23.7947C86.5715 23.941 86.5894 24.1895 86.4615 24.3778C86.3333 24.5661 86.099 24.6059 85.9241 24.458C85.7492 24.3101 85.718 24.0549 85.8497 23.8674C85.9817 23.6797 86.2193 23.6488 86.3953 23.7947Z" fill="#285193"/>
    <path d="M88.9644 25.8245C89.1477 25.9766 89.1884 26.2428 89.0437 26.4358C88.899 26.629 88.6562 26.6769 88.468 26.5218C88.2798 26.3667 88.2473 26.0941 88.383 25.8912C88.5188 25.6885 88.7808 25.6725 88.9644 25.8245Z" fill="#285193"/>
    <path d="M81.1642 29.2304C81.3086 29.4054 81.2684 29.6341 81.0881 29.7682C80.9078 29.9022 80.664 29.8857 80.5252 29.7043C80.3862 29.5229 80.4117 29.2885 80.5942 29.1566C80.7764 29.0245 81.0197 29.0554 81.1642 29.2304Z" fill="#285193"/>
    <path d="M83.2018 31.8491C83.3496 32.0395 83.314 32.2933 83.119 32.4338C82.9241 32.5742 82.6718 32.5408 82.5254 32.3495C82.3793 32.1584 82.4084 31.9024 82.6001 31.7578C82.7921 31.6135 83.0541 31.6586 83.2018 31.8491Z" fill="#285193"/>
    <path d="M85.0247 28.3371C85.1067 28.4176 85.1911 28.4994 85.272 28.5771C85.3383 28.508 85.354 28.3744 85.3008 28.3191C85.2476 28.2638 85.2438 28.2796 85.1884 28.2768C85.133 28.2743 85.076 28.3172 85.0247 28.3371Z" fill="#285193"/>
    <path d="M84.4256 28.2157C84.4574 28.2483 84.4842 28.2644 84.5339 28.2691C84.5836 28.2738 84.6502 28.2525 84.6998 28.2356C84.6138 28.146 84.5277 28.0559 84.4411 27.9666C84.4128 28.0061 84.3849 28.0545 84.383 28.1026C84.3813 28.1507 84.3938 28.1831 84.4256 28.2157Z" fill="#285193"/>
    <path d="M83.9208 27.3044C83.4323 27.7789 83.7019 28.5195 84.1215 28.9723C84.5413 29.4252 85.3092 29.7332 85.814 29.2198C86.3188 28.7064 86.0256 27.9337 85.5688 27.4988C85.1121 27.0639 84.4093 26.83 83.9208 27.3044ZM85.577 28.3755C85.5702 28.4941 85.5004 28.6273 85.4271 28.7268C85.4838 28.7844 85.5406 28.8408 85.597 28.8983C85.5598 28.9361 85.5229 28.9743 85.486 29.0124C85.4311 28.9571 85.3763 28.9018 85.3217 28.8468C85.1973 28.9665 85.0711 29.0545 84.9098 29.115C84.8557 29.0575 84.802 28.9997 84.7482 28.9422C84.8278 28.9179 84.9046 28.8872 84.9787 28.849C85.0529 28.8109 85.1137 28.7578 85.1726 28.6995C85.0754 28.6052 84.9793 28.5109 84.881 28.4175C84.8584 28.4302 84.809 28.4504 84.7889 28.4576C84.6833 28.4963 84.572 28.5308 84.4677 28.5137C84.3634 28.4968 84.2988 28.4628 84.2276 28.3868C84.1565 28.3108 84.1272 28.2276 84.1356 28.1142C84.144 28.0009 84.2086 27.8897 84.2803 27.7996C84.2342 27.7498 84.1872 27.7012 84.141 27.6517C84.1771 27.6179 84.2132 27.5839 84.2494 27.5499C84.2955 27.5978 84.3414 27.6456 84.3873 27.6934C84.5024 27.5892 84.6116 27.4955 84.7487 27.4219C84.7805 27.4955 84.8125 27.569 84.8443 27.6426C84.7346 27.7025 84.6377 27.7728 84.547 27.8599C84.6469 27.9621 84.7438 28.0669 84.8478 28.1653C84.8666 28.1551 84.9119 28.1286 84.9269 28.1206C85.0271 28.0683 85.1476 28.0039 85.2508 28.0056C85.354 28.0075 85.401 28.0279 85.4735 28.0987C85.546 28.1698 85.5835 28.2569 85.577 28.3755Z" fill="#285193"/>
    <path d="M33.9972 16.8412C30.0799 19.7321 28.7732 21.1059 26.3548 25.4379C24.7225 24.3071 22.9838 23.3712 21.3254 22.2861C23.6477 18.0159 25.9439 13.9841 29.8876 11.1321C31.4254 12.931 32.6859 14.8727 33.9972 16.8412Z" fill="#285193"/>
    <path d="M33.0155 16.6565C29.9753 18.7019 27.8523 21.1331 26.1236 24.3803C24.8783 23.5375 23.5678 22.8153 22.3008 22.0104C24.178 18.3881 26.3968 14.4055 29.7474 12.1088C30.9564 13.5428 32.0358 15.0511 33.0155 16.6565Z" fill="#D4EFFF"/>
    <path d="M30.2709 15.1066C30.5364 15.4378 30.5937 15.9415 30.2603 16.2315C29.9268 16.5216 29.5124 16.4085 29.2287 16.0914C28.9452 15.7743 28.8281 15.2338 29.1722 14.9087C29.5165 14.5833 30.0053 14.7751 30.2709 15.1066Z" fill="#285193"/>
    <path d="M25.7317 20.6458C26.0489 20.8523 26.0261 21.2379 25.8328 21.5421C25.6394 21.8459 25.2641 22.0378 24.9255 21.8254C24.5869 21.6131 24.5606 21.1887 24.7759 20.8738C24.991 20.5589 25.4146 20.4392 25.7317 20.6458Z" fill="#285193"/>
    <path d="M30.2507 11.7567C30.4786 12.0306 30.4528 12.3914 30.1603 12.6001C29.8679 12.8089 29.4717 12.727 29.239 12.4572C29.0062 12.1874 29.0578 11.8454 29.3478 11.6403C29.6379 11.4348 30.0229 11.4827 30.2507 11.7567Z" fill="#285193"/>
    <path d="M33.4912 16.2932C33.6721 16.5787 33.6726 16.9802 33.3731 17.1842C33.0736 17.388 32.7385 17.2624 32.552 16.9705C32.3654 16.6786 32.3621 16.276 32.6538 16.0673C32.9457 15.8586 33.3104 16.0079 33.4912 16.2932Z" fill="#285193"/>
    <path d="M22.5964 21.4373C22.8927 21.6297 22.9551 22.009 22.7949 22.3112C22.6347 22.6131 22.2991 22.7582 21.9987 22.5683C21.6984 22.3783 21.6077 21.9791 21.7774 21.6637C21.9469 21.3477 22.3002 21.2446 22.5964 21.4373Z" fill="#285193"/>
    <path d="M26.4137 23.837C26.7013 24.0372 26.8028 24.4214 26.6339 24.7338C26.465 25.0465 26.1125 25.1148 25.8274 24.9191C25.542 24.7233 25.4625 24.3485 25.6295 24.0455C25.7965 23.7427 26.1261 23.6368 26.4137 23.837Z" fill="#285193"/>
    <path d="M27.9568 18.7193C28.0657 18.8088 28.1759 18.9009 28.2878 18.9789C28.3815 18.8777 28.3739 18.6795 28.296 18.6098C28.218 18.5401 28.2202 18.5661 28.1493 18.5799C28.0784 18.5935 28.0163 18.6781 27.9568 18.7193Z" fill="#285193"/>
    <path d="M27.103 18.685C27.1638 18.7381 27.214 18.7682 27.2963 18.7707C27.3786 18.7729 27.4587 18.7254 27.5233 18.6726C27.3528 18.52 27.1798 18.3693 27.0082 18.2181C26.9805 18.3024 26.9653 18.3967 26.9843 18.4818C27.0033 18.5667 27.0424 18.6319 27.103 18.685Z" fill="#285193"/>
    <path d="M25.9905 17.076C25.4407 18.0326 25.9571 19.1984 26.6819 19.7132C27.4064 20.228 28.3229 20.228 28.9757 19.5869C29.6285 18.946 29.0987 17.8493 28.4491 17.2198C27.7996 16.5906 26.5404 16.1195 25.9905 17.076ZM28.6441 18.6242C28.6506 18.7931 28.5719 18.9756 28.4722 19.1227C28.5407 19.181 28.6099 19.2333 28.6824 19.2847C28.6352 19.3353 28.5876 19.3859 28.5404 19.4365C28.4741 19.3903 28.4076 19.3439 28.3413 19.2974C28.1819 19.4589 28.0063 19.604 27.8012 19.7013C27.735 19.6579 27.6676 19.6159 27.6014 19.5728C27.71 19.5227 27.8113 19.4636 27.9085 19.3942C28.0054 19.3248 28.085 19.2493 28.1613 19.1581C28.0391 19.0715 27.9177 18.9853 27.7982 18.8946C27.7757 18.927 27.7336 18.9903 27.7048 19.0096C27.553 19.1111 27.4167 19.16 27.2429 19.1553C27.0691 19.1506 26.9608 19.0903 26.8296 18.9753C26.6982 18.8603 26.6379 18.7434 26.6143 18.5512C26.5907 18.3588 26.6284 18.1374 26.7042 17.9494C26.6151 17.8675 26.5277 17.7874 26.4397 17.7055C26.4796 17.6337 26.5193 17.5618 26.5592 17.4899C26.6458 17.5695 26.7321 17.6494 26.819 17.7293C26.9475 17.53 27.0895 17.3522 27.2676 17.1968C27.3412 17.3257 27.4159 17.454 27.4879 17.5839C27.3529 17.7127 27.2307 17.8526 27.1199 18.0036C27.3073 18.1692 27.4879 18.3505 27.6869 18.5018C27.7067 18.4805 27.7638 18.4271 27.7798 18.4111C27.8857 18.3038 28.0277 18.1512 28.167 18.139C28.306 18.1269 28.3658 18.1484 28.4703 18.2416C28.5743 18.3345 28.6373 18.4553 28.6441 18.6242Z" fill="#285193"/>
    <path d="M37.1306 55.185C38.0447 52.5915 36.7202 49.7347 34.1723 48.8043C31.6243 47.8738 28.8178 49.222 27.9037 51.8155C26.9896 54.409 28.3141 57.2657 30.862 58.1962C33.41 59.1266 36.2165 57.7785 37.1306 55.185Z" fill="#FFAF2A"/>
    <path d="M33.0718 57.9819C35.5047 57.6677 37.2266 55.4054 36.9179 52.929C36.6091 50.4527 34.3866 48.7 31.9537 49.0142C29.5208 49.3285 27.7989 51.5908 28.1077 54.0672C28.4164 56.5435 30.639 58.2962 33.0718 57.9819Z" fill="#FB6B18"/>
    <path d="M35.4613 54.8671C36.2027 53.2095 35.4835 51.2541 33.855 50.4995C32.2266 49.745 30.3055 50.477 29.5642 52.1346C28.8229 53.7921 29.542 55.7476 31.1705 56.5021C32.799 57.2567 34.72 56.5247 35.4613 54.8671Z" fill="#FFAF2A"/>
    <path d="M32.8933 55.8563L32.7616 55.2471C32.4167 55.3181 32.0377 55.2891 31.7973 55.1849L31.8522 54.7487C32.0969 54.8458 32.43 54.8911 32.7619 54.8167C33.1828 54.7225 33.4133 54.4113 33.3389 54.0677C33.2672 53.736 32.9916 53.5826 32.5137 53.5C31.8574 53.3944 31.4237 53.2006 31.3102 52.6757C31.2018 52.1749 31.469 51.7166 31.9948 51.5038L31.8631 50.8949L32.2307 50.8125L32.3573 51.3974C32.7154 51.3296 32.9791 51.3717 33.173 51.4358L33.1111 51.867C32.971 51.8225 32.6994 51.7443 32.3203 51.8294C31.8639 51.9317 31.7523 52.2479 31.8044 52.4889C31.8723 52.8026 32.1254 52.9104 32.688 53.0118C33.3533 53.1285 33.7291 53.3731 33.8451 53.9099C33.9483 54.3867 33.7191 54.9057 33.1309 55.1454L33.2667 55.7725L32.8933 55.8563Z" fill="white"/>
    <path d="M90.5598 23.6354C89.4707 25.5432 87.0685 26.1911 85.1943 25.0824C83.3201 23.9738 82.6836 21.5287 83.7728 19.621C84.8619 17.7132 87.2641 17.0656 89.1383 18.174C91.0125 19.2827 91.6487 21.7277 90.5598 23.6354Z" fill="#FFAF2A"/>
    <path d="M90.6931 22.0962C90.9451 20.1138 89.5705 18.2988 87.6229 18.0424C85.6754 17.7859 83.8923 19.185 83.6403 21.1674C83.3883 23.1498 84.7629 24.9648 86.7105 25.2213C88.6581 25.4777 90.4412 24.0786 90.6931 22.0962Z" fill="#FB6B18"/>
    <path d="M89.4092 22.955C88.6893 24.2159 87.1013 24.6441 85.8625 23.9113C84.6237 23.1786 84.2031 21.5622 84.9229 20.3012C85.6428 19.0403 87.2308 18.6121 88.4696 19.3449C89.7084 20.0779 90.1291 21.694 89.4092 22.955Z" fill="#FFAF2A"/>
    <path d="M86.1356 23.2278L86.3821 22.7959C86.141 22.6475 85.933 22.4213 85.8469 22.2273L86.1114 22.0003C86.204 22.1924 86.3762 22.4031 86.6116 22.5422C86.91 22.7185 87.2115 22.6624 87.3508 22.4186C87.4852 22.1833 87.4042 21.9408 87.1664 21.6287C86.8356 21.2043 86.6833 20.8507 86.8956 20.4786C87.0982 20.1234 87.4998 20.0006 87.9232 20.1651L88.1697 19.7333L88.4304 19.8875L88.1936 20.3025C88.441 20.4601 88.5741 20.6304 88.6542 20.7753L88.3881 20.9953C88.3291 20.8917 88.2107 20.6959 87.9419 20.5367C87.6182 20.3451 87.3842 20.4701 87.2864 20.6409C87.1596 20.8635 87.2514 21.0664 87.5292 21.4368C87.8594 21.8726 87.9506 22.2242 87.7334 22.6049C87.5403 22.943 87.1289 23.1227 86.6545 22.9394L86.4006 23.3843L86.1356 23.2278Z" fill="white"/>
    <path d="M8.02386 22.1914C7.05634 23.8863 4.92197 24.4617 3.25684 23.4769C1.5917 22.4921 1.02634 20.3196 1.99387 18.6247C2.96139 16.9298 5.09576 16.3543 6.76089 17.3391C8.42602 18.3242 8.99139 20.4967 8.02386 22.1914Z" fill="#FFAF2A"/>
    <path d="M7.73991 22.0238C6.86335 23.5594 4.92966 24.0807 3.42093 23.1885C1.91221 22.2963 1.40035 20.328 2.2769 18.7923C3.15346 17.2566 5.08715 16.7353 6.59587 17.6276C8.1046 18.5198 8.61673 20.4881 7.73991 22.0238Z" fill="#FB6B18"/>
    <path d="M7.00191 21.5868C6.36241 22.7071 4.95145 23.0877 3.85087 22.4365C2.75028 21.7856 2.37636 20.3494 3.01613 19.2291C3.65562 18.1088 5.06659 17.7282 6.16717 18.3794C7.26776 19.0306 7.64168 20.4666 7.00191 21.5868Z" fill="#FFAF2A"/>
    <path d="M4.09258 21.829L4.31145 21.4453C4.09719 21.3134 3.91227 21.1124 3.83569 20.9402L4.07085 20.7387C4.15313 20.9095 4.30601 21.0964 4.51538 21.2203C4.78041 21.377 5.04843 21.3272 5.17198 21.1105C5.29119 20.9015 5.2195 20.6861 5.00824 20.4086C4.71442 20.0315 4.57892 19.7174 4.76765 19.3867C4.94768 19.0713 5.3045 18.9621 5.68032 19.1083L5.89919 18.7246L6.13082 18.8617L5.92037 19.2303C6.14005 19.3704 6.25817 19.5217 6.32959 19.6502L6.09307 19.8457C6.04066 19.7536 5.93557 19.5797 5.69661 19.4384C5.40904 19.2684 5.20104 19.379 5.11441 19.5311C5.00172 19.7287 5.08318 19.9093 5.33002 20.2383C5.62329 20.6253 5.70449 20.9377 5.51142 21.2758C5.34007 21.5761 4.97429 21.7359 4.55285 21.573L4.3272 21.9681L4.09258 21.829Z" fill="white"/>
    <path d="M75.8191 23.6597C77.3047 23.6597 78.5091 22.4338 78.5091 20.9216C78.5091 19.4095 77.3047 18.1836 75.8191 18.1836C74.3335 18.1836 73.1292 19.4095 73.1292 20.9216C73.1292 22.4338 74.3335 23.6597 75.8191 23.6597Z" fill="#0890FE"/>
    <path d="M75.8192 23.4025C77.1652 23.4025 78.2564 22.2918 78.2564 20.9218C78.2564 19.5517 77.1652 18.441 75.8192 18.441C74.4732 18.441 73.3821 19.5517 73.3821 20.9218C73.3821 22.2918 74.4732 23.4025 75.8192 23.4025Z" fill="#3629B7"/>
    <path d="M77.0766 22.2022C76.3822 22.9091 75.2564 22.9091 74.562 22.2022C73.8677 21.4953 73.8677 20.349 74.562 19.6421C75.2564 18.9352 76.3822 18.9352 77.0766 19.6421C77.7709 20.3488 77.7709 21.4953 77.0766 22.2022Z" fill="#0890FE"/>
    <path d="M74.8608 21.7971L75.0987 21.5549C74.9645 21.4133 74.8657 21.2264 74.842 21.0824L75.0563 20.9793C75.0845 21.123 75.1625 21.2933 75.2942 21.4277C75.4614 21.598 75.6708 21.6146 75.8052 21.478C75.9347 21.3461 75.9231 21.1711 75.8193 20.9218C75.6735 20.5814 75.6333 20.3202 75.8384 20.1115C76.0339 19.9124 76.3209 19.9027 76.5732 20.0874L76.811 19.8452L76.9571 19.994L76.7288 20.2265C76.8653 20.3752 76.9243 20.5118 76.9522 20.6221L76.738 20.7205C76.7168 20.6414 76.672 20.4905 76.5213 20.337C76.3399 20.1524 76.1634 20.193 76.0692 20.2889C75.9467 20.4136 75.9725 20.5646 76.0928 20.8596C76.2364 21.2074 76.2364 21.4564 76.0268 21.6699C75.8408 21.8593 75.5369 21.9049 75.2545 21.6986L75.0096 21.948L74.8608 21.7971Z" fill="white"/>
    <path d="M50.1088 15.1662C49.3454 15.9431 48.108 15.9431 47.345 15.1662C46.5816 14.3892 46.5816 13.1296 47.345 12.3529C48.1083 11.5763 49.3457 11.576 50.1088 12.3529C50.8721 13.1296 50.8721 14.3892 50.1088 15.1662Z" fill="#0890FE"/>
    <path d="M48.7268 15.5628C49.7048 15.5628 50.4976 14.7556 50.4976 13.76C50.4976 12.7643 49.7048 11.9572 48.7268 11.9572C47.7489 11.9572 46.9561 12.7643 46.9561 13.76C46.9561 14.7556 47.7489 15.5628 48.7268 15.5628Z" fill="#3629B7"/>
    <path d="M49.6404 14.6899C49.1359 15.2036 48.318 15.2036 47.8135 14.6899C47.3089 14.1762 47.3089 13.3435 47.8135 12.8298C48.318 12.3162 49.1359 12.3162 49.6404 12.8298C50.145 13.3435 50.145 14.1762 49.6404 14.6899Z" fill="#0890FE"/>
    <path d="M48.0304 14.3956L48.2032 14.2198C48.1057 14.117 48.0337 13.9812 48.0166 13.8767L48.1725 13.8018C48.1931 13.9063 48.2496 14.0302 48.3454 14.1277C48.4668 14.2513 48.6192 14.2635 48.7167 14.1642C48.8109 14.0683 48.8022 13.9414 48.727 13.7601C48.6211 13.5129 48.5917 13.323 48.7408 13.1715C48.8828 13.0269 49.0914 13.0197 49.2747 13.154L49.4474 12.9782L49.5536 13.0863L49.3876 13.2552C49.487 13.3633 49.5297 13.4626 49.55 13.5428L49.3944 13.6141C49.379 13.5566 49.3466 13.4468 49.2372 13.3354C49.1055 13.2013 48.9771 13.2309 48.9086 13.3006C48.8196 13.3912 48.8383 13.5007 48.9257 13.7153C49.03 13.968 49.03 14.149 48.8777 14.3041C48.7424 14.4418 48.5219 14.475 48.3164 14.3251L48.1385 14.5062L48.0304 14.3956Z" fill="white"/>
    <path d="M90.3072 40.3877C89.2514 41.4624 87.5395 41.4624 86.4835 40.3877C85.4277 39.3131 85.4277 37.5706 86.4835 36.4957C87.5393 35.421 89.2511 35.421 90.3072 36.4957C91.3629 37.5703 91.3629 39.3131 90.3072 40.3877Z" fill="#0890FE"/>
    <path d="M90.1272 40.2048C89.1705 41.1785 87.6197 41.1785 86.6631 40.2048C85.7064 39.231 85.7064 37.6525 86.6631 36.6787C87.6197 35.7049 89.1705 35.7049 90.1272 36.6787C91.0839 37.6525 91.0839 39.231 90.1272 40.2048Z" fill="#3629B7"/>
    <path d="M88.3952 40.2616C89.3822 40.2616 90.1823 39.447 90.1823 38.4422C90.1823 37.4374 89.3822 36.6228 88.3952 36.6228C87.4082 36.6228 86.6082 37.4374 86.6082 38.4422C86.6082 39.447 87.4082 40.2616 88.3952 40.2616Z" fill="#0890FE"/>
    <path d="M87.4318 39.3214L87.6708 39.0782C87.5361 38.936 87.4365 38.7481 87.4128 38.6035L87.6282 38.4998C87.6564 38.6444 87.7349 38.8155 87.8674 38.9504C88.0355 39.1216 88.2459 39.1384 88.3809 39.001C88.511 38.8686 88.4993 38.6925 88.395 38.442C88.2484 38.1 88.2082 37.8374 88.414 37.6275C88.6106 37.4274 88.899 37.4177 89.1524 37.6032L89.3913 37.3599L89.5382 37.5095L89.3088 37.7431C89.4462 37.8924 89.5051 38.0298 89.5336 38.1407L89.3183 38.2394C89.2971 38.1597 89.252 38.0082 89.1005 37.854C88.9183 37.6685 88.7407 37.7094 88.6459 37.8056C88.5229 37.9308 88.5487 38.0826 88.6696 38.3793C88.814 38.7287 88.8138 38.9792 88.603 39.1937C88.4159 39.3842 88.1107 39.4301 87.8267 39.2227L87.5807 39.4732L87.4318 39.3214Z" fill="white"/>
    <path d="M2.70353 43.6868C4.19665 43.6868 5.40706 42.4548 5.40706 40.935C5.40706 39.4152 4.19665 38.1831 2.70353 38.1831C1.21041 38.1831 0 39.4152 0 40.935C0 42.4548 1.21041 43.6868 2.70353 43.6868Z" fill="#0890FE"/>
    <path d="M4.43579 42.6981C3.47912 43.6719 1.92831 43.6719 0.971648 42.6981C0.0149845 41.7243 0.0149845 40.1458 0.971648 39.172C1.92831 38.1983 3.47912 38.1983 4.43579 39.172C5.39245 40.1455 5.39245 41.7243 4.43579 42.6981Z" fill="#3629B7"/>
    <path d="M2.70307 42.7548C3.69004 42.7548 4.49013 41.9402 4.49013 40.9354C4.49013 39.9305 3.69004 39.116 2.70307 39.116C1.71611 39.116 0.916016 39.9305 0.916016 40.9354C0.916016 41.9402 1.71611 42.7548 2.70307 42.7548Z" fill="#0890FE"/>
    <path d="M1.7402 41.8148L1.97916 41.5716C1.8442 41.4295 1.74482 41.2415 1.72119 41.0969L1.93653 40.9932C1.96477 41.1378 2.04298 41.3089 2.17576 41.4438C2.34385 41.615 2.5543 41.6318 2.68926 41.4944C2.81933 41.362 2.80765 41.1859 2.70338 40.9354C2.55674 40.5934 2.51656 40.3305 2.72239 40.121C2.91899 39.9208 3.20737 39.9111 3.46073 40.0966L3.69969 39.8533L3.8466 40.0029L3.61714 40.2365C3.75454 40.3861 3.81347 40.5232 3.84198 40.6341L3.62664 40.7328C3.60546 40.6531 3.56039 40.5014 3.40886 40.3474C3.22638 40.1619 3.04906 40.2028 2.95429 40.299C2.83128 40.4242 2.85708 40.576 2.97792 40.8727C3.12238 41.2221 3.12211 41.4726 2.91139 41.6871C2.72429 41.8776 2.41907 41.9235 2.13503 41.7161L1.88901 41.9666L1.7402 41.8148Z" fill="white"/>
    <path d="M46.0184 8.87641C45.8291 10.5044 44.3791 11.6678 42.7796 11.4751C41.1802 11.2825 40.0373 9.80651 40.2265 8.1785C40.4158 6.55048 41.8659 5.38711 43.4653 5.57976C45.0644 5.77269 46.2077 7.24868 46.0184 8.87641Z" fill="#0890FE"/>
    <path d="M45.7459 8.84371C45.5743 10.3186 44.2606 11.3728 42.8116 11.1984C41.3626 11.0237 40.3269 9.68646 40.4983 8.21158C40.6696 6.73669 41.9836 5.6825 43.4326 5.85718C44.8819 6.03132 45.9176 7.36855 45.7459 8.84371Z" fill="#3629B7"/>
    <path d="M45.0362 8.75833C44.911 9.83436 43.9525 10.6036 42.8953 10.4762C41.8382 10.3487 41.0825 9.37305 41.2076 8.29701C41.3328 7.22098 42.2914 6.45175 43.3485 6.57917C44.4059 6.70631 45.1614 7.68202 45.0362 8.75833Z" fill="#0890FE"/>
    <path d="M42.8829 9.92794L42.9258 9.55941C42.7183 9.53066 42.5109 9.43915 42.396 9.33271L42.5106 9.09855C42.6295 9.20167 42.8079 9.29346 43.0089 9.31778C43.2636 9.34847 43.4529 9.21964 43.477 9.01146C43.5004 8.81075 43.3749 8.66975 43.1224 8.5282C42.7737 8.33827 42.5673 8.14309 42.6043 7.82543C42.6396 7.52243 42.8777 7.31784 43.2139 7.30291L43.2568 6.93439L43.4792 6.9612L43.4379 7.31508C43.6522 7.34825 43.7923 7.42428 43.889 7.49893L43.7714 7.72895C43.7011 7.67614 43.5636 7.578 43.3342 7.55035C43.058 7.51717 42.9345 7.67255 42.9176 7.81852C42.8956 8.00817 43.017 8.11931 43.3138 8.28823C43.6652 8.48618 43.8295 8.69823 43.7918 9.02335C43.7581 9.3117 43.5297 9.55803 43.1531 9.57573L43.1091 9.95531L42.8829 9.92794Z" fill="white"/>
    <path d="M59.7321 33.5763L78.3342 33.5608C79.9154 33.5594 81.1982 34.8632 81.1996 36.4727L81.2306 75.0679C81.2319 76.6774 79.951 77.9831 78.3698 77.9845L59.7677 78C58.1864 78.0014 56.9037 76.6976 56.9023 75.0881L56.8713 36.4929C56.87 34.8834 58.1509 33.5777 59.7321 33.5763Z" fill="#5655B9"/>
    <path d="M59.7942 35.0167L78.1755 35C79.167 34.9991 79.9716 35.8957 79.9724 37.003L80 74.977C80.0008 76.084 79.1978 76.9824 78.206 76.9833L59.8247 77C58.8333 77.0009 58.0286 76.1043 58.0278 74.997L58 37.023C57.9995 35.9157 58.8028 35.0176 59.7942 35.0167Z" fill="white"/>
    <path d="M74.2694 40.4385L63.9427 40.447C63.7583 40.4473 63.6087 40.295 63.6084 40.1073L63.6082 39.9323C63.6079 39.7446 63.7575 39.5922 63.9419 39.5919L74.2686 39.5834C74.453 39.5831 74.6026 39.7352 74.6029 39.9231L74.6031 40.0982C74.6031 40.2861 74.4538 40.4385 74.2694 40.4385Z" fill="#D4EFFF"/>
    <path d="M69.7072 41.7444L63.8516 41.7494C63.718 41.7494 63.6096 41.6393 63.6096 41.5033V41.3764C63.6096 41.2404 63.7177 41.1301 63.8513 41.1298L69.707 41.1248C69.8406 41.1248 69.9489 41.2348 69.9492 41.3709V41.4978C69.9492 41.6338 69.8408 41.7441 69.7072 41.7444Z" fill="#D4EFFF"/>
    <path d="M62.547 40.5183C62.5478 41.498 61.7685 42.2926 60.8061 42.2934C59.844 42.2943 59.0633 41.5008 59.0625 40.521C59.0617 39.5412 59.841 38.7464 60.8034 38.7459C61.7658 38.745 62.5465 39.5387 62.547 40.5183Z" fill="#FFE088"/>
    <path d="M77.1701 39.9552C77.1701 40.1133 77.0443 40.2416 76.889 40.2419C76.7337 40.2419 76.6077 40.1139 76.6074 39.9557C76.6074 39.7976 76.7331 39.6693 76.8885 39.6693C77.0441 39.669 77.1701 39.797 77.1701 39.9552ZM77.812 39.6685C77.6567 39.6688 77.531 39.797 77.531 39.9552C77.5312 40.1133 77.6572 40.2413 77.8125 40.2413C77.9679 40.2413 78.0936 40.113 78.0936 39.9549C78.0936 39.7965 77.9673 39.6682 77.812 39.6685ZM78.7355 39.6677C78.5802 39.6679 78.4545 39.7962 78.4545 39.9544C78.4548 40.1125 78.5808 40.2405 78.7361 40.2405C78.8914 40.2402 79.0171 40.1122 79.0171 39.9538C79.0169 39.7957 78.8909 39.6674 78.7355 39.6677Z" fill="#D4EFFF"/>
    <path d="M61.522 40.9253C61.522 41.0738 61.4688 41.196 61.3623 41.2919C61.2559 41.3881 61.1022 41.4473 60.9012 41.47V41.8028H60.7008V41.4791C60.4515 41.4749 60.2473 41.4362 60.0874 41.3624V41.0387C60.1738 41.0815 60.2748 41.1178 60.3902 41.1468C60.5056 41.1758 60.609 41.191 60.7006 41.1921V40.6182L60.574 40.5706C60.4092 40.5062 60.2889 40.4294 60.2131 40.3398C60.1374 40.2502 60.0994 40.1396 60.0994 40.0078C60.0994 39.8665 60.1534 39.7506 60.2615 39.6594C60.3695 39.5685 60.5159 39.5132 60.7008 39.4938V39.2361H60.9012V39.4894C61.1052 39.4966 61.2985 39.5383 61.4815 39.6152L61.3716 39.8961C61.2138 39.8328 61.0571 39.7949 60.9012 39.7824V40.3409L61.0158 40.3854C61.2067 40.4601 61.3387 40.5388 61.4123 40.6218C61.4853 40.7044 61.522 40.8056 61.522 40.9253ZM60.4535 40.0047C60.4535 40.063 60.4711 40.1117 60.5069 40.1504C60.5425 40.1894 60.6071 40.2278 60.7006 40.2654V39.7882C60.6202 39.8004 60.5588 39.8256 60.5167 39.8634C60.4746 39.9016 60.4535 39.9486 60.4535 40.0047ZM61.1663 40.9483C61.1663 40.8891 61.1459 40.8402 61.1052 40.8018C61.0644 40.7633 60.9963 40.7263 60.901 40.6906V41.18C61.078 41.1526 61.1663 41.0752 61.1663 40.9483Z" fill="white"/>
    <path d="M78.4542 58.1623C78.4585 63.4106 74.2818 67.6686 69.1257 67.673C63.9695 67.6774 59.7863 63.4261 59.782 58.1777C59.7779 52.9294 63.9543 48.6711 69.1105 48.667C74.2666 48.6626 78.4501 52.9136 78.4542 58.1623Z" fill="#FFAF2A"/>
    <path d="M76.3973 58.1639C76.4006 62.2557 73.1444 65.5753 69.1244 65.5789C65.1044 65.5823 61.8431 62.2679 61.8396 58.176C61.8363 54.0842 65.0925 50.7643 69.1125 50.761C73.1325 50.7577 76.394 54.072 76.3973 58.1639Z" fill="#FB6B18"/>
    <path d="M72.2192 59.9239C72.2192 60.5648 71.9887 61.0933 71.5286 61.5085C71.0681 61.9242 70.4036 62.1807 69.5352 62.2777V63.7166H68.669V62.3175C67.5917 62.3001 66.7081 62.1318 66.0176 61.8136V60.4145C66.391 60.6002 66.8273 60.7558 67.327 60.8819C67.8261 61.0079 68.2736 61.0734 68.669 61.0776V58.5977L68.1218 58.392C67.4093 58.1134 66.8895 57.7812 66.5618 57.3942C66.2335 57.0075 66.07 56.5288 66.07 55.9586C66.07 55.3486 66.3032 54.8472 66.7703 54.4533C67.2368 54.06 67.8701 53.8214 68.6692 53.7371V52.6232H69.5355V53.7172C70.4169 53.7485 71.2528 53.9295 72.0435 54.2609L71.568 55.4743C70.8862 55.2004 70.2087 55.0368 69.5355 54.9837V57.3973L70.0305 57.5896C70.8555 57.9125 71.4265 58.2527 71.7437 58.6107C72.0603 58.9689 72.2192 59.4067 72.2192 59.9239ZM67.6007 55.9453C67.6007 56.1974 67.6776 56.4075 67.8321 56.5752C67.986 56.7436 68.2652 56.9091 68.6692 57.0725V55.0102C68.3217 55.0633 68.0569 55.1719 67.8744 55.3353C67.6917 55.4989 67.6007 55.7026 67.6007 55.9453ZM70.6817 60.0234C70.6817 59.7671 70.5937 59.556 70.418 59.3901C70.2421 59.2243 69.9477 59.0642 69.5352 58.9095V61.0248C70.2996 60.9051 70.6817 60.5715 70.6817 60.0234Z" fill="white"/>
</svg>
