<svg width="93" height="78" viewBox="0 0 93 78" fill="none" xmlns="http://www.w3.org/2000/svg">
    <path d="M12.7691 21.6631C16.5761 20.8663 18.9581 17.3883 18.0895 13.8949C17.2209 10.4015 13.4306 8.21546 9.62363 9.01229C5.81664 9.80912 3.4346 13.2871 4.30319 16.7805C5.17179 20.2739 8.96209 22.4599 12.7691 21.6631Z" fill="#FB6B18"/>
    <path opacity="0.1" d="M10.4766 8.2961C6.23865 8.66125 3.12561 12.1099 3.52353 15.999C3.92145 19.888 7.67958 22.7447 11.9177 22.3795C16.1557 22.0144 19.2687 18.5657 18.8708 14.6766C18.4729 10.7876 14.7146 7.93095 10.4766 8.2961ZM11.7966 21.1967C8.27039 21.5006 5.14347 19.1237 4.81248 15.8879C4.48136 12.6521 7.07151 9.78264 10.5977 9.4789C14.1239 9.17505 17.2509 11.5519 17.5819 14.7877C17.9129 18.0235 15.3227 20.8929 11.7966 21.1967Z" fill="#272525"/>
    <path d="M10.4027 7.57422C5.72997 7.97679 2.29757 11.7792 2.73627 16.0672C3.17496 20.3551 7.31863 23.5049 11.9914 23.1023C16.6641 22.6997 20.0965 18.8973 19.6578 14.6093C19.2191 10.3213 15.0755 7.17165 10.4027 7.57422ZM11.858 21.7982C7.97011 22.1331 4.52245 19.5124 4.15744 15.9448C3.79242 12.3771 6.64827 9.21332 10.5361 8.87836C14.424 8.5434 17.8716 11.164 18.2367 14.7318C18.6017 18.2995 15.7458 21.4632 11.858 21.7982Z" fill="#FFAF2A"/>
    <path d="M9.09562 17.4733C9.00405 17.4252 8.97728 17.3111 8.94701 17.2083C8.87008 16.9466 9.03057 16.7303 9.31441 16.6756C9.74022 16.5937 10.2098 16.8579 10.6169 16.997C10.9512 17.1113 11.3122 17.1528 11.6999 17.1215C12.1148 17.0881 12.4388 16.9687 12.6716 16.7631C12.9044 16.5577 13.0064 16.3039 12.9776 16.0022C12.9483 15.6961 12.8266 15.4865 12.6127 15.3734C12.3987 15.2604 12.047 15.2235 11.5577 15.2629L11.2347 15.289C10.4361 15.3532 9.81265 15.2494 9.36444 14.9769C8.91624 14.7045 8.6643 14.2774 8.60864 13.6955C8.55422 13.1264 8.71647 12.6681 9.0955 12.3204C9.47452 11.9728 10.0339 11.7691 10.774 11.7095C11.0755 11.6852 11.3872 11.7069 11.7093 11.7744C12.3792 11.9149 13.5036 12.3112 13.332 12.9237C13.1362 13.6222 11.9031 12.7326 11.4869 12.6067C11.2432 12.533 10.9627 12.5088 10.6458 12.5344C10.2777 12.564 9.98965 12.6774 9.78175 12.8744C9.57372 13.0714 9.48291 13.308 9.5093 13.5838C9.53532 13.8553 9.66929 14.0401 9.91147 14.1378C10.1535 14.2356 10.6571 14.2624 11.4222 14.2181C12.2386 14.1742 12.8486 14.2824 13.2523 14.5432C13.656 14.8039 13.8869 15.2382 13.9451 15.8461C14.0007 16.4281 13.8377 16.9104 13.4562 17.2929C13.0745 17.6755 12.5315 17.8952 11.8268 17.9519C11.6036 17.9698 11.3529 17.9673 11.0746 17.9441C10.5567 17.901 9.72708 17.8046 9.09562 17.4733Z" fill="white"/>
    <path d="M11.7426 19.5055L11.7337 19.5061C11.4905 19.5258 11.2732 19.3324 11.2486 19.0742L10.4864 11.1055C10.4618 10.8474 10.6389 10.6223 10.8821 10.6026L10.891 10.602C11.1341 10.5823 11.3513 10.7758 11.3761 11.0339L12.1383 19.0026C12.1629 19.2607 11.9858 19.4859 11.7426 19.5055Z" fill="white"/>
    <path d="M82.8158 19.7954L71.3719 17.6681C71.0237 17.6034 70.803 17.2728 70.8786 16.9297L74.1509 2.10643C74.2266 1.76332 74.5702 1.53764 74.9184 1.60239L86.3623 3.72969C86.7104 3.79443 86.9312 4.12502 86.8555 4.46813L83.5832 19.2914C83.5075 19.6345 83.1639 19.8602 82.8158 19.7954Z" fill="#3629B7"/>
    <path d="M77.459 11.6078L74.4636 11.0448C74.2772 11.0098 74.1593 10.8324 74.2002 10.6487L74.8413 7.77763C74.8824 7.59399 75.0668 7.47348 75.2532 7.50849L78.2485 8.07157C78.4349 8.10657 78.5527 8.2839 78.5118 8.46765L77.8707 11.3387C77.8298 11.5223 77.6454 11.6428 77.459 11.6078Z" fill="#0890FE"/>
    <path d="M82.9886 12.6325L79.9919 12.0755C79.8054 12.0409 79.6871 11.8638 79.7277 11.68L80.3619 8.80761C80.4025 8.62386 80.5866 8.50301 80.7731 8.53767L83.7698 9.09466C83.9564 9.12932 84.0746 9.30642 84.034 9.49017L83.3998 12.3625C83.3592 12.5462 83.1752 12.6672 82.9886 12.6325Z" fill="#0890FE"/>
    <path d="M76.4269 16.302L73.4302 15.745C73.2436 15.7103 73.1253 15.5332 73.166 15.3495L73.8002 12.477C73.8407 12.2933 74.0248 12.1724 74.2113 12.2071L77.2081 12.7641C77.3946 12.7988 77.5129 12.9758 77.4723 13.1596L76.838 16.032C76.7974 16.2158 76.6134 16.3366 76.4269 16.302Z" fill="#0890FE"/>
    <path d="M81.952 17.3288L78.9553 16.7718C78.7688 16.7372 78.6504 16.5601 78.6911 16.3763L79.3253 13.5039C79.3658 13.3202 79.55 13.1993 79.7365 13.234L82.7332 13.7909C82.9197 13.8256 83.038 14.0027 82.9974 14.1865L82.3632 17.0589C82.3225 17.2426 82.1385 17.3635 81.952 17.3288Z" fill="#0890FE"/>
    <path d="M76.5627 9.45738L77.4137 9.61554C77.4668 9.62541 77.5073 9.65054 77.5349 9.69094C77.5625 9.73134 77.571 9.77622 77.5602 9.82546C77.5493 9.87481 77.5233 9.91165 77.4821 9.93598C77.4409 9.96043 77.3929 9.96755 77.3383 9.95733L76.4873 9.79918L76.296 10.6655C76.2837 10.7209 76.2582 10.7627 76.2196 10.7907C76.1808 10.8188 76.1349 10.8279 76.0817 10.818C76.0348 10.8093 75.9979 10.7832 75.9709 10.7397C75.9438 10.6962 75.9357 10.6499 75.9467 10.6005L76.138 9.73421L75.2916 9.57697C75.2368 9.56676 75.1954 9.54312 75.167 9.5057C75.1386 9.4684 75.1299 9.42513 75.1408 9.37578C75.151 9.32964 75.1787 9.29222 75.2241 9.26376C75.2693 9.23529 75.317 9.22577 75.367 9.23506L76.2134 9.39242L76.4042 8.52841C76.4164 8.47297 76.4427 8.43131 76.483 8.40353C76.5233 8.37576 76.5692 8.36669 76.6208 8.37622C76.674 8.38609 76.7124 8.41088 76.7362 8.45059C76.76 8.4903 76.7657 8.53782 76.7534 8.59325L76.5627 9.45738Z" fill="white"/>
    <path d="M80.8679 10.6704C80.8366 10.6645 80.8141 10.6504 80.8005 10.6278C80.7867 10.6052 80.7836 10.5769 80.7911 10.5431L80.8451 10.2983C80.8516 10.269 80.8656 10.2475 80.8874 10.234C80.909 10.2205 80.9356 10.2165 80.9668 10.2223L82.9103 10.5835C82.9462 10.5901 82.9725 10.6039 82.9891 10.6246C83.0057 10.6453 83.0108 10.6702 83.0043 10.6995L82.9502 10.9443C82.9441 10.972 82.9268 10.9949 82.8985 11.0128C82.8701 11.0309 82.841 11.0371 82.8114 11.0316L80.8679 10.6704Z" fill="white"/>
    <path d="M79.946 14.7031C79.9147 14.6973 79.8922 14.6832 79.8786 14.6605C79.8648 14.6379 79.8617 14.6097 79.8692 14.5758L79.9232 14.331C79.9298 14.3018 79.9438 14.2804 79.9655 14.2668C79.9872 14.2532 80.0137 14.2492 80.045 14.2551L81.9885 14.6162C82.0244 14.6229 82.0507 14.6367 82.0673 14.6573C82.0839 14.678 82.089 14.703 82.0825 14.7323L82.0284 14.9771C82.0223 15.0048 82.0051 15.0277 81.9767 15.0456C81.9483 15.0636 81.9192 15.0698 81.8896 15.0643L79.946 14.7031Z" fill="white"/>
    <path d="M79.748 15.6005C79.7167 15.5947 79.6942 15.5806 79.6806 15.558C79.6668 15.5353 79.6637 15.5071 79.6712 15.4733L79.7253 15.2284C79.7318 15.1992 79.7458 15.1777 79.7675 15.1642C79.7892 15.1506 79.8157 15.1467 79.847 15.1525L81.7905 15.5137C81.8264 15.5203 81.8527 15.5341 81.8693 15.5547C81.8859 15.5755 81.891 15.6004 81.8845 15.6297L81.8304 15.8745C81.8243 15.9023 81.807 15.9251 81.7787 15.943C81.7503 15.961 81.7212 15.9672 81.6916 15.9617L79.748 15.6005Z" fill="white"/>
    <path d="M74.3134 14.2114C74.2822 14.2055 74.2597 14.1914 74.246 14.1688C74.2323 14.1462 74.2291 14.118 74.2366 14.0841L74.2907 13.8393C74.2972 13.81 74.3112 13.7886 74.333 13.775C74.3546 13.7615 74.3811 13.7576 74.4124 13.7633L76.3559 14.1245C76.3918 14.1312 76.4181 14.1449 76.4347 14.1656C76.4512 14.1864 76.4564 14.2113 76.4499 14.2405L76.3958 14.4853C76.3897 14.5131 76.3724 14.536 76.344 14.5539C76.3156 14.5719 76.2866 14.5781 76.257 14.5726L74.3134 14.2114Z" fill="white"/>
    <path d="M75.7213 13.6403C75.691 13.7775 75.5534 13.8679 75.414 13.8421C75.2747 13.8161 75.1864 13.6838 75.2166 13.5465C75.2469 13.4092 75.3845 13.3189 75.5239 13.3447C75.6632 13.3706 75.7515 13.503 75.7213 13.6403Z" fill="white"/>
    <path d="M75.4672 14.7921C75.4369 14.9293 75.2993 15.0197 75.1599 14.9938C75.0206 14.9679 74.9321 14.8357 74.9625 14.6983C74.9928 14.561 75.1304 14.4707 75.2698 14.4966C75.409 14.5223 75.4974 14.6547 75.4672 14.7921Z" fill="white"/>
    <path d="M75.1989 3.46392L74.7087 5.68457L85.0212 7.60087L85.5114 5.38022L75.1989 3.46392Z" fill="white"/>
    <g opacity="0.5">
        <path opacity="0.5" d="M42.6661 65.9528C39.9426 65.9623 37.2192 66.0395 34.5005 66.396C33.4754 66.5304 32.4719 66.826 31.4444 66.9452C29.3922 67.1834 27.3767 67.6278 25.3173 67.8328C23.6589 67.9979 21.9934 68.0952 20.3397 68.3047C18.7893 68.501 17.0729 68.4558 15.5345 68.1314C14.3956 67.8912 13.2514 67.756 12.1316 67.3703C10.8789 66.9388 9.51804 66.6304 8.21283 66.6414C6.35169 66.6572 4.53915 66.6591 2.7581 67.4209C2.13289 67.6884 1.36743 68.128 0.892696 68.6893C-0.19418 69.9741 -0.341318 73.1799 0.743938 74.5125C2.57177 76.7553 6.473 77.6353 9.03511 77.6767C11.8427 77.7222 14.57 77.4765 17.3818 77.3321C19.9944 77.1978 22.6006 77.0069 25.2175 77.0136C30.5624 77.0273 35.9081 77.0136 41.2433 76.5926C46.2559 76.1972 51.2811 76.333 56.3047 76.333C61.4561 76.333 66.5727 76.3807 71.687 77.1878C73.9154 77.5394 76.1856 77.6626 78.4251 77.9089C80.4308 78.1296 82.3582 77.9046 84.356 77.7007C86.0334 77.5294 87.6999 77.0216 89.2239 76.163C90.4302 75.4834 92.5808 73.3719 92.9507 71.7497C93.9879 67.2018 78.3347 67.3111 75.9312 67.3214C73.2426 67.3329 70.5327 67.4371 67.8461 67.3162C66.7161 67.2654 65.6026 67.005 64.4997 66.7197C63.4012 66.4355 62.2943 66.5078 61.1803 66.3883C56.5344 65.8902 51.8783 65.963 47.2177 65.963C45.7009 65.9631 44.1835 65.9475 42.6661 65.9528Z" fill="#EED5D5"/>
    </g>
    <path d="M72.4801 0L57.0403 3.98886L60.7731 7.45554C56.633 11.3186 51.4563 16.1691 51.3184 16.3983C51.0876 16.7816 47.0701 9.24489 47.0701 9.24489L36.2235 20.2432L32.2636 15.4361L23.6045 24.3154L31.6887 19.262L36.0568 24.4891L45.8067 15.4005L49.9637 23.1972L64.4579 10.8778L68.4699 14.6038L72.4801 0Z" fill="#3629B7"/>
    <path d="M50.1162 23.2188L64.8726 11.0821L64.0437 10.1865L50.1162 23.2188Z" fill="#353A85"/>
    <path d="M36.2219 24.4357L46.4575 16.2763L45.9069 15.2544L36.2219 24.4357Z" fill="#353A85"/>
    <path d="M31.8767 19.2075L23.8374 24.294L32.3507 19.8547L31.8767 19.2075Z" fill="#353A85"/>
    <path d="M29.3296 24.0492L28.9062 22.0381L30.2148 20.666L30.9002 21.2377L30.5849 22.66L30.9244 23.0043L30.5548 24.4581C30.5548 24.458 29.3253 24.0217 29.3296 24.0492Z" fill="#EFBFA5"/>
    <path d="M46.4166 19.9767L46.5773 17.8784L44.7276 16.5645L43.9519 17.4951L44.7873 18.8638L44.4889 19.5755L45.309 20.7056L46.4166 19.9767Z" fill="#EFBFA5"/>
    <path d="M31.7597 43.811L31.6101 55.685L32.989 70.9707H34.864L37.1075 56.8683L39.6733 42.7417L31.7597 43.811Z" fill="#0890FE"/>
    <path d="M34.8534 71.6962L32.8258 72.6264L31.812 71.6962L32.8258 70.7661H34.8534V71.6962Z" fill="#0890FE"/>
    <path d="M44.6147 43.811L44.6515 50.6805L43.3869 70.9707H41.5121L38.3755 57.5062L36.7012 42.7417L44.6147 43.811Z" fill="#0890FE"/>
    <path d="M41.5227 71.6962L43.5503 72.6264L44.564 71.6962L43.5503 70.7661H41.5227V71.6962Z" fill="#0890FE"/>
    <path d="M46.5643 47.947C46.6045 49.0369 46.5787 50.4949 46.0786 50.5493C45.985 50.5595 45.8947 50.5215 45.8123 50.4848C44.9428 50.0971 44.3228 49.5491 43.4655 49.1746C42.5673 48.7821 41.5461 48.5767 40.5483 48.4349C39.0599 48.2168 37.5471 48.0857 36.0492 48.0735C34.7619 48.063 33.423 48.6019 32.206 48.8983C31.7375 49.0124 31.3565 49.3256 30.9672 49.5714C30.3924 49.9342 30.1404 50.078 30.2188 49.3365C30.3468 48.1266 30.4795 46.917 30.6417 45.7104C30.9652 43.3039 31.4057 40.9032 32.1509 38.5736C32.4356 37.6837 32.7639 36.8061 33.0922 35.9289C33.492 34.8606 33.8916 33.7924 34.2914 32.7241C34.7883 31.3965 35.6268 30.4612 37.095 29.9968C38.3639 29.5955 39.94 29.4857 41.1741 30.0475C42.546 30.6719 43.1985 32.7997 43.865 33.9367C44.449 34.9331 45.1853 37.6506 45.4038 38.7248C45.667 40.0177 45.9101 41.3045 46.1014 42.5879C46.3134 44.0093 46.4627 45.4265 46.506 46.8355C46.511 46.9911 46.5452 47.4266 46.5643 47.947Z" fill="#0890FE"/>
    <path d="M39.7873 30.2354L37.2536 30.2575C37.2536 30.2575 34.5347 38.9767 34.4347 40.4794C34.3367 41.9547 33.6494 47.9364 33.6494 47.9364C33.6494 47.9364 36.4555 47.9971 39.6886 48.3586C42.8493 48.9793 43.115 48.6123 43.115 48.6123C43.115 48.6123 41.4091 42.3253 41.3526 40.519C41.2946 38.6714 41.0369 32.5694 41.0369 32.5694L39.7873 30.2354Z" fill="white"/>
    <path d="M39.4201 30.3779H38.1727C37.8815 30.3779 37.7165 30.6841 37.8931 30.8966L38.4052 31.5124L37.0427 43.0456L38.7197 44.5582L39.8727 42.7621L39.5582 31.5125L39.7611 30.7804C39.8175 30.5762 39.6495 30.3779 39.4201 30.3779Z" fill="#0890FE"/>
    <path d="M38.2508 30.2797C38.2806 30.3034 38.3149 30.322 38.3545 30.3341C38.4332 30.3578 38.5187 30.3492 38.601 30.3403C38.9362 30.3039 39.2713 30.2675 39.6065 30.2311C39.4959 29.2894 40.096 29.0764 40.6807 28.4707C41.2732 27.8567 41.0908 27.0288 41.0576 26.2774C41.0481 26.0682 41.0369 25.8525 40.9405 25.6627C40.7712 25.3295 40.3772 25.1455 39.9946 25.0365C39.0184 24.7582 37.9018 24.8267 37.0423 25.3344C36.8135 25.4695 36.6 25.6393 36.476 25.8616C36.285 26.2042 36.3335 26.6131 36.3867 26.9949C36.4686 27.5817 36.6579 28.158 37.0195 28.6525C37.3564 29.1133 37.9989 29.3339 38.0727 29.8869C38.0917 30.0297 38.1389 30.1904 38.2508 30.2797Z" fill="#EFBFA5"/>
    <path d="M42.0463 22.9899C41.8524 22.7118 41.6161 22.4621 41.3384 22.3065C40.6734 21.9343 39.7476 21.9001 39.0312 21.645C38.0234 21.2861 37.5112 21.6098 36.5597 21.8901C36.1794 22.0022 35.7421 22.0995 35.5407 22.4302C35.4295 22.6128 35.413 22.8381 35.3007 23.0201C35.1561 23.2546 34.8815 23.3769 34.6434 23.5245C34.3672 23.6957 34.2495 23.9491 34.2399 24.2326C34.2191 24.8383 34.718 25.8223 35.3316 26.0692C35.4508 26.1171 35.5828 26.1454 35.7222 26.1589C35.8705 26.5361 36.1334 26.8996 36.5295 27.0228C36.5921 26.7874 36.4718 26.548 36.4149 26.3113C36.4005 26.2515 36.3977 26.1898 36.4019 26.1274C36.8598 26.0547 37.322 25.8986 37.6585 25.7639C38.3592 25.4834 39.7236 25.1844 40.451 25.5157C41.0263 25.7779 40.8496 26.6135 40.8206 27.142C40.8131 27.2778 40.8017 27.4161 40.8359 27.5483C40.8833 27.7317 41.0348 27.8347 41.0644 28.0213C41.5354 27.8274 41.8204 27.3401 42.0864 26.9439C42.2194 26.7458 42.3439 26.5388 42.4418 26.3139C42.8793 25.3087 42.718 23.9535 42.0463 22.9899Z" fill="#292949"/>
    <path d="M36.4731 30.1937L30.4463 30.1145L31.031 24.1866L29.0888 23.5386L26.7468 30.6842L27.8458 32.8397L34.5723 34.6445L36.4731 30.1937Z" fill="#0890FE"/>
    <path d="M40.6001 29.9264L47.0323 28.1868L44.6515 20.8074L46.6134 19.5161L51.3493 28.0587L50.0397 31.017L43.894 33.9279L40.6001 29.9264Z" fill="#0890FE"/>
    <path d="M82.8584 20.5268L83.1387 18.3414L80.5507 17.3271L80.0693 18.3365L81.2881 19.9798L81.5833 20.9797L82.8584 20.5268Z" fill="#EFBFA5"/>
    <path d="M71.0505 33.7275L67.9179 38.1402L65.8787 41.7142L66.6247 43.0996L69.3375 42.4034L71.0505 33.7275Z" fill="#3629B7"/>
    <path d="M74.8039 49.3109V51.5454L71.5574 61.2277L72.3691 71.2825L70.34 71.655L67.0935 59.3658L67.2176 55.7501L68.7167 48.376L74.8039 49.3109Z" fill="#0890FE"/>
    <path d="M70.6064 71.4638L69.0574 72.9678L69.5048 73.7303L72.7009 72.3227L72.1122 71.2085L70.6064 71.4638Z" fill="#343434"/>
    <path d="M75.5183 72.1509L73.6089 73.2521L73.8344 74.093L77.3125 73.4627L77.0459 72.2488L75.5183 72.1509Z" fill="#343434"/>
    <path d="M71.04 33.7163L75.8699 31.958C75.8699 31.958 77.5864 35.8704 79.5378 42.1378C81.4891 48.4051 78.6318 56.3829 78.6318 56.3829C78.6318 56.3829 67.5667 53.9697 65.3572 53.5718L68.1286 42.1158L71.04 33.7163Z" fill="#3629B7"/>
    <path d="M72.2285 51.9561L75.4907 72.4382H76.9734L77.9099 61.2661L79.9391 50.0942L72.2285 51.9561Z" fill="#0890FE"/>
    <path d="M70.8801 27.7277C72.1952 27.8165 73.4248 26.8256 74.7191 27.0716C75.5607 27.2315 76.2251 27.9164 76.4819 28.6883C76.6016 29.0481 76.644 29.4402 76.5268 29.7979C76.4508 30.0301 76.3105 30.2393 76.1455 30.4253C75.9248 30.6739 75.6549 30.8803 75.3552 31.0391C75.5198 31.2825 75.7084 31.5122 75.9181 31.7244C75.3116 31.9375 74.7051 32.1505 74.0987 32.3637C73.9647 32.0439 73.8306 31.7241 73.6966 31.4044C73.5143 31.3951 73.3325 31.3713 73.1544 31.3289C72.0776 31.0725 71.1848 30.2072 70.9446 29.1871C70.8323 28.7093 70.854 28.215 70.8801 27.7277Z" fill="#EFBFA5"/>
    <path d="M71.2122 28.0919L75.2787 27.6485L76.0679 30.4985L77.2162 29.6623L76.6244 24.9991L70.8857 24.8857L68.4009 26.2232L68.5061 27.5635L70.7278 28.9357L71.2122 28.0919Z" fill="#292949"/>
    <path d="M72.7906 32.8862L77.6205 31.1279C77.6205 31.1279 79.337 35.0403 81.2883 41.3077C83.2396 47.575 80.3823 55.5529 80.3823 55.5529C80.3823 55.5529 70.4842 51.0648 68.2747 50.6669L69.8791 41.2858L72.7906 32.8862Z" fill="white"/>
    <path d="M81.3614 41.1995C79.4101 34.9321 77.7203 31.0132 77.7203 31.0132L72.8637 32.778L72.8558 32.8006C72.9628 33.0567 73.0746 33.3113 73.1716 33.571C73.5541 34.5956 73.8369 35.6503 74.0105 36.7216C74.3158 38.6047 74.3479 40.5409 74.2822 42.4413C74.2193 44.2646 74.0144 46.0846 73.6614 47.8801C73.1947 50.2536 72.4507 52.5664 71.4917 54.8049C75.9841 55.6426 81.271 56.633 81.271 56.633C81.271 56.633 83.3129 47.4668 81.3614 41.1995Z" fill="#3629B7"/>
    <path d="M77.3125 31.1623L82.1208 28.4272L81.2269 20.9188L83.3583 20.1616L86.8651 28.7428L86.1775 30.131L79.5869 35.9674L77.3125 31.1623Z" fill="#0890FE"/>
    <path d="M68.4378 39.4694L68.919 34.2324H66.5813L64.7935 41.4254L66.0312 43.6338L68.0215 42.7412L68.4378 39.4694Z" fill="#0890FE"/>
    <path d="M66.8562 34.2321V32.4656L68.3001 31.9609L69.6066 32.9072V33.7273L68.644 34.2321H66.8562Z" fill="#EFBFA5"/>
    <path d="M9.41382 24.8484L9.69165 22.7118L11.5132 21.7476L12.0392 22.8984L11.1695 24.208V25.2804L9.41382 24.8484Z" fill="#EFBFA5"/>
    <path d="M23.1958 72.5001L21.5659 71.1188C21.0929 70.8992 20.5928 70.7459 20.1874 70.7506C19.893 70.754 19.6487 70.8407 19.5013 71.0457C19.3599 71.2425 19.3311 71.5017 19.4275 71.7117C19.4628 71.7885 19.5129 71.8572 19.5691 71.922C19.6177 71.9777 19.6715 72.0314 19.7243 72.0836C19.7579 72.1167 19.7951 72.1524 19.8345 72.1895C20.1717 72.525 20.7369 73.0712 20.9613 73.1947C21.2904 73.3758 22.0144 73.859 22.8701 73.3154C22.8669 73.3128 22.8633 73.3103 22.8601 73.3077C23.1714 73.1145 23.263 72.797 23.1958 72.5001Z" fill="#343434"/>
    <path d="M21.9164 60.4689L21.7848 62.2025L21.1391 70.6427L21.7848 71.6246C21.7848 71.6246 21.9164 72.4097 20.9292 72.3493C20.6355 72.3314 19.5953 71.1177 19.5953 71.1177L19.7457 70.5616L19.0138 64.2242L19.0205 62.3836L18.6704 60.3398L21.9164 60.4689Z" fill="#EFBFA5"/>
    <path d="M11.584 70.3571C11.2805 70.2695 10.998 70.283 10.7714 70.4478C10.5539 70.6062 10.4292 70.8632 10.4509 71.1086C10.4658 71.276 10.5429 71.4309 10.6189 71.5821C11.0125 72.3648 12.1164 74.1345 13.3831 73.8101C13.9154 73.6738 14.1169 73.1752 14.0088 72.7348C13.8461 72.0713 12.5986 70.6499 11.584 70.3571Z" fill="#343434"/>
    <path d="M17.9684 59.4567L17.7479 61.953L12.4078 70.776C12.4078 70.776 13.1754 72.0066 12.6885 72.1135C12.2017 72.2203 10.774 71.8476 10.771 70.4581C11.3324 68.7752 13.5393 63.061 13.5393 63.061L14.5727 61.5865L14.5575 58.8154L17.9684 59.4567Z" fill="#EFBFA5"/>
    <path d="M11.9347 51.0999C11.8926 50.364 12.1492 48.444 12.4126 47.756C13.3733 45.2472 13.5584 44.0109 13.5584 41.9689C13.5584 39.927 12.5712 33.4527 12.5712 33.4527L16.0011 31.5635L20.1126 31.6693L22.3957 32.3602C22.3957 32.3602 22.879 40.5057 23.0163 43.131C23.1142 45.0045 23.2559 46.6271 23.4426 48.798C23.4426 48.798 23.966 53.7494 23.1574 59.0572C23.1574 59.0572 22.9769 60.8197 22.8959 60.9741C22.8853 61.0264 22.8793 61.0546 22.8793 61.0546C22.8793 61.0546 22.8468 61.0546 22.8464 61.0547L13.7037 61.0546V58.0298C13.3993 57.0589 13.1102 56.0837 12.8332 55.106C12.4811 53.8635 12.0131 52.4657 11.9347 51.0999Z" fill="#343434"/>
    <path d="M13.8687 32.1342L12.3081 33.2113C12.3081 33.2113 13.4953 40.6679 13.5586 41.969C13.6219 43.2703 11.7947 48.47 11.7947 48.47L19.3637 49.376C19.3637 49.376 20.4771 43.8229 20.7974 41.0642C21.1178 38.3056 16.5383 31.5806 16.5383 31.5806L13.8687 32.1342Z" fill="#3629B7"/>
    <path d="M21.4568 32.0037L23.0016 32.6763C23.0016 32.6763 22.7843 40.9655 23.1804 43.0709C23.4219 44.3542 24.3619 48.51 24.3619 48.51L21.9176 49.2776C21.9176 49.2776 20.4128 44.0792 20.1138 41.3205C19.8149 38.5619 20.1406 31.7017 20.1406 31.7017L21.4568 32.0037Z" fill="#3629B7"/>
    <path d="M21.157 28.9658C21.3575 29.6778 20.8972 30.3813 20.4942 30.9819C20.3296 31.2273 20.0746 31.5686 20.287 31.8488C20.5248 32.1623 21.1153 32.0995 21.3751 31.8651C21.5585 31.6995 21.6487 31.4751 21.727 31.2562C22.0776 30.2754 22.5674 28.9017 22.4716 27.8708C22.3948 27.0442 21.2899 25.5763 20.1517 26.1015C19.9451 26.1969 19.8126 26.3759 19.6993 26.5521C19.6316 26.6572 19.5663 26.7674 19.5528 26.8875C19.4991 27.3661 20.0022 27.4892 20.3327 27.7465C20.7403 28.0637 21.0289 28.5112 21.157 28.9658Z" fill="#292949"/>
    <path d="M19.2579 31.5237C20.018 31.4351 20.6534 30.9475 20.9935 30.3605C21.3335 29.7736 21.4147 29.0983 21.4013 28.4397C21.357 26.2482 18.1897 26.1264 16.9583 27.7014C15.8851 29.0739 17.0477 31.7812 19.2579 31.5237Z" fill="#EFBFA5"/>
    <path d="M17.0957 28.7368C17.0696 29.0022 16.9225 29.2837 16.8819 29.5564C16.8073 30.0584 16.9297 30.7097 16.7295 31.1683C16.174 31.0985 15.4987 30.7798 15.0871 30.43C14.6668 30.0728 14.7425 29.5417 14.6485 29.0155C14.5616 28.5288 14.4509 28.0398 14.4812 27.5474C14.647 24.8517 17.5785 23.3776 20.1611 24.5936C21.1382 25.0537 21.5655 26.2228 20.8469 26.9911C20.0739 27.8174 18.5031 27.4591 17.5775 28.0722C17.3722 28.2083 17.2142 28.4526 17.0957 28.7368Z" fill="#292949"/>
    <path d="M19.3215 31.2988C19.283 31.462 19.2444 31.6251 19.206 31.7883C19.1883 31.8631 19.1949 32.0772 19.1248 32.1285C19.0882 32.1552 19.0338 32.1512 18.9858 32.1458C18.8484 32.1303 17.6193 31.9867 17.6327 31.915C17.6686 31.7227 17.7087 31.5344 17.7742 31.3507C17.8269 31.2023 17.8472 30.9231 17.9447 30.8105C18.1534 30.9415 18.3692 31.0225 18.6151 31.0866C18.8524 31.1483 19.091 31.2064 19.3305 31.2609C19.3275 31.2735 19.3245 31.2862 19.3215 31.2988Z" fill="#EFBFA5"/>
    <path d="M16.2023 31.8251L10.1712 32.2273L11.5221 24.1577L9.32082 24.1686L6.09082 32.6278L7.21252 35.2927L14.2416 35.8888L16.2023 31.8251Z" fill="#3629B7"/>
    <path d="M22.3457 32.3501L23.8905 33.0228L27.6722 41.667L31.9779 43.1034L30.3517 44.1366L25.8844 44.0647L22.7215 38.9539L22.3457 32.3501Z" fill="#8CABEF"/>
    <path d="M60.2174 18.2334L60.484 16.6828L58.8292 15.9512L57.4453 17.5397L58.6874 18.5802L60.2174 18.2334Z" fill="#B97262"/>
    <path d="M57.7864 32.7769L60.0688 26.0615L58.2681 18.3879L60.4465 17.877L63.0764 26.1801L60.3518 35.6098L58.2819 32.8619L57.7864 32.7769Z" fill="#3629B7"/>
    <path d="M62.8547 70.5416C62.8582 70.537 62.8607 70.5339 62.8607 70.5339L62.8539 70.5321L62.5261 66.5898L60.4011 67.0083L61.4546 70.441L60.9124 71.4853C60.9124 71.4853 60.7052 72.0091 60.8989 71.955C61.0925 71.9009 61.931 71.6863 61.9967 71.6292C62.0522 71.5807 62.6329 70.8293 62.8096 70.6L62.8547 70.5416Z" fill="#B97262"/>
    <path d="M53.3829 67.6444L53.7175 70.3283L53.1616 71.0368L53.2198 71.5036L54.7095 71.0517L55.3799 70.7449L55.4232 66.9575L53.3829 67.6444Z" fill="#B97262"/>
    <path d="M55.9043 47.5316L56.9502 55.122L57.598 57.9532L60.4329 68.4132L63.0157 67.9265L61.8195 56.4831L62.4042 49.2045L62.6345 47.2922L63.2701 44.9863L55.9043 47.5316Z" fill="#5655B9"/>
    <path d="M50.6328 47.9257L51.0506 55.6527L53.1739 68.5535L55.7174 68.2866L55.7966 60.6522L57.1744 46.379L54.2655 45.2655L51.938 44.6821L50.6328 47.9257Z" fill="#5655B9"/>
    <path d="M53.7174 70.329L51.7517 72.1312L51.9026 72.8246L53.4922 72.6579L55.5724 71.2574L55.5759 70.2522L55.3634 70.0972C55.3634 70.0972 53.4376 71.1859 53.3031 71.1409C53.1687 71.0959 53.7174 70.329 53.7174 70.329Z" fill="#343434"/>
    <path d="M61.4521 70.4595L60.455 71.44L59.8516 71.8799L60.0979 72.6347L60.9806 72.7759L63.3062 71.4791L63.0929 70.5509L62.8738 70.3369C62.8738 70.3369 61.9632 71.0257 61.1076 71.4253C60.8656 71.5382 61.4521 70.4595 61.4521 70.4595Z" fill="#343434"/>
    <path d="M53.7431 32.3604L51.8921 33.2414L46.636 37.5447L46.7413 39.7501L53.4282 37.1177L53.7431 32.3604Z" fill="#3629B7"/>
    <path d="M53.2361 32.6905C53.2361 32.6905 54.1321 31.7144 57.5244 31.7144C60.9166 31.7144 63.45 41.5729 63.322 43.3422C63.194 45.1116 63.6688 49.0993 63.6688 49.0993L55.7323 47.2724C55.7323 47.2724 51.2534 47.2802 50.1653 48.2564C49.0773 49.2326 52.2831 41.2896 52.347 39.4593C52.4111 37.6291 52.148 33.6058 53.2361 32.6905Z" fill="#0890FE"/>
    <path d="M56.8936 31.9365L57.2045 31.9493L56.1995 39.8047L54.4523 36.4717L54.1323 32.8889L54.4523 32.3603L56.8936 31.9365Z" fill="white"/>
    <path d="M52.3656 28.787C52.1563 26.4062 55.5039 25.9885 56.9951 27.5854C57.968 28.6272 57.6985 30.5929 56.5051 31.4822C56.5216 31.5319 56.5383 31.5779 56.5559 31.6155C56.6469 31.8088 56.7115 32.0095 56.7721 32.2148C56.7946 32.2913 55.5068 32.558 55.3628 32.5871C55.3124 32.5973 55.2552 32.6065 55.2133 32.5808C55.1327 32.5316 55.1147 32.2987 55.0872 32.2192C55.0548 32.1253 55.0223 32.0313 54.9898 31.9374C54.1773 31.9058 53.4505 31.4363 53.0231 30.8333C52.5936 30.2276 52.4285 29.5025 52.3656 28.787Z" fill="#B97262"/>
    <path d="M53.4182 26.1377C53.6488 26.2226 53.8103 26.4048 53.9511 26.5857C54.0352 26.6936 54.1175 26.8072 54.1458 26.9362C54.2587 27.4505 53.7392 27.6294 53.4185 27.9383C53.023 28.3192 52.7689 28.8304 52.6862 29.3352C52.5566 30.1255 53.1275 30.847 53.6254 31.4619C53.8008 31.6786 54.0936 31.988 53.9922 32.2847C53.8891 32.5861 53.3945 32.7442 53.093 32.7311C52.8175 32.7191 52.541 32.6038 52.274 32.6652C51.9914 32.7303 51.6861 32.9791 51.4581 32.8065C51.3946 32.7585 51.3556 32.6844 51.2857 32.6451C51.0494 32.5126 50.7938 32.8811 50.5247 32.8288C50.3592 32.7965 50.2762 32.6197 50.2523 32.4631C50.2285 32.3064 50.233 32.1362 50.1357 32.0061C50.0521 31.8943 49.9102 31.8362 49.7981 31.749C49.5766 31.5766 49.4811 31.2747 49.5674 31.0197C49.7278 30.5455 50.3864 30.3593 50.5797 29.8963C50.6804 29.6551 50.6347 29.3836 50.5925 29.1263C50.5504 28.869 50.5159 28.5936 50.635 28.3601C50.7822 28.0715 51.1429 27.966 51.2699 27.6429C51.3445 27.453 51.3537 27.2411 51.4536 27.0619C51.5851 26.8257 51.9295 26.5466 52.1469 26.3659C52.4919 26.0792 52.982 25.9773 53.4182 26.1377Z" fill="#292949"/>
    <path d="M56.8744 28.6868C57.2125 29.3626 57.1943 30.2471 57.8218 30.7098C58.4551 31.1768 59.3675 30.941 60.116 30.6787C60.2391 30.6356 61.814 30.1278 61.839 30.1083C62.6446 29.4826 61.7838 29.0524 61.6906 28.5301C61.5566 27.7793 62.8366 27.8968 62.5537 27.2414C62.3931 27.2775 62.2378 27.14 62.1878 26.9915C62.1378 26.8431 62.1569 26.6836 62.1383 26.5292C62.0927 26.1498 61.7969 25.8043 61.4109 25.6796C60.6404 25.4307 59.7403 26.023 59.015 25.6733C58.5651 25.4564 58.3696 24.9587 58.0234 24.6127C57.3537 23.9436 56.336 24.1553 55.4647 24.0811C54.5449 24.0028 53.7492 24.0768 52.956 24.5504C51.9728 25.1376 51.6561 26.4441 52.5087 27.2125C53.6022 28.198 55.6503 27.2544 56.6207 28.3112C56.7249 28.4248 56.8068 28.5517 56.8744 28.6868Z" fill="#292949"/>
    <path d="M60.7613 40.7505L58.9346 36.394H58.9337C58.7586 35.9217 58.2722 35.5815 57.6982 35.5815C57.0614 35.5815 56.5319 35.9998 56.4163 36.553L56.2917 36.5609V41.0748L56.581 40.722L56.9007 41.1119H56.962L57.2817 40.722L57.6013 41.1119H57.6626L57.9822 40.722L58.302 41.1119H58.3633L58.683 40.722L59.0027 41.1119H59.0639L59.3837 40.722L59.7033 41.1119H59.7646L60.0842 40.722L60.4039 41.1119H60.4652L60.7613 40.7505Z" fill="#BABCBE"/>
    <path d="M56.3647 35.5815H55.8398H49.9629C49.2469 35.5815 48.6662 36.1105 48.6577 36.7657C48.6577 36.7705 48.657 36.7751 48.657 36.78C48.657 36.7848 48.6577 36.7894 48.6577 36.7942V56.1911H53.7037C53.989 56.4474 54.3792 56.6059 54.81 56.6059C55.2408 56.6059 55.6309 56.4474 55.9163 56.1911C56.3356 55.8143 56.3647 55.393 56.3647 54.8884L56.3923 36.78C56.3923 36.1181 56.977 35.5815 57.6983 35.5815H56.3647Z" fill="#F7F7F7"/>
    <path d="M53.3281 55.1999C53.3281 55.064 53.35 54.9329 53.3881 54.8082H53.3281L47.5015 55.6377L47.8032 56.0185C48.1185 56.4163 48.6223 56.6517 49.1584 56.6517H54.9103C54.0365 56.6517 53.3281 56.0016 53.3281 55.1999Z" fill="#BABCBE"/>
    <path d="M55.6684 40.3535H49.3357V40.5627H55.6684V40.3535Z" fill="#D2CFCA"/>
    <path d="M55.6684 41.5815H49.3357V41.7908H55.6684V41.5815Z" fill="#D2CFCA"/>
    <path d="M55.6684 42.8115H49.3357V43.0208H55.6684V42.8115Z" fill="#D2CFCA"/>
    <path d="M55.6684 44.0396H49.3357V44.2488H55.6684V44.0396Z" fill="#D2CFCA"/>
    <path d="M55.6684 45.2681H49.3357V45.4773H55.6684V45.2681Z" fill="#D2CFCA"/>
    <path d="M55.6684 46.4966H49.3357V46.7058H55.6684V46.4966Z" fill="#D2CFCA"/>
    <path d="M55.6684 47.8872H49.3357V48.0964H55.6684V47.8872Z" fill="#D2CFCA"/>
    <path d="M55.6684 49.2783H49.3357V49.4875H55.6684V49.2783Z" fill="#D2CFCA"/>
    <path d="M55.6684 50.6689H49.3357V50.8781H55.6684V50.6689Z" fill="#D2CFCA"/>
    <path d="M55.6684 39.0054H49.3357V39.2146H55.6684V39.0054Z" fill="#D2CFCA"/>
    <path d="M46.7148 37.5449L51.8919 41.1047L51.068 42.733L46.2461 40.8282L46.7148 37.5449Z" fill="#3629B7"/>
    <path d="M51.8122 41.2622C51.8122 41.2622 52.7508 41.5021 52.7508 41.4236C52.7508 41.3451 52.7508 41.7949 52.7508 41.7949L53.3472 42.2921L52.7995 43.1074L51.217 42.4383L51.8122 41.2622Z" fill="#3629B7"/>
    <path d="M17.8079 39.7097C17.6562 39.5926 17.5297 39.444 17.4395 39.2945C17.2841 39.037 17.2153 38.7339 17.2517 38.4392C17.2675 38.3118 17.3797 38.2055 17.5269 38.2098C17.6619 38.2139 17.7908 38.3265 17.7749 38.4547C17.7383 38.7504 17.8368 39.0374 18.0518 39.2539C18.1005 39.204 18.1543 39.1582 18.2121 39.1174C18.4238 38.9674 18.7522 38.7713 19.0109 38.9281C19.3021 39.1046 19.2281 39.4529 19.008 39.6546C18.8343 39.8139 18.5965 39.9345 18.353 39.9299C18.4549 40.2043 18.5943 40.3165 18.9133 40.3001C19.1071 40.2901 19.5607 40.1898 19.6446 39.9952C19.699 39.869 19.5821 39.577 19.5662 39.4366C19.522 39.047 19.5249 38.6526 19.5732 38.2618C19.6713 37.4685 19.9571 36.6978 20.374 35.9908C21.3157 34.3942 22.8796 33.1391 24.6018 32.2538C24.6968 32.2049 24.7925 32.1572 24.8888 32.1103C26.0855 31.5293 27.3333 31.1673 28.569 31.0292C28.6866 30.5814 28.8952 30.1545 29.2001 29.7825C29.8809 28.9524 31.0635 28.4443 32.1761 28.6098C31.7281 29.6202 31.5371 30.9239 31.508 31.137C32.8428 31.3962 34.0962 31.9503 35.1753 32.8081C35.1978 32.8261 35.2188 32.8432 35.2392 32.8598L36.6858 32.616C36.6858 32.616 38.1012 34.874 38.0689 35.7033C38.0689 35.7033 37.1485 36.441 36.5594 36.8068C36.4437 37.9526 35.9577 39.1176 35.1589 40.1849C35.106 40.2556 35.0516 40.3258 34.996 40.3956L36.0494 42.2225C36.0494 42.2225 34.6799 43.4976 33.7471 43.6454L32.5296 42.5909C32.1498 42.8345 31.7469 43.0611 31.3221 43.2674C30.8197 43.5113 30.3121 43.7216 29.8041 43.8976L30.072 45.4298C29.4142 46.0544 27.4949 46.3762 27.4949 46.3762L26.4421 44.5503C23.8271 44.6418 21.5147 43.6727 20.2607 41.4979C20.1539 41.3126 20.0594 41.1262 19.9769 40.9391C19.5895 41.054 19.1784 41.0875 18.7885 40.964C18.4883 40.8689 18.2516 40.6976 18.0752 40.4595C17.9162 40.2446 17.7651 39.9788 17.8079 39.7097Z" fill="#FAB994"/>
    <path d="M27.7013 31.7329L27.8072 32.5207C27.8072 32.5207 25.1762 33.0564 23.0772 34.8171L22.29 34.604C22.29 34.6038 23.7562 32.0671 27.7013 31.7329Z" fill="white"/>
    <path opacity="0.03" d="M20.5249 41.6536C22.2337 42.7849 24.4317 43.0963 26.5254 42.937C28.0756 42.819 29.669 42.4832 31.1098 41.8732C33.1955 40.9901 34.8024 39.5121 36.2024 37.9036C36.2641 37.8327 36.3233 37.7608 36.3814 37.6885C36.1544 38.5277 35.7376 39.3605 35.1533 40.1409C34.2481 41.3502 32.9413 42.4341 31.3166 43.2229C26.9957 45.3207 22.2885 44.9374 20.2715 41.4816C20.3538 41.5413 20.4397 41.5972 20.5249 41.6536Z" fill="black"/>
    <path opacity="0.03" d="M35.2869 32.8984C35.2869 32.8984 37.2598 34.9041 36.5597 36.8053L37.1408 36.4091C37.1407 36.4092 36.9354 33.9558 35.2869 32.8984Z" fill="black"/>
    <path d="M30.6381 44.3472L29.5598 44.1786L30.1676 42.711L31.4655 42.4526L32.2358 43.2115L30.6381 44.3472Z" fill="#EFBFA5"/>
</svg>
