<svg width="110" height="78" viewBox="0 0 110 78" fill="none" xmlns="http://www.w3.org/2000/svg">
    <path opacity="0.3" d="M93.1529 21.7311C86.8956 25.0032 77.1208 28.5056 65.3475 27.2288C47.4788 25.2915 24.9857 21.5424 14.2031 28.5489C14.5598 22.2224 16.1522 16.7277 19.2329 12.6309C23.0073 11.7534 27.8069 11.7175 33.8682 13.2853C47.0029 16.6823 64.0573 20.3932 76.8673 19.7449C81.0004 20.7566 86.1164 21.4728 92.7137 21.7082C92.8623 21.7137 93.0084 21.7208 93.1529 21.7311Z" fill="white"/>
    <path opacity="0.3" d="M101.579 40.657C100.798 44.7654 99.2654 48.5691 97.1413 51.9391C92.6177 53.3029 86.5996 53.8045 78.8048 52.0992C59.7604 47.9321 38.8719 48.0075 23.4377 57.0653C23.1706 56.7855 22.909 56.4996 22.6514 56.2096C19.2058 52.3233 16.7198 47.7028 15.3936 42.7278C20.7869 40.1688 34.2949 35.1985 51.7067 39.179C70.0691 43.3761 91.1194 46.7123 101.579 40.657Z" fill="white"/>
    <path opacity="0.6" d="M52.5735 78C81.6091 78 105.147 76.2802 105.147 74.1587C105.147 72.0373 81.6091 70.3175 52.5735 70.3175C23.538 70.3175 0 72.0373 0 74.1587C0 76.2802 23.538 78 52.5735 78Z" fill="#D1E3F1"/>
    <path d="M97.6652 62.2366C100.476 58.8901 103.214 55.2283 104.742 52.5895C106.739 49.142 107.594 46.3496 107.283 44.2898C107.262 44.1533 107.135 44.0592 106.999 44.08C106.863 44.1008 106.769 44.228 106.789 44.3645C107.333 47.9652 103.983 54.1054 97.0994 62.1366L97.6652 62.2366Z" fill="#1C47C1"/>
    <path d="M106.266 49.3675C106.266 49.3675 107.952 50.6003 110 47.5476C110 47.5476 106.885 46.3936 106.266 49.3675Z" fill="#0172D0"/>
    <path d="M105.292 50.9961C105.292 50.9961 106.614 49.3792 103.685 47.1614C103.685 47.1614 102.362 50.2114 105.292 50.9961Z" fill="#0172D0"/>
    <path d="M107.046 45.8934C107.046 45.8934 108.831 44.8108 106.808 41.7417C106.808 41.742 104.545 44.1755 107.046 45.8934Z" fill="#0172D0"/>
    <path d="M103.432 54.3327C103.432 54.3327 104.602 56.0636 107.56 53.8847C107.56 53.885 105.019 51.744 103.432 54.3327Z" fill="#0172D0"/>
    <path d="M102.189 55.8411C102.189 55.8411 103.77 54.4777 101.268 51.7859C101.268 51.7859 99.4379 54.5606 102.189 55.8411Z" fill="#0172D0"/>
    <path d="M100.691 58.076C100.691 58.076 101.828 59.8288 104.827 57.7065C104.827 57.7065 102.327 55.5177 100.691 58.076Z" fill="#0172D0"/>
    <path d="M56.5314 5.44898C53.3849 5.96078 53.0892 9.00394 50.6373 8.62214C48.1857 8.24034 46.1192 9.54713 46.296 11.7332C46.4735 13.92 46.7259 15.5192 44.1538 16.1743C41.5816 16.829 39.9603 19.7668 41.7346 21.2414C42.1761 21.6089 42.6548 22.0057 43.1246 22.394C43.253 22.5001 43.3808 22.6059 43.5065 22.7099C43.5354 22.7342 43.5647 22.7587 43.5937 22.7823C45.4835 24.345 48.2638 24.2682 50.0131 22.5496C50.7211 21.8539 51.1824 20.9715 51.009 19.8814C50.4663 16.4677 53.6172 18.0792 55.2664 16.2998C57.1671 14.2509 55.5938 12.0795 57.1644 10.7099C59.3485 8.80537 59.6779 4.93752 56.5314 5.44898Z" fill="#3629B7"/>
    <path d="M54.7164 9.20418L43.124 22.3943C43.2525 22.5004 43.3802 22.6062 43.5059 22.7102L55.0877 9.53208C55.178 9.42938 55.1681 9.27243 55.0656 9.18201C54.9634 9.09159 54.8067 9.10148 54.7164 9.20418Z" fill="#5655B9"/>
    <path d="M45.0678 1.33824C42.6034 3.36292 43.8734 6.1437 41.5612 7.04617C39.2497 7.94865 38.1176 10.1183 39.3665 11.9199C40.6162 13.7217 41.6362 14.9777 39.7403 16.8379C37.844 18.6975 37.9146 22.0535 40.1886 22.4363C40.7545 22.5322 41.3674 22.6346 41.9683 22.7342C42.1325 22.7612 42.2961 22.7888 42.4572 22.8154C42.4943 22.8219 42.5318 22.8284 42.5689 22.8342C44.9864 23.2354 47.3528 21.7707 48.0038 19.4048C48.2672 18.447 48.2239 17.4521 47.5272 16.5967C45.3465 13.9173 48.8794 13.7265 49.4139 11.3583C50.0302 8.63036 47.581 7.54398 48.2529 5.5698C49.1867 2.82416 47.5327 -0.686443 45.0678 1.33824Z" fill="#0890FE"/>
    <path d="M45.3808 5.49779L41.9685 22.7338C42.1327 22.7608 42.2962 22.7884 42.4574 22.8151L45.8666 5.59435C45.8932 5.45992 45.8063 5.32924 45.672 5.30263C45.5378 5.27601 45.4073 5.36336 45.3808 5.49779Z" fill="#3629B7"/>
    <path d="M16.0105 48.9048C18.8112 50.4297 18.0853 53.3998 20.5256 53.8512C22.9652 54.3026 24.4843 56.2205 23.5954 58.2251C22.7063 60.23 21.9401 61.6555 24.1511 63.1257C26.3624 64.5953 26.9229 67.9049 24.7612 68.7088C24.2233 68.9094 23.6407 69.1254 23.0691 69.3362C22.913 69.3939 22.7574 69.4516 22.604 69.5079C22.5686 69.5212 22.5332 69.5345 22.4978 69.5471C20.1985 70.3963 17.5998 69.4031 16.5161 67.2017C16.0776 66.3105 15.9335 65.3254 16.4571 64.354C18.0962 61.3119 14.5906 61.7896 13.6213 59.5639C12.5042 57.0008 14.7057 55.4726 13.6755 53.6602C12.2439 51.1397 13.2098 47.38 16.0105 48.9048Z" fill="#3629B7"/>
    <path d="M16.4837 53.0498L23.0694 69.3366C22.9134 69.3943 22.7577 69.4519 22.6044 69.5082L16.0248 53.236C15.9734 53.1091 16.0344 52.9645 16.1611 52.9129C16.2879 52.8617 16.4323 52.9228 16.4837 53.0498Z" fill="#5655B9"/>
    <path d="M8.11397 55.328C11.2738 55.7491 11.6567 58.7827 14.0967 58.3302C16.5359 57.8781 18.6396 59.1252 18.5255 61.3154C18.4107 63.5062 18.2043 65.1119 20.7941 65.693C23.384 66.2734 25.0891 69.1633 23.3574 70.6885C22.9268 71.0686 22.4597 71.4791 22.0011 71.8806C21.8758 71.9902 21.7511 72.0997 21.6284 72.2075C21.6002 72.2328 21.5719 72.2577 21.5433 72.2822C19.6992 73.8985 16.9178 73.9019 15.1197 72.2341C14.392 71.5589 13.9055 70.6905 14.0479 69.596C14.4925 66.1679 11.3893 67.8695 9.68928 66.1383C7.7307 64.1446 9.24128 61.9289 7.6319 60.6054C5.39431 58.7639 4.95415 54.907 8.11397 55.328Z" fill="#0890FE"/>
    <path d="M10.0356 59.0293L22.001 71.8806C21.8756 71.9902 21.7509 72.0997 21.6283 72.2075L9.6738 59.3678C9.58045 59.2678 9.5859 59.1106 9.68572 59.0174C9.78554 58.9239 9.94226 58.9294 10.0356 59.0293Z" fill="#1C47C1"/>
    <path d="M20.9016 22.0637C18.9471 18.1539 17.136 13.9537 16.2632 11.031C15.1233 7.21262 14.9414 4.29741 15.7229 2.3669C15.7747 2.23895 15.9202 2.17719 16.0482 2.22906C16.176 2.28092 16.2377 2.42661 16.1859 2.5549C14.8201 5.92971 16.6489 12.6827 21.4753 22.0988L20.9016 22.0637Z" fill="#1C47C1"/>
    <path d="M15.5303 7.54221C15.5303 7.54221 13.6044 8.34778 12.3228 4.90132C12.3228 4.90132 15.6199 4.50553 15.5303 7.54221Z" fill="#0172D0"/>
    <path d="M16.0992 9.35299C16.0992 9.35299 15.1892 7.47196 18.5535 5.99866C18.5535 5.999 19.1316 9.27384 16.0992 9.35299Z" fill="#0172D0"/>
    <path d="M15.5804 3.9818C15.5804 3.9818 14.096 2.51226 16.7779 0C16.7779 0 18.4128 2.8944 15.5804 3.9818Z" fill="#0172D0"/>
    <path d="M17.1315 13.0318C17.1315 13.0318 15.5913 14.4423 13.2212 11.6332C13.2212 11.6332 16.1902 10.1439 17.1315 13.0318Z" fill="#0172D0"/>
    <path d="M17.9902 14.789C17.9902 14.789 16.7689 13.0939 19.8285 11.06C19.8282 11.06 20.963 14.1854 17.9902 14.789Z" fill="#0172D0"/>
    <path d="M18.9272 17.3119C18.9272 17.3119 17.4139 18.751 14.991 15.9877C14.991 15.9873 17.9314 14.4424 18.9272 17.3119Z" fill="#0172D0"/>
    <path d="M50.3964 16.5011V70.7727C50.3964 72.4739 49.0197 73.8527 47.3211 73.8527H20.3361C19.4827 73.8527 18.711 73.505 18.1537 72.9431C17.6018 72.3859 17.2607 71.6192 17.2607 70.7727V16.5011C17.2607 14.7999 18.6374 13.4211 20.3361 13.4211H47.3211C47.8232 13.4211 48.2971 13.5415 48.7161 13.7555C49.7137 14.2645 50.3964 15.3028 50.3964 16.5011Z" fill="#5655B9"/>
    <path d="M50.3965 16.5011V70.7727C50.3965 72.4739 49.0198 73.8527 47.3212 73.8527H20.3362C19.4828 73.8527 18.7112 73.5051 18.1538 72.9431L48.7163 13.7555C49.7138 14.2646 50.3965 15.3028 50.3965 16.5011Z" fill="#5655B9"/>
    <path d="M17.2612 30.3538H16.7157C16.3955 30.3538 16.1362 30.0938 16.1362 29.7735V23.7646C16.1362 23.4439 16.3958 23.1842 16.7157 23.1842H17.2612V30.3538Z" fill="#5655B9"/>
    <path d="M50.3967 28.4779H50.843C51.105 28.4779 51.3172 28.2654 51.3172 28.003V23.1146C51.3172 22.8522 51.105 22.6396 50.843 22.6396H50.3967V28.4779Z" fill="#343434"/>
    <path d="M17.2612 38.4966H16.7157C16.3955 38.4966 16.1362 38.2366 16.1362 37.9163V31.9074C16.1362 31.5867 16.3958 31.3267 16.7157 31.3267H17.2612V38.4966Z" fill="#5655B9"/>
    <path d="M18.7949 69.1636V18.1102C18.7949 16.3691 20.2043 14.9575 21.9428 14.9575H45.7148C47.4533 14.9575 48.8627 16.3691 48.8627 18.1102V69.164C48.8627 70.9051 47.4533 72.3163 45.7152 72.3163H21.9425C20.204 72.3163 18.7949 70.9048 18.7949 69.1636Z" fill="white"/>
    <path opacity="0.6" d="M43.7775 22.4203H23.8797C23.5785 22.4203 23.3342 22.1756 23.3342 21.874V20.8463C23.3342 20.5447 23.5785 20.3 23.8797 20.3H43.7775C44.0786 20.3 44.3229 20.5447 44.3229 20.8463V21.874C44.3229 22.176 44.0786 22.4203 43.7775 22.4203Z" fill="#D1E3F1"/>
    <path opacity="0.6" d="M30.3051 27.4154H21.1346C20.9159 27.4154 20.7388 27.238 20.7388 27.0189V26.2727C20.7388 26.0536 20.9159 25.8762 21.1346 25.8762H30.3051C30.5238 25.8762 30.701 26.0536 30.701 26.2727V27.0189C30.701 27.238 30.5238 27.4154 30.3051 27.4154Z" fill="#D1E3F1"/>
    <path opacity="0.6" d="M30.3051 30.3692H21.1346C20.9159 30.3692 20.7388 30.1917 20.7388 29.9727V29.2265C20.7388 29.0074 20.9159 28.83 21.1346 28.83H30.3051C30.5238 28.83 30.701 29.0074 30.701 29.2265V29.9727C30.701 30.1914 30.5238 30.3692 30.3051 30.3692Z" fill="#D1E3F1"/>
    <path opacity="0.6" d="M30.3051 33.0735H21.1346C20.9159 33.0735 20.7388 32.8961 20.7388 32.677V31.9308C20.7388 31.7118 20.9159 31.5344 21.1346 31.5344H30.3051C30.5238 31.5344 30.701 31.7118 30.701 31.9308V32.677C30.701 32.8958 30.5238 33.0735 30.3051 33.0735Z" fill="#D1E3F1"/>
    <path d="M36.6064 43.9731H30.7007V69.3165H36.6064V43.9731Z" fill="#FFAF2A"/>
    <path d="M30.7007 62.632C32.7931 61.9848 34.7548 60.8243 36.6064 59.5769V69.3165H30.7007V62.632Z" fill="#FB6B18"/>
    <path d="M26.9536 51.0155H21.0479V69.3168H26.9536V51.0155Z" fill="#FFAF2A"/>
    <path d="M25.8607 63.0613C26.2289 63.1149 26.5931 63.1476 26.9539 63.1616V69.3165H21.0479V63.2193C22.0931 62.8747 23.622 62.7337 25.8607 63.0613Z" fill="#FB6B18"/>
    <path d="M46.259 36.4012H40.3533V69.3165H46.259V36.4012Z" fill="#FFAF2A"/>
    <path d="M46.2592 54.4405V69.3164H40.3535V56.966C42.4525 55.5384 44.4086 54.433 46.2592 54.4405Z" fill="#FB6B18"/>
    <path d="M46.038 26.646L40.6635 27.8003L42.1069 29.218L33.8781 37.6197L30.9905 34.7829L20.0737 45.9292L21.5121 47.3425L31.0181 37.6367L33.9057 40.4735L43.5453 30.6312L44.9884 32.0489L46.038 26.646Z" fill="#3629B7"/>
    <path d="M102.33 43.9837C102.11 43.9691 101.887 43.9674 101.664 43.9858C101.218 44.0243 100.768 44.1359 100.349 44.3311C99.9283 44.5256 99.5426 44.8054 99.2169 45.1421C99.1277 45.2346 99.0435 45.3322 98.9641 45.4328C98.8749 45.397 98.7853 45.3632 98.695 45.3298C98.4705 45.254 98.2436 45.1824 98.0055 45.1332C97.8886 45.1042 97.7666 45.0882 97.6464 45.0674C97.5241 45.0537 97.4021 45.037 97.2778 45.0319C97.2124 45.0275 97.1466 45.0254 97.0805 45.0254C96.6461 45.0206 96.1978 45.0913 95.7747 45.2516C95.5314 45.3438 95.2987 45.4663 95.0824 45.6167C94.9741 45.6918 94.8709 45.7747 94.7714 45.8651C94.722 45.9098 94.6736 45.9583 94.6256 46.0084C94.6017 46.0347 94.5782 46.0596 94.5537 46.0886C94.5418 46.1029 94.5298 46.1169 94.5166 46.1326L94.4968 46.1575L94.4702 46.1923L95.3979 46.8601L95.401 46.8566L95.4163 46.8392C95.4272 46.8273 95.4408 46.813 95.4534 46.8C95.48 46.7734 95.5083 46.7454 95.5389 46.7195C95.5999 46.6666 95.665 46.6154 95.7348 46.569C95.8735 46.4769 96.0254 46.4011 96.1835 46.3408C96.5017 46.222 96.8529 46.178 97.2141 46.1985C97.2853 46.2002 97.3571 46.2087 97.4287 46.2169C97.4484 46.2189 97.4672 46.2213 97.4869 46.223C97.5783 46.2394 97.6696 46.2497 97.7615 46.2725C97.9452 46.3083 98.1288 46.366 98.3114 46.4261C98.3277 46.4322 98.3444 46.438 98.3608 46.4445C98.1949 46.8229 98.077 47.2221 98.0072 47.6318C97.9288 48.0942 97.9125 48.5708 97.9806 49.053C98.017 49.2942 98.0726 49.5371 98.1693 49.7773C98.2167 49.8978 98.2732 50.0168 98.3438 50.1342C98.4139 50.2512 98.495 50.3662 98.5962 50.4734C98.6964 50.5802 98.8139 50.6798 98.9491 50.761C98.9839 50.7801 99.0169 50.8013 99.0537 50.8183C99.0895 50.8347 99.127 50.8528 99.1624 50.8668C99.2271 50.8903 99.2925 50.9125 99.3583 50.9343C99.6254 51.0135 99.9283 51.0428 100.228 50.9855C100.528 50.9299 100.814 50.7873 101.039 50.5918C101.266 50.3969 101.435 50.155 101.551 49.9005C101.784 49.388 101.816 48.8298 101.722 48.3129C101.674 48.0532 101.586 47.8052 101.478 47.5701L101.391 47.3968C101.361 47.3401 101.326 47.2862 101.294 47.2313L101.244 47.1491L101.189 47.0713L101.077 46.916C100.783 46.5462 100.428 46.2394 100.05 45.991C100.022 45.9729 99.995 45.9555 99.9681 45.9388C99.9426 45.9231 99.9177 45.9057 99.8915 45.8904L99.8131 45.8457L99.6554 45.758C99.6482 45.7535 99.6414 45.7498 99.6346 45.746C99.9044 45.3881 100.236 45.0759 100.62 44.8289C100.955 44.6126 101.33 44.4471 101.728 44.3249C101.927 44.2666 102.132 44.2171 102.341 44.1772C102.446 44.1581 102.551 44.138 102.658 44.125C102.764 44.1069 102.871 44.0984 102.98 44.082C102.767 44.0346 102.55 44.0011 102.33 43.9837ZM99.1205 46.7758L99.2455 46.8427L99.3082 46.8764C99.329 46.888 99.3477 46.9013 99.3678 46.9136C99.437 46.9556 99.5048 46.9996 99.5706 47.046C99.8094 47.2115 100.022 47.4032 100.199 47.6168L100.278 47.7219L100.318 47.7741L100.353 47.8291C100.376 47.8656 100.401 47.9014 100.423 47.9386L100.483 48.0525C100.558 48.2061 100.621 48.3651 100.655 48.5285C100.724 48.8527 100.708 49.1928 100.59 49.4713C100.53 49.6084 100.451 49.7306 100.354 49.82C100.258 49.9104 100.148 49.9697 100.027 49.9988C99.9051 50.0278 99.7681 50.0243 99.622 49.9889C99.5855 49.9773 99.5487 49.9663 99.5116 49.9561C99.4844 49.9452 99.4605 49.936 99.435 49.922C99.3845 49.8954 99.3345 49.8578 99.2847 49.8104C99.2357 49.7637 99.1897 49.7036 99.1461 49.6378C99.1025 49.5723 99.0633 49.4989 99.0292 49.4197C98.959 49.2628 98.9079 49.0864 98.8705 48.9038C98.7993 48.5364 98.7904 48.1419 98.8374 47.7537C98.8776 47.4138 98.9587 47.076 99.0793 46.7543C99.0939 46.7611 99.1076 46.7683 99.1205 46.7758Z" fill="#3629B7"/>
    <path d="M97.4285 46.2175C97.3567 46.2094 97.2851 46.2008 97.2139 46.1991C96.8528 46.1783 96.5015 46.2227 96.1834 46.3414C96.0249 46.4018 95.8733 46.4775 95.7347 46.5697C95.6652 46.6161 95.5998 46.6673 95.5388 46.7201C95.5085 46.7464 95.4802 46.774 95.4533 46.8007C95.4407 46.8136 95.427 46.828 95.4161 46.8399L95.4008 46.8573L95.3954 46.8638C95.3954 46.8634 95.3964 46.8621 95.3974 46.8604L94.4697 46.1926L94.4963 46.1578L94.5161 46.1329C94.529 46.1172 94.5409 46.1029 94.5532 46.0889C94.5777 46.0603 94.6012 46.035 94.6251 46.0087C94.6731 45.9586 94.7215 45.9101 94.7709 45.8654C94.8704 45.775 94.9736 45.6921 95.0819 45.617C95.2983 45.4666 95.5313 45.3441 95.7742 45.252C96.1973 45.0919 96.6453 45.021 97.08 45.0257C97.2023 45.3601 97.34 45.7876 97.4285 46.2175Z" fill="#5655B9"/>
    <path d="M100.049 45.9914C99.7414 46.3158 99.6198 46.7457 99.5708 47.0457C99.505 46.9993 99.4369 46.9552 99.3681 46.9133C99.348 46.9013 99.3289 46.8877 99.3084 46.8761L99.2457 46.8423L99.1207 46.7754C99.1078 46.7679 99.0941 46.7608 99.0798 46.7536C99.2696 46.1828 99.6341 45.746 99.6341 45.746C99.6406 45.7498 99.6477 45.7535 99.6549 45.758L99.8126 45.8457L99.891 45.8904C99.9172 45.9057 99.9421 45.9231 99.9676 45.9388C99.9946 45.9562 100.021 45.9736 100.049 45.9914Z" fill="#5655B9"/>
    <path d="M60.2851 66.0556L59.3656 71.0965L58.7619 74.403C55.7285 75.6122 52.8821 73.6203 52.8821 73.6203V63.5348L60.2851 66.0556Z" fill="#5655B9"/>
    <path d="M52.8821 63.5338L60.2854 66.0549L59.3659 71.0958C56.8411 70.2691 54.5787 68.9384 52.8824 67.7524V63.5338H52.8821Z" fill="#3629B7"/>
    <path d="M85.6748 63.5338V73.6193C85.6748 73.6193 82.8284 75.6113 79.7943 74.4021L79.1998 71.1426L78.2715 66.0549L85.6748 63.5338Z" fill="#5655B9"/>
    <path d="M85.6748 63.5338V68.2164C83.8672 69.5959 81.6251 70.5298 79.1998 71.1426L78.2715 66.0549L85.6748 63.5338Z" fill="#3629B7"/>
    <path d="M96.2949 47.4742C96.2949 49.2071 96.07 50.894 95.6438 52.5144C95.6438 52.5144 95.6438 52.5154 95.6428 52.5171C93.0121 62.5235 82.7225 69.9879 70.4277 69.9879C58.5192 69.9879 48.4895 62.9831 45.4827 53.4489C45.1819 52.4977 44.9516 51.5208 44.7959 50.5235C44.6405 49.5261 44.5608 48.508 44.5608 47.4742C44.5608 35.0398 56.1426 24.9594 70.4277 24.9594C74.4474 24.9594 78.2538 25.7578 81.6476 27.182C81.6476 27.182 81.6487 27.183 81.6494 27.183C90.3153 30.8209 96.2949 38.5395 96.2949 47.4742Z" fill="#3629B7"/>
    <path d="M95.6424 52.5175C93.0117 62.5239 82.7221 69.9883 70.4273 69.9883C58.5188 69.9883 48.4891 62.9835 45.4823 53.4493L45.4819 51.0159C45.4819 51.0159 53.5697 66.3381 70.8838 67.0888C88.065 67.8336 95.5293 52.7632 95.6424 52.5175Z" fill="#5655B9"/>
    <path d="M45.4822 41.6575V53.449H40.3651C39.2126 49.4843 39.1918 45.5526 40.3651 41.6575H45.4822Z" fill="#3629B7"/>
    <path d="M40.3651 53.449C39.2126 49.4843 39.1918 45.5526 40.3651 41.6575C40.3651 41.6575 42.2068 47.4742 40.3651 53.449Z" fill="#5655B9"/>
    <path d="M40.5362 47.5783C40.5362 48.662 40.4474 49.5406 40.3382 49.5406C40.2286 49.5406 40.1401 48.662 40.1401 47.5783C40.1401 46.4947 40.2289 45.6161 40.3382 45.6161C40.4474 45.6164 40.5362 46.4947 40.5362 47.5783Z" fill="#0036AC"/>
    <path d="M71.7545 54.7223L71.7565 57.1752L68.6451 57.178L68.643 54.8356C66.4364 54.7049 64.2953 54.1102 62.9707 53.2937L64.6441 49.4911C66.1012 50.3516 68.0434 50.9023 69.7428 50.9009C71.2213 50.8995 71.7504 50.5897 71.75 50.0592C71.7483 48.1143 63.2102 49.6914 63.2051 43.923C63.2027 41.4258 65.0104 39.3247 68.6287 38.8132L68.6267 36.4043L71.7381 36.4016L71.7402 38.7661C73.3734 38.9193 74.9623 39.338 76.2208 40.0439L74.6574 43.8244C73.1342 43.0523 71.6996 42.678 70.3536 42.679C68.8311 42.6804 68.346 43.1229 68.3463 43.6531C68.348 45.5096 76.8862 43.9548 76.8913 49.6565C76.8936 52.0436 75.1742 54.1229 71.7545 54.7223Z" fill="#5655B9"/>
    <path d="M58.9653 27.467C58.9653 27.467 57.6261 29.5875 54.9467 30.6452C54.2701 30.9127 53.5076 31.112 52.6597 31.1925L50.3352 22.8065C50.4153 22.8345 56.4729 24.9332 58.9653 27.467Z" fill="#3629B7"/>
    <path d="M54.9467 30.6452C54.2701 30.9127 53.5076 31.112 52.6597 31.1925L50.3352 22.8065C50.3352 22.8065 50.3352 22.8065 50.3359 22.8069C50.3958 22.8628 54.2735 26.9036 54.9467 30.6452Z" fill="#5655B9"/>
    <path d="M79.2372 27.2223L79.1248 27.8092L78.9303 28.8293C70.5182 26.3918 61.9752 28.5035 61.8897 28.525L61.7187 27.5028L61.6189 26.9084C61.9787 26.8169 70.5284 24.7001 79.2372 27.2223Z" fill="#0036AC"/>
    <path d="M79.1251 27.8092L78.9303 28.83C78.5378 28.7164 78.1443 28.6124 77.7518 28.5175C77.0838 28.3571 76.4177 28.222 75.7582 28.1122C74.8056 27.9518 73.866 27.8399 72.9506 27.7679C72.9009 27.7641 72.8522 27.7604 72.8028 27.7566C72.3926 27.7256 71.9879 27.7031 71.5896 27.6863C71.5746 27.6863 71.5606 27.6853 71.5457 27.6853C71.0857 27.6666 70.634 27.658 70.1938 27.6563H70.0252C69.9979 27.6563 69.9707 27.6563 69.9438 27.6573C68.8713 27.6601 67.8643 27.7089 66.9499 27.7812C66.9161 27.7829 66.8834 27.786 66.8507 27.7897C66.5537 27.8133 66.2682 27.8395 65.9926 27.8675C65.9718 27.8703 65.9524 27.8723 65.9316 27.874C65.6008 27.9088 65.287 27.9453 64.9903 27.9839C64.1641 28.09 63.4756 28.2043 62.9584 28.3019C62.2897 28.4268 61.9081 28.5206 61.8904 28.5254L61.7378 27.6161C61.869 27.5843 62.1115 27.526 62.4536 27.4537H62.4546C62.4948 27.4451 62.537 27.4359 62.58 27.4264C63.0286 27.3335 63.6245 27.2199 64.342 27.1084C65.085 26.9941 65.9588 26.8804 66.9332 26.7958C66.9529 26.7938 66.9717 26.7921 66.9911 26.79H66.9921C67.0841 26.7825 67.1774 26.774 67.2722 26.7675C67.4568 26.7525 67.6459 26.7385 67.838 26.7262C67.869 26.7245 67.8997 26.7225 67.9307 26.7207C67.9552 26.7187 67.9794 26.718 68.0046 26.716C68.902 26.6614 69.8678 26.6344 70.8823 26.6501C70.9627 26.6511 71.0445 26.6522 71.1259 26.6539C71.5017 26.6624 71.884 26.6764 72.2716 26.6969C72.506 26.7092 72.7418 26.7242 72.9799 26.7419C73.2123 26.7586 73.4456 26.7784 73.6817 26.802C73.7321 26.8057 73.7839 26.8112 73.8354 26.817C74.6952 26.9012 75.5769 27.0234 76.4688 27.1885C77.0851 27.3022 77.7072 27.4373 78.332 27.5956C78.5957 27.6628 78.8601 27.7331 79.1251 27.8092Z" fill="#1C47C1"/>
    <path d="M78.3319 27.5962C78.3254 27.6085 78.3179 27.6215 78.3104 27.6338C78.1428 27.9395 77.9554 28.2343 77.7521 28.5175C77.084 28.3571 76.4179 28.222 75.7584 28.1121C74.8058 27.9517 73.8662 27.8398 72.9508 27.7678C72.9011 27.7641 72.8524 27.7603 72.803 27.7566C72.3928 27.7255 71.9881 27.703 71.5898 27.6863C71.5748 27.6863 71.5609 27.6853 71.5459 27.6853C71.086 27.6665 70.6342 27.658 70.194 27.6563H70.0254C69.9982 27.6563 69.9709 27.6563 69.944 27.6573C68.8715 27.66 67.8645 27.7088 66.9501 27.7811C66.9164 27.7829 66.8837 27.7859 66.8509 27.7897C66.5539 27.8132 66.2684 27.8395 65.9928 27.8675C65.972 27.8702 65.9526 27.8722 65.9318 27.874C65.601 27.9088 65.2872 27.9453 64.9905 27.9838C64.1643 28.0899 63.4758 28.2042 62.9587 28.3018C62.79 28.0504 62.6343 27.7914 62.4902 27.5232V27.5222C62.479 27.5014 62.4677 27.4809 62.4575 27.4594C62.4565 27.4577 62.4558 27.4556 62.4548 27.4539H62.4538C62.4528 27.4529 62.4528 27.4519 62.4521 27.4512C62.4211 27.3922 62.3911 27.3328 62.3611 27.2728C62.3519 27.254 62.3424 27.2352 62.3332 27.2165C62.3012 27.1506 62.2705 27.0841 62.2405 27.0175C61.7636 25.9724 61.4798 24.8165 61.4358 23.5967C61.4321 23.4851 61.4304 23.3735 61.4311 23.2616C61.4331 18.4343 65.2532 14.4385 70.1096 14.2642C71.305 14.2219 72.4534 14.4143 73.5119 14.8009C73.5746 14.8244 73.6373 14.848 73.6993 14.8722C73.7106 14.8759 73.7218 14.8807 73.732 14.8852C73.792 14.9087 73.8519 14.9329 73.9109 14.9585C73.9466 14.9725 73.9804 14.9875 74.0148 15.0025C74.0175 15.0036 74.0206 15.0053 74.0233 15.0063C74.0533 15.0186 74.0843 15.0315 74.1143 15.0459C74.9772 15.4341 75.7686 15.9541 76.4619 16.5816C76.6155 16.7194 76.7634 16.8631 76.9068 17.0112C77.4165 17.5394 77.8624 18.1296 78.2314 18.7704C78.6126 19.432 78.9124 20.1468 79.1175 20.9022C79.2674 21.4539 79.3659 22.0272 79.4078 22.6174C79.417 22.729 79.4228 22.8409 79.4275 22.9525C79.4868 24.6322 79.0841 26.2215 78.3319 27.5962Z" fill="#FFAF2A"/>
    <path opacity="0.5" d="M79.1169 20.9019L77.59 22.5598L77.53 22.6256L73.6817 26.8026L72.8031 27.7566C72.3929 27.7255 71.9882 27.703 71.5899 27.6863C71.5749 27.6863 71.561 27.6853 71.546 27.6853C71.0861 27.6665 70.6343 27.658 70.1941 27.6563H70.0255C69.9983 27.6563 69.971 27.6563 69.9441 27.6573L70.0228 27.573L70.065 27.528L70.883 26.6508L73.6589 23.6738L73.7618 23.5629L76.7192 20.3918L76.9243 20.1714L78.2312 18.7708C78.612 19.4317 78.9118 20.1465 79.1169 20.9019Z" fill="white"/>
    <path opacity="0.5" d="M74.1133 15.0459L62.489 27.5225C62.4004 27.3574 62.3169 27.1892 62.2393 27.0179L73.5107 14.8005C73.7151 14.8753 73.9161 14.9568 74.1133 15.0459Z" fill="white"/>
    <path opacity="0.5" d="M76.906 17.0109L75.6731 18.3443L75.3669 18.6756L73.1299 21.0964L72.7841 21.4707L72.714 21.5468L72.4666 21.8133L71.9927 22.3264L71.7004 22.6427L70.3364 24.1184L70.0274 24.4524L69.499 25.0239L69.2029 25.3447L67.9506 26.6996L67.9308 26.7211L67.691 26.979L66.95 27.7812C66.9163 27.7829 66.8836 27.786 66.8508 27.7897C66.5538 27.8133 66.2683 27.8395 65.9927 27.8675L66.9912 26.7903H66.9922L67.3183 26.4386L67.4682 26.2772L68.5314 25.1307L68.7927 24.8493L69.2976 24.305L69.5937 23.985L70.9615 22.511L71.2725 22.176L71.8064 21.599L72.0847 21.2998L73.2996 19.9899L73.3613 19.9234L74.8957 18.2692L75.2292 17.9099L76.4611 16.5813C76.6148 16.7191 76.7626 16.8628 76.906 17.0109Z" fill="white"/>
    <path d="M77.6257 23.347C77.6117 24.7561 77.19 26.0762 76.4687 27.1889C76.2572 27.5154 76.019 27.8242 75.7588 28.1122C74.8062 27.9518 73.8666 27.8399 72.9512 27.7679C72.9015 27.7641 72.8528 27.7604 72.8034 27.7566C72.3932 27.7256 71.9885 27.7031 71.5902 27.6864C71.5752 27.6864 71.5612 27.6853 71.5462 27.6853C71.0863 27.6666 70.6346 27.658 70.1944 27.6563H70.0258C69.9985 27.6563 69.9713 27.6563 69.9444 27.6574C68.8719 27.6601 67.8649 27.7089 66.9505 27.7812C66.9167 27.7829 66.884 27.786 66.8513 27.7897C66.5543 27.8133 66.2688 27.8396 65.9932 27.8675C65.9724 27.8703 65.953 27.8723 65.9322 27.874C65.6014 27.9088 65.2876 27.9453 64.9909 27.9839C64.9469 27.9341 64.9047 27.8836 64.8635 27.8327C64.8345 27.7979 64.8062 27.7624 64.7783 27.7266C64.7766 27.7246 64.7745 27.7229 64.7735 27.7201C64.7425 27.6806 64.7115 27.6413 64.6819 27.6011C64.6761 27.5946 64.6717 27.5881 64.6669 27.5813C64.6379 27.5427 64.6096 27.5035 64.5817 27.4639C64.5228 27.3823 64.4655 27.2998 64.4114 27.2152C64.3879 27.1793 64.3654 27.1438 64.3429 27.108C64.3337 27.0951 64.3252 27.0807 64.3167 27.0667C64.2969 27.035 64.2775 27.0019 64.2584 26.9702C64.1208 26.7423 63.9971 26.5058 63.8857 26.2629C63.8649 26.2168 63.8445 26.1707 63.8247 26.125C63.821 26.1175 63.8182 26.109 63.8145 26.1015C63.7985 26.0639 63.7828 26.0254 63.7678 25.9879C63.7576 25.9636 63.747 25.9391 63.7378 25.9138C63.7201 25.8698 63.7031 25.8248 63.6864 25.7797C63.6666 25.7292 63.6489 25.6774 63.6312 25.6269C63.622 25.5986 63.6125 25.5706 63.6023 25.5423C63.5985 25.532 63.5958 25.5214 63.5927 25.5112C63.59 25.501 63.5862 25.4914 63.5835 25.4812C63.5638 25.4194 63.544 25.3573 63.5263 25.2945C63.5246 25.2898 63.5236 25.2853 63.5215 25.2806C63.5028 25.2178 63.4861 25.154 63.469 25.0891C63.4588 25.0499 63.4483 25.0093 63.4391 24.969C63.4183 24.8865 63.3995 24.8029 63.3829 24.7186C63.3764 24.6886 63.3706 24.6575 63.3651 24.6265C63.3566 24.5869 63.3502 24.5477 63.3427 24.5074C63.3389 24.4849 63.3352 24.4624 63.3324 24.4398C63.326 24.4044 63.3202 24.3696 63.3157 24.3337C63.311 24.3057 63.3072 24.2764 63.3035 24.2474C63.295 24.1894 63.2875 24.13 63.282 24.071C63.2735 24.0017 63.267 23.9321 63.2612 23.8618C63.2527 23.753 63.2462 23.6421 63.2425 23.5316C63.1001 19.561 66.2102 16.2152 70.1747 16.0726C70.8557 16.0484 71.519 16.1204 72.1503 16.2763C72.3676 16.3299 72.5812 16.3937 72.7901 16.4667H72.7911C73.6997 16.783 74.5262 17.2774 75.2304 17.9096C75.385 18.0485 75.5329 18.1928 75.6743 18.344C76.1792 18.8817 76.6026 19.4972 76.9249 20.1707C77.2762 20.9053 77.5075 21.7096 77.591 22.5595C77.6059 22.7106 77.6162 22.8625 77.622 23.0164C77.6247 23.1272 77.6257 23.2371 77.6257 23.347Z" fill="#FA8A00"/>
    <path d="M77.6258 23.347C77.6119 24.7561 77.1901 26.0762 76.4689 27.1889C76.2573 27.5154 76.0192 27.8242 75.7589 28.1122C74.8064 27.9518 73.8668 27.8399 72.9514 27.7679C72.9016 27.7641 72.8529 27.7604 72.8035 27.7566C72.3933 27.7256 71.9886 27.7031 71.5903 27.6863C71.5754 27.6863 71.5614 27.6853 71.5464 27.6853C71.0865 27.6665 70.6347 27.658 70.1946 27.6563H70.0259C69.9987 27.6563 69.9714 27.6563 69.9445 27.6573C68.8721 27.6601 67.865 27.7089 66.9506 27.7812C66.9169 27.7829 66.8842 27.786 66.8515 27.7897C66.5544 27.8133 66.2689 27.8395 65.9933 27.8675C65.9725 27.8702 65.9531 27.8723 65.9323 27.874C65.6015 27.9088 65.2877 27.9453 64.991 27.9839C64.9471 27.934 64.9048 27.8835 64.8636 27.8327C64.8346 27.7979 64.8064 27.7624 64.7784 27.7266C64.7767 27.7245 64.7747 27.7228 64.7737 27.7201C64.7427 27.6805 64.7117 27.6413 64.682 27.601C64.6762 27.5946 64.6718 27.5881 64.667 27.5812C64.6381 27.5427 64.6098 27.5035 64.5819 27.4639C64.5229 27.3823 64.4657 27.2998 64.4115 27.2151C64.388 27.1793 64.3655 27.1438 64.343 27.108C64.3338 27.095 64.3253 27.0807 64.3168 27.0667C64.297 27.035 64.2776 27.0019 64.2585 26.9702C64.1209 26.7422 63.9972 26.5058 63.8858 26.2628C63.8651 26.2168 63.8446 26.1707 63.8249 26.125C63.8211 26.1175 63.8184 26.109 63.8146 26.1015C63.7986 26.0639 63.783 26.0254 63.768 25.9878C63.7577 25.9636 63.7472 25.939 63.738 25.9138C63.7203 25.8698 63.7032 25.8247 63.6865 25.7797C63.6668 25.7292 63.6491 25.6773 63.6314 25.6269C63.6222 25.5978 63.6116 25.5695 63.6034 25.5405C63.5997 25.5313 63.5969 25.5207 63.5932 25.5115C63.5905 25.5013 63.5867 25.4917 63.584 25.4815C63.5642 25.4197 63.5445 25.3576 63.5268 25.2949C63.5251 25.2901 63.524 25.2857 63.522 25.2809C63.5033 25.2181 63.4866 25.1543 63.4695 25.0895C63.4593 25.0502 63.4488 25.0096 63.4396 24.9694C63.4188 24.8868 63.4 24.8032 63.3833 24.7189C63.3769 24.6889 63.3711 24.6578 63.3656 24.6268C63.3571 24.5872 63.3506 24.548 63.3431 24.5077C63.3394 24.4852 63.3356 24.4627 63.3329 24.4402C63.3264 24.4047 63.3207 24.3699 63.3162 24.334C63.3115 24.3061 63.3077 24.2767 63.304 24.2477C63.2954 24.1897 63.288 24.1303 63.2825 24.0713C63.274 24.0021 63.2675 23.9325 63.2617 23.8622C63.2992 20.038 66.3449 16.8713 70.1987 16.7335C70.6869 16.7157 71.1645 16.7485 71.6302 16.8246C71.635 16.8256 71.6387 16.8266 71.6432 16.8273C71.6977 16.8365 71.7518 16.8461 71.8063 16.8563C71.8653 16.8676 71.9242 16.8799 71.9825 16.8928C72.0959 16.9164 72.2073 16.9433 72.3187 16.9733H72.3197C72.3235 16.9744 72.3255 16.9754 72.3289 16.9761C73.2658 17.2292 74.1284 17.6684 74.8762 18.2522C74.8837 18.258 74.8902 18.2634 74.8977 18.2689C75.0513 18.3907 75.2002 18.5183 75.3446 18.6517C75.3532 18.6592 75.3607 18.6667 75.3692 18.6752C75.9013 19.1734 76.3585 19.7514 76.721 20.3911C76.75 20.4416 76.7782 20.4935 76.8051 20.545C77.1479 21.1868 77.3962 21.8849 77.5322 22.625C77.5434 22.686 77.5536 22.7468 77.5632 22.8079C77.5901 22.9856 77.6115 23.1658 77.6258 23.347Z" fill="#FB6B18"/>
    <path opacity="0.5" d="M77.5605 22.8082L73.8348 26.8173L72.9504 27.7679C72.9007 27.7641 72.8519 27.7604 72.8025 27.7566C72.3924 27.7256 71.9876 27.703 71.5894 27.6863C71.5744 27.6863 71.5604 27.6853 71.5454 27.6853C71.0855 27.6665 70.6338 27.658 70.1936 27.6563L71.1257 26.6542L73.7534 23.8263L73.83 23.7438L76.8025 20.5453C77.1452 21.1871 77.3936 21.8852 77.5295 22.6253C77.5407 22.6864 77.5509 22.7475 77.5605 22.8082Z" fill="#FFCE4F"/>
    <path opacity="0.5" d="M72.3272 16.977L63.8234 26.1249C63.7325 25.9158 63.6514 25.7005 63.5815 25.4818L71.6277 16.8252C71.8642 16.8638 72.0982 16.9149 72.3272 16.977Z" fill="#FFCE4F"/>
    <path opacity="0.5" d="M75.3425 18.652L73.169 20.9909L72.8242 21.3605L72.6706 21.5266L72.4215 21.7948L71.9401 22.3127L71.6441 22.6307L70.2725 24.1064L69.9625 24.4405L69.4324 25.011L69.1384 25.3272L67.885 26.6764L67.8383 26.7262L67.6275 26.9524L66.851 27.7893C66.554 27.8129 66.2685 27.8392 65.9929 27.8671C65.9721 27.8699 65.9527 27.8719 65.9319 27.8736L66.9335 26.7954L67.283 26.4191L67.5079 26.1779L68.4952 25.1147L68.7554 24.8352L69.2586 24.2937L69.5537 23.9764L70.9225 22.5035L71.2346 22.1684L71.7722 21.5894L72.0522 21.2881L73.2719 19.9755L73.3891 19.85L74.8748 18.2511C74.8823 18.2569 74.8887 18.2624 74.8962 18.2678C75.0495 18.391 75.1984 18.5186 75.3425 18.652Z" fill="#FFCE4F"/>
    <path d="M73.996 24.7661C73.9895 24.5924 73.968 24.4331 73.9323 24.2867V24.2857C73.89 24.1158 73.8301 23.964 73.7534 23.8268C73.7251 23.7732 73.6934 23.7227 73.6577 23.6739C73.2287 23.0567 72.451 22.7967 71.6998 22.6428C71.681 22.6391 71.6623 22.6353 71.6436 22.6316C71.4085 22.5848 71.1772 22.5473 70.9605 22.5115C70.9476 22.5094 70.9343 22.5077 70.9213 22.505C70.2526 22.3961 69.7371 22.3006 69.7259 21.9833C69.7231 21.9168 69.7371 21.8519 69.7719 21.7929C69.8703 21.622 70.1381 21.4937 70.688 21.4749C71.0344 21.4626 71.3962 21.5001 71.771 21.5912C71.7822 21.594 71.7935 21.5971 71.8057 21.5998C72.0071 21.6503 72.2122 21.7151 72.4213 21.796C72.4363 21.8018 72.4513 21.8083 72.4663 21.8137C72.5787 21.8577 72.6922 21.9065 72.8073 21.9601L73.1296 21.0969L73.1688 20.9918L73.505 20.0893C73.4478 20.0603 73.3906 20.032 73.3306 20.005C73.3204 20.0002 73.3102 19.9955 73.2989 19.991C73.2897 19.9873 73.2802 19.9825 73.2707 19.9781C72.6888 19.7256 72.0003 19.584 71.2978 19.5427L71.2838 19.1496L71.2565 18.3898L71.2126 18.3918L71.0065 18.3993H70.9898L70.1643 18.4294L70.1364 18.4304L69.7392 18.4444L69.7531 18.8422V18.8432L69.7541 18.8733V18.8743L69.7814 19.6191C69.4162 19.6839 69.0891 19.7815 68.8023 19.9061L68.8013 19.9071H68.8002C68.7788 19.9146 68.759 19.9238 68.7386 19.9344C67.9714 20.2834 67.4975 20.8314 67.3108 21.4701C67.3043 21.4937 67.2975 21.5169 67.292 21.5414V21.5425C67.2375 21.7543 67.2144 21.9758 67.2225 22.204C67.2236 22.2313 67.2246 22.2576 67.2273 22.2839C67.23 22.3327 67.2338 22.3787 67.2396 22.4245V22.4255C67.2406 22.433 67.2413 22.4405 67.2423 22.448C67.3939 23.6142 68.3114 24.0619 69.2574 24.2963C69.2704 24.3 69.2837 24.3038 69.2966 24.3065C69.5204 24.3611 69.7453 24.4041 69.9616 24.4427C69.9831 24.4464 70.0045 24.4502 70.0263 24.4539C70.6382 24.56 71.1683 24.6341 71.3874 24.833C71.4531 24.893 71.4913 24.9644 71.4943 25.0517C71.5035 25.3096 71.2508 25.47 70.5302 25.4963C70.105 25.5113 69.6458 25.457 69.2019 25.3462C69.1804 25.3414 69.159 25.3359 69.1372 25.3294C68.929 25.2759 68.7249 25.2093 68.5301 25.1326C68.5178 25.1278 68.5055 25.1234 68.4936 25.1176C68.3277 25.051 68.1686 24.977 68.0197 24.8951L67.5063 26.1804L67.4668 26.279L67.3881 26.4759L67.2709 26.7696L67.2672 26.7789C67.3769 26.841 67.4968 26.9 67.6259 26.9542C67.6467 26.9634 67.6682 26.972 67.6896 26.9805C68.3229 27.2385 69.1603 27.4063 70.0158 27.4319C70.0308 27.4329 70.0447 27.4336 70.0597 27.4336L70.0635 27.5292L70.0683 27.6578H70.1929C70.6331 27.6598 71.0848 27.668 71.5448 27.6868C71.5598 27.6868 71.5737 27.6878 71.5887 27.6878L71.5758 27.3258C72.1433 27.2057 72.6108 27.004 72.979 26.7441C73.6849 26.2445 74.0232 25.5314 73.996 24.7661Z" fill="#FA8A00"/>
    <path d="M73.9323 24.286V24.2849C73.9193 24.085 73.8846 23.9059 73.8301 23.7435C73.8103 23.6807 73.7871 23.6206 73.7606 23.5623C73.441 22.8481 72.732 22.5172 71.9917 22.3258C71.974 22.321 71.957 22.3166 71.9393 22.3128C71.7154 22.2575 71.4886 22.2135 71.2712 22.176C71.2583 22.1739 71.245 22.1712 71.2327 22.1695C70.5769 22.0579 69.9991 21.9931 69.7712 21.7925C69.7065 21.7362 69.67 21.6686 69.6673 21.5871C69.6581 21.3281 69.8863 21.1039 70.6294 21.0777C71.0801 21.0616 71.5529 21.1312 72.0503 21.2895C72.0616 21.2923 72.0718 21.296 72.083 21.2998C72.2752 21.3626 72.4701 21.4376 72.6694 21.527C72.6833 21.5335 72.6976 21.54 72.7126 21.5468C72.7249 21.5516 72.7361 21.557 72.7481 21.5628L72.7828 21.4707L72.823 21.3609L73.3299 20.0042L73.3599 19.9234L73.3872 19.851L73.4461 19.6924C72.8315 19.3744 72.067 19.199 71.2831 19.1482C71.2681 19.1471 71.2542 19.1461 71.2392 19.1454L71.2119 18.39L71.2044 18.1836V18.1669L71.198 17.9922L70.5432 18.0157L70.519 18.0168L69.6806 18.0468L69.7105 18.8865L69.7116 18.9175L69.7228 19.2215C69.5974 19.244 69.4755 19.2703 69.3593 19.3003H69.3583C69.3443 19.3031 69.33 19.3068 69.316 19.3116H69.315C67.9155 19.6821 67.2035 20.5809 67.1643 21.6253V21.6263C67.1633 21.644 67.1633 21.6611 67.1633 21.6799C67.1622 21.7222 67.1622 21.7645 67.1643 21.8065C67.1708 21.9791 67.1915 22.1367 67.227 22.2821C67.2362 22.3234 67.2467 22.3626 67.259 22.4022V22.4032C67.2607 22.4097 67.2627 22.4145 67.2655 22.421V22.422C67.585 23.4418 68.6023 23.7851 69.5521 23.9775C69.5661 23.9802 69.5794 23.9833 69.5923 23.985C69.8274 24.0318 70.058 24.0703 70.2716 24.1068C70.2931 24.1106 70.3146 24.1143 70.3353 24.1181C70.9574 24.228 71.4248 24.3368 71.4361 24.6528C71.4388 24.7183 71.4238 24.7783 71.3874 24.8309C71.2862 24.9847 71.0089 25.0786 70.4713 25.0973C70.1582 25.1086 69.8277 25.0823 69.498 25.0233C69.4755 25.0195 69.453 25.0158 69.4315 25.011C69.2152 24.9697 69.0006 24.9151 68.7917 24.8486C68.7795 24.8438 68.7665 24.8401 68.7542 24.8356C68.4722 24.7435 68.2034 24.6292 67.9608 24.4968L67.2096 26.3799C67.2331 26.3929 67.2573 26.4062 67.2818 26.4191C67.2931 26.4256 67.3053 26.4321 67.3176 26.4379C67.3411 26.4502 67.3643 26.4621 67.3888 26.4734C67.5397 26.5474 67.7053 26.615 67.8845 26.6761C67.906 26.6836 67.9278 26.6911 67.9502 26.6986C67.968 26.704 67.9857 26.7098 68.0048 26.7153C68.5883 26.9009 69.2901 27.0183 70.0028 27.0353L70.0168 27.4294L70.0223 27.5721L70.025 27.6557H70.1936C70.6338 27.6577 71.0855 27.6659 71.5454 27.6847L71.5182 26.9265C71.7928 26.8682 72.0439 26.7914 72.2714 26.6965C73.4182 26.2264 73.9728 25.3399 73.937 24.3689C73.936 24.3416 73.934 24.3133 73.9323 24.286Z" fill="#FFAF2A"/>
    <path d="M103.15 72.6442C103.15 72.6527 103.15 72.6606 103.15 72.6691C103.15 72.9759 102.987 73.2706 102.686 73.5457C102.612 73.6132 102.53 73.6791 102.441 73.7435C102.19 73.9247 101.878 74.0953 101.513 74.254C101.434 74.2884 101.353 74.3219 101.268 74.355C100.985 74.4666 100.675 74.571 100.341 74.6675C100.261 74.6907 100.179 74.7136 100.096 74.7358C99.8032 74.8142 99.4935 74.8869 99.1685 74.9531C99.0878 74.9698 99.0063 74.9859 98.9235 75.0012C98.6258 75.0579 98.3161 75.1087 97.9962 75.1541C97.9151 75.1657 97.8337 75.1766 97.7513 75.1875C97.4501 75.2267 97.1408 75.2609 96.8239 75.2902C96.7428 75.2974 96.6611 75.3045 96.579 75.3114C96.2761 75.3363 95.9664 75.3561 95.6516 75.3711C95.5706 75.3748 95.4888 75.3786 95.4067 75.3816C95.1021 75.3932 94.7928 75.4001 94.4794 75.4018C94.4252 75.4021 94.37 75.4021 94.3155 75.4021C94.2886 75.4021 94.2613 75.4021 94.2344 75.4018C93.921 75.4011 93.6116 75.3953 93.3067 75.3844C93.2246 75.3817 93.1432 75.3782 93.0618 75.3748C92.8298 75.3646 92.6008 75.3513 92.375 75.3359C92.2942 75.3305 92.2142 75.3243 92.1345 75.3182C92.0524 75.3117 91.9709 75.3049 91.8895 75.2977C91.5727 75.2701 91.2633 75.2366 90.9622 75.1984C90.8797 75.1879 90.7983 75.1773 90.7172 75.166C90.5254 75.1397 90.3374 75.1111 90.1531 75.0807C90.0304 75.0602 89.9095 75.0391 89.7899 75.0172C89.7074 75.0019 89.6257 74.9862 89.5449 74.9702C89.2206 74.9057 88.9106 74.8347 88.6173 74.7583C88.5593 74.7433 88.5021 74.7276 88.4452 74.7122C88.4207 74.7054 88.3965 74.6986 88.3723 74.6918C88.2398 74.6546 88.1107 74.616 87.9856 74.5761C87.7962 74.5157 87.616 74.4529 87.445 74.3877C87.3612 74.3553 87.2794 74.3229 87.2 74.2898C86.8873 74.1585 86.6113 74.0182 86.3776 73.8705C86.3419 73.848 86.3064 73.8248 86.2727 73.8019C86.2301 73.7732 86.1892 73.7442 86.1504 73.7149C86.1075 73.6832 86.0669 73.6507 86.0281 73.6183C85.6745 73.3232 85.481 73.0035 85.481 72.6701C85.481 72.6466 85.482 72.6234 85.4844 72.5998L85.4854 70.7113L86.0281 70.7106L86.273 70.7103L87.2004 70.7089L87.4453 70.7086L88.1693 70.7076L88.373 70.7072L88.6179 70.7069L89.5456 70.7055L89.7906 70.7052L90.7179 70.7038L90.9629 70.7035L91.8902 70.7018L92.1351 70.7014L93.0625 70.7001L93.3074 70.6997L94.2351 70.6983L94.48 70.698L95.4074 70.6966L95.6523 70.6963L96.5797 70.6946L96.8246 70.6943L97.7519 70.6929L97.9969 70.6925L98.9242 70.6912L99.1692 70.6908L100.097 70.6895L100.342 70.6891H100.402L101.269 70.6878L101.514 70.6874L102.441 70.6857L102.686 70.6854L103.148 70.6847L103.15 72.6442Z" fill="#FFAC00"/>
    <path d="M86.2729 70.7086V73.8005C86.2303 73.7718 86.1895 73.7429 86.1507 73.7135C86.1078 73.6818 86.0674 73.6494 86.0286 73.6169V70.7092L86.2729 70.7086Z" fill="#FA8A00"/>
    <path d="M87.4458 70.7072V74.387C87.3621 74.3546 87.2804 74.3222 87.2012 74.2891V70.7078L87.4458 70.7072Z" fill="#FA8A00"/>
    <path d="M88.6184 70.7054V74.7572C88.5606 74.7422 88.5034 74.7265 88.4466 74.7111C88.4221 74.7043 88.3979 74.6975 88.3738 74.6907V70.7058L88.6184 70.7054Z" fill="#FA8A00"/>
    <path d="M89.7908 70.7037V75.0162C89.7084 75.0008 89.6268 74.9851 89.5461 74.9691V70.7041L89.7908 70.7037Z" fill="#FA8A00"/>
    <path d="M90.9631 70.702V75.198C90.8808 75.1874 90.7995 75.1769 90.7185 75.1656V70.7027L90.9631 70.702Z" fill="#FA8A00"/>
    <path d="M92.1353 70.7003V75.3178C92.0533 75.3113 91.9719 75.3045 91.8906 75.2973V70.7007L92.1353 70.7003Z" fill="#FA8A00"/>
    <path d="M93.3071 70.6986V75.3843C93.2251 75.3816 93.1438 75.3782 93.0625 75.3747V70.6993L93.3071 70.6986Z" fill="#FA8A00"/>
    <path d="M94.4795 70.6966V75.4011C94.4254 75.4014 94.3703 75.4014 94.3158 75.4014C94.289 75.4014 94.2617 75.4014 94.2349 75.4011V70.6966H94.4795Z" fill="#FA8A00"/>
    <path d="M95.6521 70.6952V75.3707C95.5711 75.3744 95.4895 75.3782 95.4075 75.3812V70.6955L95.6521 70.6952Z" fill="#FA8A00"/>
    <path d="M96.824 70.6935V75.2902C96.743 75.2974 96.6613 75.3045 96.5793 75.3113V70.6939L96.824 70.6935Z" fill="#FA8A00"/>
    <path d="M97.9963 70.6918V75.154C97.9154 75.1656 97.834 75.1766 97.7517 75.1875V70.6918H97.9963Z" fill="#FA8A00"/>
    <path d="M99.1687 70.6898V74.9528C99.0881 74.9695 99.0068 74.9855 98.9241 75.0009V70.6902L99.1687 70.6898Z" fill="#FA8A00"/>
    <path d="M100.341 70.6881V74.6675C100.261 74.6907 100.179 74.7136 100.096 74.7358V70.6888L100.341 70.6881Z" fill="#FA8A00"/>
    <path d="M101.513 70.6867V74.2539C101.434 74.2884 101.353 74.3219 101.269 74.3549V70.6867H101.513Z" fill="#FA8A00"/>
    <path d="M102.685 70.6847V73.5453C102.612 73.6129 102.53 73.6787 102.441 73.7432V70.6847H102.685Z" fill="#FA8A00"/>
    <path d="M103.148 70.7079C103.148 72.0949 99.1944 73.2198 94.3165 73.2198C93.6501 73.2198 93.0008 73.199 92.3767 73.1591C91.5917 73.1093 90.8463 73.0294 90.1558 72.9243C89.5391 72.8305 88.9664 72.7165 88.4486 72.5855C88.2902 72.5456 88.1369 72.5036 87.9894 72.4606C87.34 72.2709 86.7953 72.0522 86.3817 71.812C86.3006 71.7649 86.2246 71.7175 86.1545 71.669C85.7232 71.3732 85.4854 71.0487 85.4854 70.7086C85.4854 70.6775 85.4877 70.6465 85.4925 70.6154C85.6639 69.2714 89.549 68.1967 94.3165 68.1967C95.4898 68.1967 96.6093 68.2618 97.6334 68.3799C97.8313 68.4027 98.0255 68.4273 98.2159 68.4543C99.0479 68.571 99.8052 68.7235 100.464 68.9053C100.609 68.9452 100.749 68.9869 100.884 69.0295C101.366 69.1817 101.782 69.3503 102.122 69.5328C102.472 69.7208 102.742 69.9228 102.916 70.135C103.043 70.2903 103.12 70.4506 103.141 70.6154C103.146 70.6458 103.148 70.6768 103.148 70.7079Z" fill="#FFCE4F"/>
    <path opacity="0.3" d="M102.916 70.1343L92.3767 73.1591C91.5917 73.1092 90.8463 73.0294 90.1558 72.9243L102.122 69.5321C102.472 69.7198 102.742 69.9217 102.916 70.1343Z" fill="white"/>
    <path opacity="0.3" d="M98.2153 68.4531L86.381 71.8112C86.3 71.7641 86.224 71.7166 86.1538 71.6682L97.6327 68.379C97.8303 68.4015 98.0248 68.4265 98.2153 68.4531Z" fill="white"/>
    <path opacity="0.3" d="M100.884 69.0296L88.4485 72.5859C88.2901 72.546 88.1368 72.504 87.9893 72.461L100.464 68.9054C100.609 68.9453 100.749 68.9866 100.884 69.0296Z" fill="white"/>
    <path d="M101.375 70.7084C101.375 70.7391 101.372 70.7702 101.369 70.8006C101.198 71.8651 98.1008 72.716 94.3169 72.716C90.5329 72.716 87.4358 71.8651 87.2651 70.8006C87.261 70.7698 87.2583 70.7391 87.2583 70.7084C87.2583 69.6016 90.4246 68.7008 94.3169 68.7008C98.2092 68.7008 101.375 69.6016 101.375 70.7084Z" fill="#FA8A00"/>
    <path d="M101.369 70.8007C101.198 71.8652 98.1009 72.7162 94.3169 72.7162C94.2321 72.7162 94.1486 72.7155 94.0648 72.7148C93.221 72.7063 92.4142 72.6558 91.6699 72.5698C90.9251 72.4838 90.2438 72.3627 89.651 72.2139C89.5004 72.1761 89.3556 72.1365 89.2156 72.0952C88.5833 71.9069 88.077 71.6837 87.7394 71.4367C87.6577 71.3777 87.5858 71.3169 87.5248 71.2552C87.379 71.1098 87.2914 70.9576 87.2659 70.801C87.4362 69.7365 90.5337 68.8852 94.3176 68.8852C94.7963 68.8852 95.264 68.8988 95.7171 68.9251C95.9478 68.9381 96.175 68.9548 96.3978 68.9746C97.3068 69.0544 98.138 69.1851 98.85 69.3554C99.0037 69.3922 99.1526 69.4308 99.2953 69.4714C99.8499 69.6283 100.314 69.8112 100.661 70.0132C101 70.2101 101.229 70.4247 101.325 70.6509C101.346 70.6997 101.361 70.7502 101.369 70.8007Z" fill="#FFAC00"/>
    <path opacity="0.2" d="M101.324 70.6495L94.0649 72.7141C93.221 72.7056 92.4143 72.6551 91.6699 72.5691L100.661 70.0118C100.999 70.2087 101.228 70.4233 101.324 70.6495Z" fill="white"/>
    <path opacity="0.2" d="M96.3971 68.9743L87.739 71.4364C87.6573 71.3774 87.5854 71.3166 87.5244 71.2549L95.7164 68.9248C95.9467 68.9381 96.1743 68.9545 96.3971 68.9743Z" fill="white"/>
    <path opacity="0.2" d="M99.2944 69.47L89.6507 72.2129C89.5001 72.175 89.3554 72.1355 89.2153 72.0942L98.8491 69.354C99.0031 69.3909 99.1516 69.4294 99.2944 69.47Z" fill="white"/>
    <path d="M95.2983 71.8469V72.1806H93.8085V71.8619C92.752 71.8438 91.7273 71.7626 91.0933 71.6517L91.8962 71.1348C92.5936 71.2522 93.5233 71.3272 94.3369 71.3272C95.0448 71.3272 95.2983 71.2853 95.2983 71.213C95.2983 70.9485 91.2098 71.1618 91.2098 70.3777C91.2098 70.0382 92.0761 69.7526 93.8088 69.6837V69.3561H95.2986V69.6776C96.0805 69.6987 96.8412 69.7557 97.4432 69.8519L96.693 70.3658C95.964 70.2607 95.2775 70.2095 94.6329 70.2095C93.9039 70.2095 93.6715 70.2695 93.6715 70.3415C93.6715 70.594 97.76 70.3835 97.76 71.159C97.76 71.4832 96.9359 71.7657 95.2983 71.8469Z" fill="#FA8A00"/>
    <path d="M95.2551 71.7359V72.0696H93.7653V71.751C92.7088 71.7329 91.6841 71.6517 91.05 71.5404L91.853 71.0235C92.5504 71.1409 93.4801 71.216 94.2937 71.216C95.0016 71.216 95.2551 71.174 95.2551 71.1017C95.2551 70.8372 91.1666 71.0505 91.1666 70.2664C91.1666 69.9269 92.0329 69.6413 93.7656 69.5721V69.2445H95.2554V69.5659C96.0373 69.5871 96.798 69.6441 97.4 69.7403L96.6498 70.2541C95.9208 70.149 95.234 70.0978 94.5897 70.0978C93.8607 70.0978 93.6283 70.1579 93.6283 70.2299C93.6283 70.4824 97.7172 70.2719 97.7172 71.0474C97.7168 71.3726 96.8927 71.6551 95.2551 71.7359Z" fill="#FFCE4F"/>
    <path d="M103.704 69.5455C103.704 69.554 103.704 69.5618 103.704 69.5704C103.704 69.8771 103.541 70.1719 103.24 70.4469C103.166 70.5145 103.085 70.5803 102.995 70.6448C102.744 70.826 102.433 70.9966 102.068 71.1552C101.989 71.1897 101.907 71.2231 101.823 71.2562C101.54 71.3678 101.23 71.4722 100.896 71.5688C100.816 71.592 100.734 71.6148 100.651 71.637C100.358 71.7158 100.048 71.7882 99.7232 71.8544C99.6425 71.8707 99.5611 71.8868 99.4783 71.9025C99.1805 71.9591 98.8708 72.0099 98.551 72.0553C98.4699 72.0669 98.3884 72.0779 98.306 72.0888C98.0048 72.128 97.6955 72.1625 97.3787 72.1915C97.2976 72.1986 97.2158 72.2058 97.1337 72.2126C96.8309 72.2375 96.5212 72.2573 96.2064 72.2723C96.1253 72.2761 96.0435 72.2798 95.9614 72.2826C95.6569 72.2942 95.3475 72.301 95.0341 72.3027C94.9796 72.303 94.9247 72.303 94.8702 72.303C94.8433 72.303 94.8161 72.303 94.7892 72.3027C94.4757 72.302 94.1664 72.2962 93.8615 72.2853C93.7794 72.2826 93.6979 72.2792 93.6165 72.2757C93.3845 72.2655 93.1556 72.2522 92.9297 72.2368C92.849 72.2314 92.7689 72.2252 92.6892 72.2191C92.6071 72.2126 92.5257 72.2058 92.4442 72.1986C92.1274 72.171 91.8181 72.1376 91.5169 72.0993C91.4345 72.0888 91.353 72.0782 91.272 72.0669C91.0802 72.0403 90.8921 72.012 90.7078 71.9813C90.5851 71.9608 90.4642 71.9397 90.3446 71.9178C90.2622 71.9025 90.1804 71.8868 90.0997 71.8707C89.7753 71.8063 89.4653 71.7353 89.172 71.6589C89.1141 71.6438 89.0569 71.6281 89 71.6128C88.9754 71.606 88.9512 71.5991 88.9274 71.5923C88.7949 71.5551 88.6654 71.5166 88.5407 71.4767C88.3513 71.4163 88.1711 71.3535 88.0001 71.2883C87.9163 71.2559 87.8345 71.2235 87.7554 71.1904C87.4424 71.059 87.1668 70.9188 86.933 70.7711C86.8973 70.7485 86.8618 70.7253 86.8281 70.7025C86.7855 70.6738 86.7447 70.6448 86.7058 70.6155C86.6629 70.5837 86.6223 70.5513 86.5835 70.5189C86.2299 70.2238 86.0364 69.9037 86.0364 69.5707C86.0364 69.5472 86.0374 69.524 86.0398 69.5004L86.0408 67.6119L86.5835 67.6112L86.8285 67.6109L87.7558 67.6095L88.0004 67.6092L88.7244 67.6081L88.9281 67.6078L89.173 67.6074L90.1007 67.6061L90.3457 67.6057L91.273 67.6044L91.5179 67.604L92.4453 67.6023L92.6902 67.602L93.6175 67.6006L93.8625 67.6003L94.7902 67.5989L95.0351 67.5986L95.9625 67.5972L96.2074 67.5969L97.1347 67.5952L97.3797 67.5948L98.307 67.5935L98.552 67.5931L99.4793 67.5918L99.7243 67.5914L100.652 67.59L100.897 67.5897H100.957L101.824 67.5883L102.069 67.588L102.996 67.5863L103.241 67.5859L103.702 67.5853L103.704 69.5455Z" fill="#FFAC00"/>
    <path d="M86.8288 67.6102V70.7021C86.7862 70.6735 86.7454 70.6445 86.7066 70.6151C86.6638 70.5834 86.6233 70.551 86.5845 70.5186V67.6109L86.8288 67.6102Z" fill="#FA8A00"/>
    <path d="M88.0009 67.6088V71.2886C87.9172 71.2562 87.8355 71.2238 87.7566 71.1907V67.6094L88.0009 67.6088Z" fill="#FA8A00"/>
    <path d="M89.1732 67.6067V71.6584C89.1154 71.6434 89.0582 71.6277 89.0014 71.6124C88.9769 71.6055 88.9528 71.5987 88.929 71.5919V67.607L89.1732 67.6067Z" fill="#FA8A00"/>
    <path d="M90.3455 67.6053V71.9178C90.2631 71.9024 90.1815 71.8867 90.1008 71.8707V67.6057L90.3455 67.6053Z" fill="#FA8A00"/>
    <path d="M91.5178 67.6036V72.0996C91.4355 72.0891 91.3542 72.0785 91.2732 72.0672V67.6043L91.5178 67.6036Z" fill="#FA8A00"/>
    <path d="M92.6899 67.602V72.2195C92.6079 72.213 92.5266 72.2061 92.4453 72.199V67.602H92.6899Z" fill="#FA8A00"/>
    <path d="M93.8623 67.6V72.2857C93.7803 72.2829 93.699 72.2795 93.6177 72.2761V67.6007L93.8623 67.6Z" fill="#FA8A00"/>
    <path d="M95.0344 67.5982V72.3027C94.98 72.303 94.9252 72.303 94.8708 72.303C94.8439 72.303 94.8167 72.303 94.7898 72.3027V67.5985L95.0344 67.5982Z" fill="#FA8A00"/>
    <path d="M96.207 67.5969V72.2723C96.1261 72.2761 96.0444 72.2798 95.9624 72.2826V67.5969H96.207Z" fill="#FA8A00"/>
    <path d="M97.3792 67.5948V72.1915C97.2982 72.1987 97.2165 72.2058 97.1345 72.2126V67.5952L97.3792 67.5948Z" fill="#FA8A00"/>
    <path d="M98.5513 67.5931V72.0553C98.4703 72.0669 98.389 72.0779 98.3066 72.0888V67.5931H98.5513Z" fill="#FA8A00"/>
    <path d="M99.7234 67.5914V71.8544C99.6428 71.8708 99.5614 71.8868 99.4788 71.9025V67.5918L99.7234 67.5914Z" fill="#FA8A00"/>
    <path d="M100.896 67.5897V71.5691C100.816 71.5923 100.734 71.6152 100.651 71.6374V67.5904L100.896 67.5897Z" fill="#FA8A00"/>
    <path d="M102.068 67.588V71.1553C101.989 71.1897 101.907 71.2232 101.823 71.2563V67.5884L102.068 67.588Z" fill="#FA8A00"/>
    <path d="M103.24 67.5863V70.4469C103.167 70.5145 103.085 70.5803 102.996 70.6448V67.5863H103.24Z" fill="#FA8A00"/>
    <path d="M103.703 67.6095C103.703 68.9968 99.7495 70.1214 94.8717 70.1214C94.2053 70.1214 93.5559 70.1006 92.9318 70.0607C92.1469 70.0109 91.4015 69.931 90.7109 69.8259C90.0943 69.7321 89.5216 69.6181 89.0038 69.4871C88.8454 69.4472 88.692 69.4052 88.5445 69.3622C87.8952 69.1725 87.3504 68.9538 86.9369 68.7136C86.8558 68.6669 86.7798 68.6191 86.7096 68.5707C86.2783 68.2748 86.0405 67.9504 86.0405 67.6102C86.0405 67.5791 86.0429 67.5481 86.0477 67.517C86.219 66.173 90.1042 65.0983 94.8717 65.0983C96.045 65.0983 97.1644 65.1634 98.1885 65.2815C98.3865 65.3044 98.5806 65.3289 98.7711 65.3559C99.603 65.4726 100.36 65.6251 101.019 65.8069C101.164 65.8469 101.304 65.8885 101.44 65.9311C101.921 66.0833 102.337 66.2522 102.677 66.4344C103.028 66.6221 103.297 66.8244 103.471 67.0366C103.599 67.1919 103.675 67.3526 103.696 67.517C103.701 67.5471 103.703 67.5784 103.703 67.6095Z" fill="#FFCE4F"/>
    <path opacity="0.3" d="M103.471 67.0356L92.9318 70.0603C92.1469 70.0105 91.4015 69.9306 90.7109 69.8256L102.677 66.4333C103.027 66.621 103.296 66.8233 103.471 67.0356Z" fill="white"/>
    <path opacity="0.3" d="M98.7714 65.3547L86.9372 68.7128C86.8561 68.666 86.7801 68.6183 86.71 68.5698L98.1889 65.2806C98.3865 65.3032 98.581 65.3277 98.7714 65.3547Z" fill="white"/>
    <path opacity="0.3" d="M101.44 65.9308L89.0039 69.4871C88.8455 69.4472 88.6922 69.4052 88.5447 69.3622L101.019 65.8066C101.164 65.8468 101.305 65.8881 101.44 65.9308Z" fill="white"/>
    <path d="M101.931 67.61C101.931 67.6407 101.927 67.6717 101.924 67.7021C101.753 68.7666 98.6559 69.6176 94.8723 69.6176C91.0883 69.6176 87.9909 68.7666 87.8205 67.7021C87.8165 67.6714 87.8137 67.6407 87.8137 67.61C87.8137 66.5028 90.98 65.6024 94.8723 65.6024C98.7642 65.6024 101.931 66.5028 101.931 67.61Z" fill="#FA8A00"/>
    <path d="M101.924 67.7023C101.753 68.7669 98.656 69.6178 94.8724 69.6178C94.7875 69.6178 94.7041 69.6171 94.6203 69.6165C93.7764 69.6079 92.9697 69.5574 92.2253 69.4715C91.4805 69.3855 90.7992 69.2643 90.2064 69.1152C90.0558 69.0774 89.911 69.0378 89.771 68.9965C89.1387 68.8078 88.6325 68.585 88.2948 68.338C88.2131 68.279 88.1412 68.2182 88.0802 68.1565C87.9344 68.0111 87.8468 67.8589 87.8213 67.7023C87.9916 66.6378 91.0891 65.7865 94.873 65.7865C95.3517 65.7865 95.8195 65.8001 96.2726 65.8264C96.5029 65.8394 96.7304 65.8561 96.9532 65.8759C97.8622 65.9557 98.6934 66.0864 99.4055 66.2567C99.5591 66.2932 99.708 66.3321 99.8507 66.3727C100.405 66.5296 100.869 66.7125 101.217 66.9145C101.556 67.1114 101.784 67.326 101.881 67.5522C101.901 67.6013 101.916 67.6515 101.924 67.7023Z" fill="#FFAC00"/>
    <path opacity="0.2" d="M101.879 67.5508L94.6198 69.6158C93.776 69.6072 92.9692 69.5567 92.2249 69.4707L101.216 66.9135C101.554 67.1103 101.783 67.3249 101.879 67.5508Z" fill="white"/>
    <path opacity="0.2" d="M96.952 65.8755L88.294 68.3376C88.2122 68.2786 88.1403 68.2179 88.0793 68.1561L96.2714 65.826C96.502 65.8394 96.7292 65.8561 96.952 65.8755Z" fill="white"/>
    <path opacity="0.2" d="M99.8493 66.3716L90.2056 69.1145C90.0551 69.0767 89.9103 69.0371 89.7703 68.9958L99.404 66.2556C99.5577 66.2925 99.7062 66.331 99.8493 66.3716Z" fill="white"/>
    <path d="M95.8532 68.7481V69.0818H94.3634V68.7631C93.307 68.745 92.2822 68.6638 91.6482 68.5526L92.4512 68.0357C93.1486 68.1531 94.0783 68.2281 94.8918 68.2281C95.5997 68.2281 95.8532 68.1862 95.8532 68.1138C95.8532 67.8494 91.7644 68.0627 91.7644 67.2786C91.7644 66.9391 92.6307 66.6535 94.3634 66.5846V66.257H95.8532V66.5784C96.6351 66.5996 97.3958 66.6566 97.9978 66.7528L97.2476 67.2666C96.5186 67.1615 95.8318 67.1104 95.1875 67.1104C94.4585 67.1104 94.2261 67.1704 94.2261 67.2427C94.2261 67.4952 98.3146 67.2847 98.3146 68.0603C98.315 68.3847 97.4909 68.6673 95.8532 68.7481Z" fill="#FA8A00"/>
    <path d="M95.8099 68.6375V68.9712H94.3205V68.6529C93.264 68.6348 92.2392 68.5536 91.6052 68.4424L92.4082 67.9255C93.1056 68.0428 94.0353 68.1179 94.8488 68.1179C95.5568 68.1179 95.8102 68.0759 95.8102 68.0036C95.8102 67.7392 91.7217 67.9524 91.7217 67.1683C91.7217 66.8288 92.5881 66.5433 94.3208 66.4743V66.1468H95.8102V66.4682C96.5921 66.4894 97.3529 66.5463 97.9552 66.6425L97.205 67.1564C96.4759 67.0513 95.7891 67.0001 95.1449 67.0001C94.4158 67.0001 94.1835 67.0602 94.1835 67.1322C94.1835 67.3847 98.272 67.1741 98.272 67.9497C98.2717 68.2738 97.4476 68.5563 95.8099 68.6375Z" fill="#FFCE4F"/>
    <path d="M103.623 66.447C103.624 66.4555 103.624 66.4637 103.624 66.4719C103.624 66.7786 103.461 67.0734 103.159 67.3484C103.086 67.416 103.004 67.4819 102.914 67.5463C102.664 67.7275 102.352 67.8981 101.987 68.0568C101.908 68.0912 101.826 68.1247 101.742 68.1578C101.459 68.2693 101.149 68.3738 100.815 68.4703C100.735 68.4935 100.653 68.5164 100.57 68.5386C100.277 68.6174 99.9672 68.6897 99.6422 68.7559C99.5615 68.7723 99.4801 68.7883 99.3973 68.804C99.0995 68.8606 98.7898 68.9115 98.4699 68.9569C98.3889 68.9685 98.3074 68.9794 98.225 68.9903C97.9238 69.0295 97.6145 69.0637 97.2977 69.093C97.2166 69.1005 97.1348 69.1077 97.0527 69.1142C96.7498 69.1391 96.4402 69.1589 96.1254 69.1735C96.0443 69.1773 95.9625 69.181 95.8804 69.1841C95.5759 69.1957 95.2665 69.2025 94.9531 69.2042C94.8986 69.2046 94.8437 69.2046 94.7892 69.2046C94.7623 69.2046 94.7351 69.2046 94.7081 69.2042C94.3947 69.2036 94.0854 69.1977 93.7805 69.1868C93.6984 69.1841 93.6169 69.1807 93.5355 69.1773C93.3035 69.167 93.0746 69.1537 92.8484 69.1384C92.7676 69.1329 92.6876 69.1268 92.6078 69.1206C92.5257 69.1142 92.4443 69.1073 92.3629 69.1002C92.0461 69.0725 91.7367 69.0391 91.4356 69.0009C91.3531 68.9903 91.2717 68.9797 91.1906 68.9681C90.9988 68.9419 90.8107 68.9132 90.6264 68.8825C90.5038 68.862 90.3829 68.8409 90.2633 68.819C90.1808 68.8037 90.0991 68.788 90.0183 68.7719C89.694 68.7074 89.384 68.6365 89.0907 68.5601C89.0327 68.545 88.9755 68.5297 88.9186 68.514C88.8941 68.5075 88.8699 68.5003 88.8457 68.4935C88.7132 68.4563 88.5841 68.4178 88.459 68.3779C88.2696 68.3175 88.0894 68.2547 87.9184 68.1895C87.8346 68.1571 87.7528 68.1247 87.6734 68.0916C87.3607 67.9602 87.0847 67.82 86.851 67.6722C86.8152 67.6497 86.7798 67.6269 86.7461 67.6037C86.7035 67.575 86.6626 67.546 86.6238 67.5167C86.5809 67.4849 86.5403 67.4525 86.5015 67.4201C86.1478 67.125 85.9543 66.8053 85.9543 66.4719C85.9543 66.4484 85.9554 66.4252 85.9578 66.4016L85.9588 64.5131L86.5018 64.5124L86.7468 64.5117L87.6741 64.5103L87.9191 64.51L88.6427 64.509L88.8464 64.5086L89.0913 64.5083L90.019 64.5069L90.264 64.5066L91.1913 64.5049L91.4362 64.5045L92.3636 64.5028L92.6085 64.5025L93.5359 64.5011L93.7808 64.5008L94.7085 64.4994L94.9534 64.4991L95.8808 64.4977L96.1257 64.4974L97.053 64.496L97.298 64.4957L98.2253 64.4943L98.4703 64.494L99.3976 64.4926L99.6426 64.4923L100.57 64.4909L100.815 64.4902H100.875L101.743 64.4889L101.987 64.4885L102.915 64.4868L103.16 64.4865L103.621 64.4858L103.623 66.447Z" fill="#FFAC00"/>
    <path d="M86.7485 64.5113V67.6032C86.7059 67.5746 86.6651 67.5456 86.6263 67.5162C86.5834 67.4845 86.5429 67.4521 86.5042 67.4197V64.512L86.7485 64.5113Z" fill="#FA8A00"/>
    <path d="M87.9204 64.5099V68.1897C87.8367 68.1573 87.7551 68.1249 87.6758 68.0918V64.5106L87.9204 64.5099Z" fill="#FA8A00"/>
    <path d="M89.0928 64.5082V68.5599C89.0349 68.5449 88.9778 68.5296 88.921 68.5139C88.8965 68.5074 88.8723 68.5002 88.8481 68.4934V64.5085L89.0928 64.5082Z" fill="#FA8A00"/>
    <path d="M90.2651 64.5068V68.8193C90.1828 68.8039 90.1011 68.7882 90.0205 68.7722V64.5072L90.2651 64.5068Z" fill="#FA8A00"/>
    <path d="M91.4373 64.5048V69.0008C91.3549 68.9902 91.2736 68.9797 91.1926 68.9681V64.5052L91.4373 64.5048Z" fill="#FA8A00"/>
    <path d="M92.6091 64.5031V69.1206C92.5271 69.1141 92.4458 69.1073 92.3645 69.1001V64.5035L92.6091 64.5031Z" fill="#FA8A00"/>
    <path d="M93.782 64.5014V69.1871C93.7 69.1844 93.6187 69.181 93.5374 69.1775V64.5021L93.782 64.5014Z" fill="#FA8A00"/>
    <path d="M94.9541 64.4997V69.2042C94.8997 69.2045 94.8449 69.2045 94.7904 69.2045C94.7636 69.2045 94.7364 69.2045 94.7095 69.2042V64.5L94.9541 64.4997Z" fill="#FA8A00"/>
    <path d="M96.1265 64.498V69.1734C96.0455 69.1772 95.9638 69.181 95.8818 69.184V64.4983L96.1265 64.498Z" fill="#FA8A00"/>
    <path d="M97.2986 64.4963V69.093C97.2176 69.1005 97.136 69.1077 97.054 69.1141V64.4967L97.2986 64.4963Z" fill="#FA8A00"/>
    <path d="M98.471 64.4946V68.9568C98.39 68.9684 98.3087 68.9794 98.2263 68.9903V64.4946H98.471Z" fill="#FA8A00"/>
    <path d="M99.6426 64.4929V68.7559C99.5619 68.7722 99.4806 68.7883 99.3979 68.804V64.4933L99.6426 64.4929Z" fill="#FA8A00"/>
    <path d="M100.815 64.4908V68.4703C100.735 68.4935 100.654 68.5163 100.571 68.5385V64.4915L100.815 64.4908Z" fill="#FA8A00"/>
    <path d="M101.988 64.4895V68.0567C101.909 68.0912 101.827 68.1246 101.743 68.1577V64.4895H101.988Z" fill="#FA8A00"/>
    <path d="M103.16 64.4878V67.3484C103.086 67.416 103.005 67.4818 102.915 67.5463V64.4878H103.16Z" fill="#FA8A00"/>
    <path d="M103.622 64.5107C103.622 65.898 99.6686 67.0226 94.7907 67.0226C94.1243 67.0226 93.475 67.0018 92.8509 66.9619C92.0659 66.9121 91.3205 66.8322 90.6296 66.7272C90.013 66.6333 89.4406 66.5194 88.9225 66.388C88.7641 66.3481 88.6107 66.3061 88.4632 66.2631C87.8139 66.0734 87.2692 65.8547 86.8556 65.6145C86.7745 65.5678 86.6985 65.52 86.6283 65.4715C86.197 65.1757 85.9592 64.8512 85.9592 64.5111C85.9592 64.48 85.9616 64.449 85.9664 64.4179C86.1377 63.0739 90.0229 61.9991 94.7904 61.9991C95.9637 61.9991 97.0831 62.0643 98.1072 62.1824C98.3052 62.2052 98.4994 62.2301 98.6898 62.2568C99.5217 62.3734 100.279 62.526 100.938 62.7078C101.083 62.7477 101.223 62.7894 101.358 62.832C101.839 62.9842 102.256 63.1527 102.596 63.3353C102.946 63.5233 103.215 63.7253 103.39 63.9375C103.517 64.0927 103.594 64.2535 103.615 64.4179C103.62 64.4486 103.622 64.4797 103.622 64.5107Z" fill="#FFCE4F"/>
    <path opacity="0.3" d="M103.39 63.9372L92.8509 66.9619C92.066 66.9121 91.3205 66.8323 90.6296 66.7272L102.596 63.335C102.947 63.5226 103.216 63.7246 103.39 63.9372Z" fill="white"/>
    <path opacity="0.3" d="M98.6901 62.2559L86.8559 65.614C86.7748 65.5673 86.6988 65.5195 86.6287 65.4711L98.1076 62.1819C98.3055 62.2044 98.4997 62.2293 98.6901 62.2559Z" fill="white"/>
    <path opacity="0.3" d="M101.359 62.8324L88.9231 66.3887C88.7647 66.3488 88.6114 66.3068 88.4639 66.2638L100.939 62.7082C101.083 62.7481 101.224 62.7897 101.359 62.8324Z" fill="white"/>
    <path d="M101.849 64.5115C101.849 64.5422 101.846 64.5733 101.843 64.6037C101.672 65.6682 98.5748 66.5191 94.7909 66.5191C91.007 66.5191 87.9098 65.6682 87.7395 64.6037C87.7354 64.5729 87.7327 64.5422 87.7327 64.5115C87.7327 63.4043 90.899 62.5039 94.7912 62.5039C98.6832 62.5036 101.849 63.4043 101.849 64.5115Z" fill="#FA8A00"/>
    <path d="M101.843 64.6038C101.672 65.6684 98.5748 66.5193 94.7908 66.5193C94.706 66.5193 94.6225 66.5186 94.5387 66.518C93.6948 66.5094 92.8881 66.4589 92.1437 66.3729C91.399 66.287 90.7176 66.1658 90.1248 66.0167C89.9743 65.9789 89.8295 65.9393 89.6895 65.898C89.0572 65.7093 88.5509 65.4865 88.2133 65.2395C88.1315 65.1805 88.0596 65.1194 87.9987 65.058C87.8528 64.9126 87.7653 64.7604 87.7397 64.6038C87.9101 63.5393 91.0076 62.688 94.7912 62.688C95.2698 62.688 95.7376 62.7016 96.1907 62.7279C96.421 62.7412 96.6485 62.7576 96.8714 62.7774C97.7803 62.8572 98.6115 62.9879 99.3236 63.1582C99.4772 63.1947 99.6258 63.2336 99.7688 63.2742C100.323 63.4311 100.787 63.614 101.135 63.816C101.474 64.0129 101.702 64.2275 101.799 64.4537C101.82 64.5025 101.835 64.553 101.843 64.6038Z" fill="#FFAC00"/>
    <path opacity="0.2" d="M101.798 64.4524L94.5388 66.517C93.6949 66.5085 92.8882 66.458 92.1438 66.372L101.135 63.8147C101.473 64.0119 101.702 64.2262 101.798 64.4524Z" fill="white"/>
    <path opacity="0.2" d="M96.8712 62.7771L88.2132 65.2395C88.1314 65.1805 88.0595 65.1194 87.9985 65.058L96.1906 62.728C96.4212 62.7409 96.6488 62.7576 96.8712 62.7771Z" fill="white"/>
    <path opacity="0.2" d="M99.7685 63.2732L90.1248 66.0161C89.9743 65.9782 89.8295 65.9386 89.6895 65.8973L99.3232 63.1572C99.4769 63.1937 99.6257 63.2326 99.7685 63.2732Z" fill="white"/>
    <path d="M95.7724 65.6497V65.983H94.2826V65.6644C93.2262 65.6463 92.2014 65.5651 91.5674 65.4538L92.3704 64.9369C93.0677 65.0539 93.9975 65.1294 94.811 65.1294C95.5189 65.1294 95.7724 65.0874 95.7724 65.015C95.7724 64.7506 91.6839 64.9639 91.6839 64.1798C91.6839 63.8403 92.5503 63.5547 94.283 63.4854V63.1579H95.7727V63.4793C96.5546 63.5005 97.3154 63.5574 97.9173 63.6537L97.1671 64.1675C96.4381 64.0624 95.7516 64.0112 95.1071 64.0112C94.378 64.0112 94.1457 64.0713 94.1457 64.1436C94.1457 64.3961 98.2345 64.1856 98.2345 64.9608C98.2338 65.286 97.4097 65.5685 95.7724 65.6497Z" fill="#FA8A00"/>
    <path d="M95.7289 65.5391V65.8728H94.2394V65.5541C93.1829 65.536 92.1582 65.4548 91.5242 65.3436L92.3272 64.8266C93.0245 64.944 93.9542 65.0191 94.7678 65.0191C95.4757 65.0191 95.7292 64.9771 95.7292 64.9048C95.7292 64.6404 91.6407 64.8536 91.6407 64.0695C91.6407 63.73 92.507 63.4444 94.2397 63.3755V63.048H95.7292V63.3694C96.5111 63.3905 97.2718 63.4475 97.8738 63.5437L97.1236 64.0576C96.3945 63.9525 95.7077 63.9013 95.0635 63.9013C94.3344 63.9013 94.1021 63.9614 94.1021 64.0334C94.1021 64.2858 98.191 64.0753 98.191 64.8509C98.1906 65.1754 97.3665 65.4579 95.7289 65.5391Z" fill="#FFCE4F"/>
    <path d="M103.184 63.6757C103.185 63.6839 103.185 63.6921 103.185 63.7007C103.185 64.0074 103.022 64.3022 102.72 64.5772C102.647 64.6448 102.565 64.7106 102.475 64.7751C102.225 64.9563 101.913 65.1269 101.548 65.2855C101.469 65.32 101.387 65.3534 101.303 65.3865C101.02 65.4981 100.71 65.6025 100.376 65.6991C100.296 65.7223 100.214 65.7451 100.131 65.7673C99.8378 65.8458 99.5282 65.9185 99.2032 65.9846C99.1224 66.001 99.041 66.0171 98.9582 66.0328C98.6605 66.0891 98.3508 66.1406 98.0309 66.1856C97.9498 66.1972 97.8684 66.2081 97.7859 66.219C97.4848 66.2583 97.1754 66.2924 96.8586 66.3218C96.7775 66.3293 96.6958 66.3364 96.6137 66.3429C96.3108 66.3678 96.0011 66.3876 95.6863 66.4023C95.6052 66.406 95.5235 66.4098 95.4414 66.4129C95.1368 66.4245 94.8275 66.4313 94.514 66.433C94.4599 66.4333 94.4047 66.4337 94.3502 66.4337C94.3233 66.4337 94.296 66.4337 94.2691 66.4333C93.9557 66.4326 93.6463 66.4268 93.3414 66.4159C93.2593 66.4132 93.1779 66.4098 93.0965 66.4064C92.8645 66.3961 92.6355 66.3828 92.4097 66.3675C92.3289 66.362 92.2488 66.3559 92.1691 66.3497C92.087 66.3432 92.0056 66.3364 91.9242 66.3293C91.6073 66.3016 91.298 66.2682 90.9968 66.23C90.9144 66.2194 90.833 66.2088 90.7519 66.1972C90.5601 66.1709 90.372 66.1423 90.1877 66.1116C90.0651 66.0911 89.9441 66.0699 89.8246 66.0481C89.7421 66.0328 89.6604 66.0171 89.5796 66.001C89.2553 65.9365 88.9453 65.8656 88.6519 65.7891C88.594 65.7741 88.5368 65.7588 88.4799 65.7431C88.4554 65.7366 88.4312 65.7294 88.407 65.7226C88.2745 65.6854 88.1453 65.6469 88.0203 65.6069C87.8309 65.5465 87.6507 65.4838 87.4797 65.4186C87.3955 65.3862 87.3141 65.3538 87.2347 65.3207C86.922 65.1893 86.646 65.0491 86.4123 64.9013C86.3765 64.8788 86.3411 64.856 86.3074 64.8328C86.2648 64.8041 86.2239 64.7751 86.1851 64.7457C86.1421 64.714 86.1016 64.6816 86.0628 64.6492C85.7091 64.3541 85.5156 64.034 85.5156 63.701C85.5156 63.6775 85.5167 63.6542 85.519 63.6307L85.5197 61.7422L86.0624 61.7415L86.3074 61.7411L87.2347 61.7398L87.4797 61.7391L88.2033 61.7381L88.407 61.7377L88.6519 61.7374L89.5796 61.736L89.8246 61.7357L90.7519 61.734L90.9968 61.7336L91.9242 61.7323L92.1691 61.7319L93.0965 61.7306L93.3414 61.7302L94.2691 61.7289L94.514 61.7285L95.4414 61.7272L95.6863 61.7268L96.6137 61.7251L96.8586 61.7248L97.7859 61.7231L98.0309 61.7227L98.9582 61.7214L99.2032 61.721L100.131 61.7196L100.376 61.7193H100.436L101.303 61.7179L101.548 61.7176L102.475 61.7162L102.72 61.7159L103.181 61.7152L103.184 63.6757Z" fill="#FFAC00"/>
    <path d="M86.308 61.7401V64.8321C86.2655 64.8034 86.2246 64.7744 86.1859 64.7451C86.143 64.7133 86.1025 64.6809 86.0637 64.6485V61.7405L86.308 61.7401Z" fill="#FA8A00"/>
    <path d="M87.4812 61.7387V65.4186C87.3972 65.3861 87.3158 65.3537 87.2366 65.3206V61.7394L87.4812 61.7387Z" fill="#FA8A00"/>
    <path d="M88.6536 61.737V65.7887C88.5957 65.7737 88.5386 65.7584 88.4818 65.7427C88.4573 65.7362 88.4331 65.729 88.4089 65.7222V61.7373L88.6536 61.737Z" fill="#FA8A00"/>
    <path d="M89.8257 61.7353V66.0477C89.7433 66.0324 89.6617 66.0167 89.5811 66.0006V61.7356L89.8257 61.7353Z" fill="#FA8A00"/>
    <path d="M90.9981 61.7336V66.2296C90.9157 66.219 90.8344 66.2084 90.7534 66.1968V61.7339L90.9981 61.7336Z" fill="#FA8A00"/>
    <path d="M92.1699 61.7319V66.3493C92.0879 66.3429 92.0066 66.336 91.9253 66.3289V61.7322L92.1699 61.7319Z" fill="#FA8A00"/>
    <path d="M93.3423 61.7302V66.4159C93.2603 66.4132 93.179 66.4098 93.0977 66.4064V61.7309L93.3423 61.7302Z" fill="#FA8A00"/>
    <path d="M94.5144 61.7281V66.4326C94.4603 66.433 94.4052 66.4333 94.3508 66.4333C94.3239 66.4333 94.2967 66.4333 94.2698 66.433V61.7288L94.5144 61.7281Z" fill="#FA8A00"/>
    <path d="M95.6873 61.7268V66.4023C95.6063 66.406 95.5246 66.4098 95.4426 66.4128V61.7272L95.6873 61.7268Z" fill="#FA8A00"/>
    <path d="M96.8594 61.7251V66.3217C96.7784 66.3292 96.6967 66.3364 96.6147 66.3429V61.7254L96.8594 61.7251Z" fill="#FA8A00"/>
    <path d="M98.0313 61.723V66.1852C97.9503 66.1968 97.869 66.2078 97.7866 66.2187V61.723H98.0313Z" fill="#FA8A00"/>
    <path d="M99.2036 61.7213V65.9843C99.123 66.0006 99.0417 66.0167 98.959 66.0324V61.7217L99.2036 61.7213Z" fill="#FA8A00"/>
    <path d="M100.376 61.7197V65.6991C100.296 65.7223 100.215 65.7451 100.131 65.7673V61.7203L100.376 61.7197Z" fill="#FA8A00"/>
    <path d="M101.548 61.718V65.2852C101.469 65.3197 101.387 65.3531 101.303 65.3862V61.718H101.548Z" fill="#FA8A00"/>
    <path d="M102.72 61.7162V64.5769C102.646 64.6444 102.565 64.7103 102.475 64.7748V61.7162H102.72Z" fill="#FA8A00"/>
    <path d="M103.183 61.7395C103.183 63.1265 99.2293 64.2514 94.3514 64.2514C93.685 64.2514 93.0357 64.2306 92.4116 64.1907C91.6266 64.1408 90.8812 64.061 90.1907 63.9559C89.574 63.8621 89.0013 63.7481 88.4835 63.6168C88.3251 63.5768 88.1718 63.5352 88.0243 63.4919C87.3749 63.3022 86.8302 63.0835 86.4166 62.8433C86.3355 62.7965 86.2595 62.7487 86.1894 62.7003C85.7581 62.4045 85.5203 62.08 85.5203 61.7398C85.5203 61.7088 85.5223 61.6777 85.5274 61.6467C85.6988 60.3027 89.5839 59.2279 94.3514 59.2279C95.5247 59.2279 96.6442 59.2931 97.6683 59.4111C97.8662 59.434 98.0604 59.4586 98.2508 59.4855C99.0828 59.6022 99.8401 59.7547 100.499 59.9366C100.644 59.9765 100.784 60.0181 100.919 60.0608C101.4 60.2129 101.817 60.3818 102.157 60.564C102.507 60.7517 102.776 60.954 102.951 61.1663C103.078 61.3215 103.155 61.4819 103.176 61.6467C103.181 61.6774 103.183 61.7084 103.183 61.7395Z" fill="#FFCE4F"/>
    <path opacity="0.3" d="M102.951 61.1659L92.4121 64.1906C91.6271 64.1408 90.8817 64.061 90.1912 63.9559L102.157 60.5637C102.507 60.7513 102.777 60.9533 102.951 61.1659Z" fill="white"/>
    <path opacity="0.3" d="M98.2502 59.4847L86.416 62.8428C86.3349 62.796 86.2589 62.7483 86.1887 62.6998L97.6676 59.4106C97.8656 59.4332 98.0598 59.4577 98.2502 59.4847Z" fill="white"/>
    <path opacity="0.3" d="M100.92 60.0611L88.4839 63.6174C88.3255 63.5775 88.1722 63.5359 88.0247 63.4925L100.499 59.9369C100.644 59.9768 100.785 60.0181 100.92 60.0611Z" fill="white"/>
    <path d="M101.41 61.7399C101.41 61.7706 101.407 61.8017 101.404 61.832C101.233 62.8966 98.1357 63.7475 94.3518 63.7475C90.5678 63.7475 87.4707 62.8966 87.3 61.832C87.2959 61.8017 87.2932 61.7706 87.2932 61.7399C87.2932 60.6327 90.4595 59.7323 94.3518 59.7323C98.2441 59.7323 101.41 60.6331 101.41 61.7399Z" fill="#FA8A00"/>
    <path d="M101.403 61.8323C101.233 62.8968 98.1354 63.7478 94.3515 63.7478C94.2666 63.7478 94.1832 63.7471 94.0994 63.7464C93.2552 63.7379 92.4488 63.6874 91.704 63.6014C90.9596 63.5154 90.2779 63.3943 89.6852 63.2452C89.5346 63.2073 89.3898 63.1677 89.2498 63.1265C88.6175 62.9378 88.1112 62.715 87.7736 62.4679C87.6918 62.4089 87.62 62.3482 87.559 62.2864C87.4132 62.1411 87.3256 61.9889 87.3 61.8323C87.4704 60.7677 90.5679 59.9164 94.3518 59.9164C94.8305 59.9164 95.2982 59.9301 95.7513 59.9564C95.982 59.9697 96.2092 59.9861 96.432 60.0058C97.3409 60.0857 98.1722 60.2164 98.8842 60.3866C99.0379 60.4235 99.1867 60.462 99.3295 60.5026C99.8841 60.6596 100.348 60.8425 100.696 61.0444C101.034 61.2413 101.263 61.4559 101.359 61.6822C101.38 61.7313 101.395 61.7818 101.403 61.8323Z" fill="#FFAC00"/>
    <path opacity="0.2" d="M101.359 61.6811L94.0997 63.7461C93.2555 63.7375 92.4491 63.687 91.7043 63.6011L100.695 61.0438C101.034 61.2403 101.262 61.4549 101.359 61.6811Z" fill="white"/>
    <path opacity="0.2" d="M96.4319 60.0059L87.7742 62.468C87.6924 62.409 87.6206 62.3482 87.5596 62.2865L95.7516 59.9564C95.9819 59.9697 96.2091 59.9861 96.4319 60.0059Z" fill="white"/>
    <path opacity="0.2" d="M99.3295 60.5016L89.6859 63.2445C89.5353 63.2067 89.3905 63.1671 89.2505 63.1258L98.8843 60.3856C99.0379 60.4225 99.1864 60.461 99.3295 60.5016Z" fill="white"/>
    <path d="M95.3334 62.8784V63.2121H93.8436V62.8934C92.7872 62.8754 91.7624 62.7942 91.1284 62.6829L91.9314 62.166C92.6288 62.283 93.5585 62.3584 94.372 62.3584C95.08 62.3584 95.3334 62.3165 95.3334 62.2441C95.3334 61.9797 91.2449 62.193 91.2449 61.4089C91.2449 61.0694 92.1113 60.7838 93.844 60.7149V60.3873H95.3338V60.7087C96.1156 60.7299 96.8764 60.7869 97.4784 60.8831L96.7282 61.3969C95.9991 61.2919 95.3127 61.2407 94.6681 61.2407C93.939 61.2407 93.7067 61.3007 93.7067 61.3727C93.7067 61.6252 97.7955 61.4147 97.7955 62.1902C97.7952 62.5147 96.9711 62.7972 95.3334 62.8784Z" fill="#FA8A00"/>
    <path d="M95.2902 62.7675V63.1012H93.8004V62.7825C92.744 62.7645 91.7192 62.6832 91.0852 62.5724L91.8882 62.0554C92.5856 62.1728 93.5153 62.2479 94.3288 62.2479C95.0368 62.2479 95.2902 62.2059 95.2902 62.1336C95.2902 61.8691 91.2017 62.0824 91.2017 61.2983C91.2017 60.9588 92.0681 60.6732 93.8008 60.604V60.2764H95.2906V60.5978C96.0724 60.619 96.8332 60.676 97.4352 60.7722L96.685 61.286C95.9559 61.1809 95.2691 61.1298 94.6249 61.1298C93.8958 61.1298 93.6635 61.1898 93.6635 61.2622C93.6635 61.5146 97.7523 61.3041 97.7523 62.0797C97.752 62.4041 96.9279 62.6863 95.2902 62.7675Z" fill="#FFCE4F"/>
    <path d="M27.2269 29.8843L27.6129 31.0673C26.3949 31.7824 23.3227 33.4642 21.9535 33.9682C21.5467 34.1179 20.9778 34.3039 20.3308 34.5049C20.0842 34.5816 19.8259 34.6611 19.5605 34.741C19.3323 34.8096 19.0989 34.8788 18.8635 34.9484C18.8533 34.9518 18.8424 34.9549 18.8318 34.9576C18.5201 34.9938 18.1246 35.0382 17.6755 35.0846L17.6796 33.1994L18.4192 32.9944L18.8546 32.8739L19.4689 32.704L20.8135 32.3314C21.8199 31.7101 26.2011 30.4255 27.2269 29.8843Z" fill="#FDA893"/>
    <path d="M28.9578 29.1654C28.9912 29.1528 29.3935 29.0041 29.5117 29.1719C29.6354 29.3466 29.4934 29.5227 29.4934 29.5227C29.4934 29.5227 29.7891 29.6895 29.7966 29.8618C29.8037 30.0341 29.6634 30.1522 29.6634 30.1522C29.6634 30.1522 29.8531 30.2453 29.8473 30.4084C29.8419 30.5715 29.6184 30.81 29.2872 30.8974C28.9932 30.9748 28.8467 30.9124 28.8185 30.8977C28.8151 30.8953 28.813 30.8943 28.813 30.8943C28.813 30.8943 28.7585 30.9148 28.6628 30.9465C28.5033 30.9997 28.2294 31.0847 27.9095 31.1563C27.3982 31.271 26.7648 30.5661 26.7185 30.1109C26.7185 30.1109 26.9059 29.5012 27.1208 29.1501C27.3358 28.7993 27.4919 28.7168 27.7521 28.7509C28.0124 28.7853 28.2679 28.8727 28.3238 28.8625C28.38 28.8529 29.708 28.162 30.0125 28.251C30.3106 28.3384 29.0154 29.1303 28.9578 29.1654Z" fill="#FDA893"/>
    <path d="M27.5177 29.7797C27.5062 29.7797 27.4942 29.777 27.4833 29.7709C27.4482 29.7517 27.435 29.7077 27.454 29.6725L27.6148 29.3736C27.6244 29.3559 27.6411 29.3426 27.6608 29.3378C27.6806 29.3327 27.7014 29.3364 27.7184 29.3477C27.7215 29.3497 28.0509 29.5629 28.3531 29.4874C28.4454 29.4642 28.5078 29.4256 28.533 29.376C28.5613 29.3197 28.5377 29.2596 28.5374 29.2592C28.5224 29.2223 28.5398 29.18 28.5762 29.1646C28.6127 29.1493 28.6549 29.1657 28.6706 29.2022C28.6757 29.2145 28.7203 29.3241 28.6635 29.4392C28.6185 29.5304 28.5262 29.5939 28.3882 29.6284C28.1116 29.6978 27.8322 29.5762 27.7065 29.5089L27.5811 29.7418C27.5685 29.7657 27.5436 29.7797 27.5177 29.7797Z" fill="#FD896B"/>
    <path d="M28.8175 30.8967C28.8141 30.8943 28.8121 30.8933 28.8121 30.8933C28.8121 30.8933 28.7576 30.9137 28.662 30.9455C28.5351 30.7957 28.5259 30.6162 28.5177 30.4651C28.5109 30.334 28.5048 30.2204 28.4357 30.1375C28.3643 30.0525 28.3354 29.958 28.3303 29.868C28.3238 29.7813 28.3405 29.698 28.3616 29.6308C28.3694 29.6056 28.3776 29.5824 28.3857 29.5626C28.4068 29.5104 28.4266 29.4769 28.4293 29.4725C28.45 29.438 28.4943 29.4264 28.5286 29.4473C28.563 29.4677 28.5739 29.5121 28.5538 29.5465C28.5535 29.5469 28.5504 29.5523 28.5456 29.5619C28.5249 29.6015 28.4749 29.7124 28.4749 29.8318C28.4749 29.9038 28.4932 29.9792 28.5473 30.044C28.647 30.1634 28.6555 30.3125 28.663 30.4565C28.6715 30.621 28.6797 30.7766 28.8175 30.8967Z" fill="#FD896B"/>
    <path d="M27.8106 30.3601C27.7834 30.3601 27.7575 30.3448 27.7449 30.3185C27.7279 30.2823 27.7436 30.2389 27.7796 30.2218C27.784 30.2198 28.2131 30.0114 28.2563 29.6009C28.2604 29.5609 28.2965 29.5319 28.3359 29.5363C28.3757 29.5404 28.4043 29.5763 28.4002 29.6163C28.3485 30.1091 27.862 30.3437 27.8412 30.3533C27.8313 30.3577 27.8208 30.3601 27.8106 30.3601Z" fill="#FD896B"/>
    <path d="M26.3196 30.2542C23.605 31.1734 21.5558 31.7845 19.4361 32.3038C15.642 33.2336 13.6221 32.6866 13.6221 32.6866L15.0478 35.3105L15.3013 35.7772C15.7176 35.8898 16.2058 35.9 16.7015 35.8526C18.1218 35.7185 19.5997 35.116 19.5997 35.116C23.4899 33.5939 26.0351 32.3734 27.0885 31.6439L26.3196 30.2542Z" fill="#0172D0"/>
    <path d="M26.2497 30.0621L25.5959 30.3692L26.4919 32.0895L27.1665 31.7002L26.2497 30.0621Z" fill="#0056C5"/>
    <path d="M16.7015 35.853C16.2062 35.9004 15.7176 35.8902 15.3013 35.7776L15.0479 35.3108C15.101 35.0768 15.2362 34.8847 15.4999 34.7816C15.4999 34.7816 15.8348 35.4633 16.7015 35.853Z" fill="#0056C5"/>
    <path d="M5.60046 68.6177L4.48779 70.1084C4.48779 70.1084 4.69084 70.7747 5.51495 71.2883L6.84565 69.573L5.60046 68.6177Z" fill="#FDA893"/>
    <path d="M5.33011 70.8263C5.33011 70.8263 5.85067 70.714 6.02885 70.8942C6.20702 71.0743 6.654 73.5265 7.07201 74.0629C7.49003 74.5993 7.06929 74.8845 6.81173 74.993C6.55418 75.1019 2.86597 71.4114 2.86597 71.4114C2.86597 71.4114 3.77763 70.15 4.21745 69.905C4.65727 69.6601 4.86338 70.5666 5.33011 70.8263Z" fill="#FB6B18"/>
    <path d="M12.425 71.177L12.5937 73.0304C12.5937 73.0304 13.1899 73.3894 14.1451 73.2191L13.9884 71.0529L12.425 71.177Z" fill="#FDA893"/>
    <path d="M13.8082 72.9584C13.8082 72.9584 14.1336 72.507 14.3976 72.5224C14.6613 72.5377 16.718 74.1274 17.4167 74.2512C18.1151 74.3751 17.9874 74.8906 17.8633 75.1551C17.7393 75.4195 12.3317 75.2676 12.3317 75.2676C12.3317 75.2676 12.1324 73.5193 12.3028 73.0219C12.4731 72.5244 13.2652 73.0836 13.8082 72.9584Z" fill="#FB6B18"/>
    <path d="M11.3878 51.0596L10.2639 60.3747C10.2639 60.3747 9.25587 61.745 8.29447 63.4981C7.48773 64.9696 5.33838 68.7877 5.33838 68.7877L6.63842 69.7802L13.759 62.3902L15.6545 50.9685L11.3878 51.0596Z" fill="#001030"/>
    <path d="M6.95948 69.7567C6.84263 70.0504 6.62425 70.2504 6.36942 70.4182L4.85986 69.1415C4.9866 68.8733 5.15966 68.6416 5.37429 68.442L6.95948 69.7567Z" fill="#0C375A"/>
    <path d="M5.6377 51.4444C5.6377 51.4444 7.64294 56.3819 10.2488 60.232C10.2488 60.232 10.6379 63.9791 11.3036 65.9738C11.5948 66.8472 12.1593 70.9853 12.1593 70.9853L14.1363 70.8952L13.6263 59.3896L11.5349 51.0562L5.6377 51.4444Z" fill="#0C375A"/>
    <path d="M14.3203 70.8277C14.4457 71.172 14.4113 71.5132 14.3203 71.855L12.0323 71.9192C11.9352 71.5899 11.9063 71.2556 11.9376 70.9174L14.3203 70.8277Z" fill="#005986"/>
    <path d="M15.9527 50.8034C15.9527 51.2084 15.9517 51.5294 15.949 51.7461C14.9913 52.0044 14.034 52.1914 13.077 52.306C13.0518 52.3091 13.0263 52.3125 13.0007 52.3152C12.9578 52.3207 12.9155 52.3255 12.8733 52.3302C12.8627 52.3313 12.8525 52.3323 12.8413 52.333C12.675 52.3514 12.5101 52.3674 12.3432 52.3807C11.5201 52.4486 10.6974 52.4633 9.87429 52.4251C9.80172 52.4217 9.73052 52.4179 9.65796 52.4135C9.59391 52.4101 9.5285 52.4063 9.46343 52.4016C9.43447 52.4002 9.40483 52.3981 9.37553 52.3958C9.32034 52.392 9.26651 52.3876 9.21132 52.3838C8.00191 52.2855 6.79283 52.0737 5.5841 51.7458C5.57796 51.2688 5.57217 50.297 5.57013 49.0438C5.57013 48.9752 5.56945 48.9053 5.57013 48.835C5.56876 47.4528 5.57387 45.756 5.59023 44.0087C5.59159 43.8705 5.59295 43.7327 5.595 43.5938C5.59636 43.4338 5.59806 43.2728 5.59977 43.111C5.60011 43.0841 5.60011 43.0564 5.60079 43.0291C5.60181 42.9916 5.60215 42.9537 5.60283 42.9155C5.60317 42.8398 5.60419 42.7633 5.6059 42.6876C5.60726 42.5767 5.60896 42.4665 5.61067 42.3566C5.61169 42.273 5.61305 42.1894 5.61407 42.1055C5.61646 41.939 5.61953 41.7728 5.62191 41.6073C5.68017 38.1391 5.79736 34.9516 6.01983 34.1405C6.04061 34.0655 6.06241 34.0109 6.08387 33.9785C6.10738 33.9423 6.13702 33.9058 6.16972 33.8683C6.21129 33.8208 6.25966 33.772 6.31349 33.7226C6.68449 33.3807 7.3277 32.9835 7.9801 32.6068C8.05607 32.5628 8.13273 32.5192 8.20802 32.4758C8.2196 32.4697 9.98092 31.8746 9.99182 31.8678L11.8342 31.9971C12.0553 32.1271 13.7983 32.7208 14.0122 32.8542C14.0756 32.8938 14.1379 32.9334 14.1992 32.9726C14.7004 33.2961 15.1266 33.6178 15.3126 33.8911C15.5807 34.2859 15.7429 37.8269 15.8365 41.6793C15.8389 41.7684 15.841 41.8568 15.8434 41.9455C15.8529 42.3532 15.8618 42.763 15.8699 43.1724C15.8781 43.5768 15.8853 43.9801 15.8921 44.3806C15.9026 45.0361 15.9125 45.6813 15.92 46.3026C15.921 46.3732 15.9214 46.4435 15.9224 46.5135C15.9296 47.1194 15.9353 47.7005 15.9398 48.243C15.9401 48.314 15.9408 48.3843 15.9411 48.4539C15.9473 49.2683 15.9514 49.9896 15.9517 50.5686V50.5693C15.9527 50.6509 15.9527 50.728 15.9527 50.8034Z" fill="#0172D0"/>
    <path d="M12.5669 37.3788L14.6767 37.256C14.6767 37.256 14.7554 39.8208 13.6325 39.742C12.51 39.6632 12.5669 37.3788 12.5669 37.3788Z" fill="#0890FE"/>
    <path d="M7.41383 38.6573C7.41383 38.5655 7.29732 38.5256 7.24179 38.5986C6.50149 39.5754 6.05452 40.6403 5.79049 41.4821C5.72269 41.6984 5.66444 41.9076 5.61367 42.1068C5.61265 42.1904 5.61129 42.2743 5.61027 42.3579C5.60822 42.4678 5.60686 42.578 5.6055 42.6889C5.60414 42.7643 5.60311 42.8407 5.60243 42.9168C5.60209 42.955 5.60141 42.9929 5.60039 43.0304C5.60005 43.0574 5.60005 43.085 5.59937 43.1123C5.66886 42.6906 5.78435 42.1402 5.97411 41.5346C6.23303 40.711 6.67081 39.6693 7.39373 38.7153C7.40702 38.6982 7.41383 38.6781 7.41383 38.6573Z" fill="#0056C5"/>
    <path d="M7.78845 48.7241H7.7888C9.77837 48.7152 11.4763 47.8086 12.5505 47.0495C13.7122 46.2286 14.4164 45.3967 14.4232 45.3885C14.4573 45.3479 14.4522 45.2875 14.4116 45.2534C14.3711 45.2193 14.3108 45.2244 14.2767 45.265C14.2699 45.2732 13.5787 46.089 12.4357 46.8959C11.3847 47.6377 9.72522 48.5238 7.78777 48.5323C7.73497 48.5327 7.69238 48.5757 7.69238 48.6286C7.69306 48.6814 7.73565 48.7241 7.78845 48.7241Z" fill="#0056C5"/>
    <path d="M9.86196 49.401C11.5882 49.401 13.31 48.4156 13.388 48.3703C13.4337 48.3436 13.4493 48.285 13.4231 48.2392C13.3965 48.1935 13.3379 48.1778 13.2923 48.2044C13.2722 48.216 11.2465 49.3747 9.45042 49.1885C9.39727 49.1823 9.35094 49.2212 9.34549 49.2741C9.34004 49.3266 9.37819 49.3741 9.43066 49.3792C9.57375 49.3942 9.71785 49.401 9.86196 49.401Z" fill="#0056C5"/>
    <path d="M12.6677 46.2653L11.7605 49.0673L10.4966 46.5594L10.7984 35.6066L10.81 35.1941L11.3016 35.1248L11.3697 35.6806L12.6677 46.2653Z" fill="white"/>
    <path d="M11.3684 35.6812L11.1323 35.9763L10.7979 35.6071L10.8094 35.1941L11.3004 35.1248L11.3684 35.6812Z" fill="white"/>
    <path d="M10.1799 34.6117L11.0528 35.5568L11.7675 34.3896L11.1437 33.3243L10.1799 34.6117Z" fill="white"/>
    <path d="M9.71823 31.7664L9.44092 31.9643C9.36461 32.0186 9.29034 32.0759 9.22016 32.138C9.00894 32.325 8.93399 32.4539 8.98918 32.7835C8.99769 32.8344 9.00859 32.8784 9.0212 32.9135L9.54891 35.4558L11.1447 33.3247C11.144 33.3243 9.98601 32.9115 9.71823 31.7664Z" fill="#0890FE"/>
    <path d="M11.8224 31.8685C11.8224 31.8685 12.5542 32.5625 12.3392 33.3902L12.0057 34.796L11.1438 33.324C11.1438 33.324 11.7611 32.9487 11.8224 31.8685Z" fill="#0890FE"/>
    <path d="M2.27557 53.7892C2.23026 54.2816 2.82917 54.0144 2.65985 53.0167C2.49088 52.0191 2.9709 51.1156 3.17769 51.1446C3.38516 51.1739 3.00633 52.234 3.19063 52.6162C3.3746 52.9983 3.6124 52.2558 3.84917 51.8055C4.0948 51.3377 4.08049 50.3171 3.96875 49.5894C3.85701 48.8606 5.1751 44.4369 5.18192 43.155L5.34272 42.6115L5.93073 40.6216L6.85125 37.5054C6.85125 37.5054 6.29969 35.1467 5.36997 35.3494C5.36997 35.3494 4.87769 36.9923 4.35168 38.845C4.26276 39.1596 4.17248 39.4803 4.08356 39.8C3.70881 41.1433 3.35655 42.4695 3.19302 43.2564C2.76035 45.3339 2.72697 49.6525 2.72697 49.6525C2.72697 49.6525 1.96384 51.2391 1.94579 51.945C1.92603 52.698 2.32054 53.2965 2.27557 53.7892Z" fill="#FDA893"/>
    <path d="M6.17594 33.9504C6.15992 33.9859 6.11155 33.8761 6.08293 33.9433C5.97528 34.1924 5.4973 34.8075 5.26121 35.4067C5.23089 35.4831 5.19989 35.5623 5.1682 35.6435C4.8282 36.5187 2.95446 42.2805 2.57153 47.1972L4.39724 47.5401C4.97572 44.3229 5.3382 43.3512 5.69387 41.7639C5.87818 41.1457 6.0693 40.552 6.2485 40.0067C6.24884 40.005 6.24952 40.004 6.25021 40.0026C6.32175 39.7846 6.39193 39.5741 6.4587 39.3731C6.45972 39.3694 6.46075 39.366 6.46245 39.3629C6.48562 39.2923 6.5081 39.2227 6.53127 39.1548V39.1541C6.79836 38.3451 7.0055 37.7019 7.06477 37.327C7.22387 36.3173 6.78882 34.3404 6.17594 33.9504Z" fill="#0172D0"/>
    <path d="M2.46214 46.8448L2.33813 47.5913L4.50078 47.9318L4.65204 47.1897L2.46214 46.8448Z" fill="#0056C5"/>
    <path d="M2.61058 48.0135C2.61058 48.0135 3.80569 47.9248 4.31262 48.2875L4.20667 48.9879C4.20667 48.9879 2.80988 48.8313 2.48385 48.8494C2.48385 48.8498 2.45182 48.1575 2.61058 48.0135Z" fill="#001030"/>
    <path d="M3.21339 48.4859C3.21339 48.807 2.9974 49.0674 2.73133 49.0674C2.46526 49.0674 2.24927 48.807 2.24927 48.4859C2.24927 48.1649 2.46526 47.9045 2.73133 47.9045C2.9974 47.9045 3.21339 48.1649 3.21339 48.4859Z" fill="#0C375A"/>
    <path d="M3.00094 48.4658C3.00094 48.7008 2.8434 48.8914 2.64878 48.8914C2.45416 48.8914 2.29663 48.7008 2.29663 48.4658C2.29663 48.2309 2.45416 48.0403 2.64878 48.0403C2.8434 48.0399 3.00094 48.2305 3.00094 48.4658Z" fill="#005986"/>
    <path d="M8.07886 27.1479C8.07886 28.7499 9.06343 29.8537 10.6629 29.8537C12.2624 29.8537 13.3771 28.6666 13.3771 27.065C13.3771 25.4634 12.43 24.2495 10.8305 24.2495C8.9125 24.2495 8.07886 25.546 8.07886 27.1479Z" fill="#0C375A"/>
    <path d="M8.07896 27.1479C8.07896 27.1479 8.26531 25.9377 8.07896 25.3123C7.89261 24.6868 8.08748 24.6155 8.50106 24.5019C8.91465 24.3883 8.75862 23.8765 9.15585 23.7769C9.63791 23.6561 9.81166 23.9618 10.1793 23.5066C10.5469 23.0518 10.8875 23.0273 11.2425 23.1839C11.6837 23.3787 11.8077 23.2071 12.378 23.1228C12.9548 23.0375 13.3762 23.4213 13.473 23.8195C13.5697 24.2177 13.1783 24.5589 13.3404 24.8431C13.5029 25.1273 13.5203 26.0472 13.0866 26.3785C12.6533 26.7095 8.07896 27.1479 8.07896 27.1479Z" fill="#0C375A"/>
    <path d="M8.43899 27.8375C8.43899 27.8375 7.99474 27.2442 7.66428 27.7348C7.33382 28.2255 7.8009 29.6749 8.61001 29.3211L8.43899 27.8375Z" fill="#FD896B"/>
    <path d="M8.43218 28.8743C8.40224 28.8743 8.37502 28.8545 8.36651 28.8241C8.2413 28.3764 7.77891 28.1947 7.77449 28.193C7.73944 28.1793 7.72141 28.14 7.73502 28.1045C7.74829 28.0693 7.78775 28.0512 7.8228 28.0646C7.84423 28.0728 8.35392 28.2712 8.49819 28.7869C8.50839 28.8235 8.4873 28.861 8.45089 28.8713C8.44443 28.8737 8.4383 28.8743 8.43218 28.8743Z" fill="#D65C48"/>
    <path d="M7.96549 28.6489C7.9529 28.6489 7.93998 28.6455 7.92875 28.638C7.89711 28.6175 7.88792 28.5751 7.90833 28.5434C7.91174 28.5379 7.99339 28.4129 8.16454 28.3361C8.1989 28.3204 8.23939 28.3361 8.2547 28.3706C8.27001 28.4051 8.2547 28.4457 8.22034 28.4611C8.08798 28.5205 8.02368 28.6165 8.023 28.6175C8.00973 28.6376 7.98795 28.6489 7.96549 28.6489Z" fill="#D65C48"/>
    <path d="M13.0184 27.8375C13.0184 27.8375 13.4627 27.2442 13.7931 27.7348C14.1236 28.2255 13.6565 29.6749 12.8474 29.3211L13.0184 27.8375Z" fill="#FD896B"/>
    <path d="M13.0237 28.8743C13.0536 28.8743 13.0808 28.8545 13.0893 28.8241C13.2145 28.3764 13.6769 28.1947 13.6813 28.193C13.7164 28.1793 13.7341 28.14 13.7208 28.1045C13.7075 28.0693 13.6681 28.0512 13.633 28.0646C13.6113 28.0728 13.1019 28.2712 12.9576 28.7869C12.9474 28.8235 12.9685 28.861 13.0049 28.8713C13.0114 28.8737 13.0175 28.8743 13.0237 28.8743Z" fill="#D65C48"/>
    <path d="M13.4902 28.6489C13.5028 28.6489 13.5157 28.6455 13.527 28.638C13.5586 28.6175 13.5678 28.5751 13.5474 28.5434C13.544 28.5379 13.4623 28.4129 13.2912 28.3361C13.2568 28.3204 13.2163 28.3361 13.201 28.3706C13.1857 28.4051 13.201 28.4457 13.2354 28.4611C13.3677 28.5205 13.432 28.6165 13.4327 28.6175C13.446 28.6376 13.4678 28.6489 13.4902 28.6489Z" fill="#D65C48"/>
    <path d="M11.8226 30.5504V31.9916C11.8226 31.9916 12.0165 33.3408 10.9212 33.3326C10.3393 33.3281 9.71826 32.1435 9.71826 32.1435V30.6518L11.8226 30.5504Z" fill="#FDA893"/>
    <path d="M11.8226 30.5504V31.1898C11.4333 31.6228 10.7417 31.7306 9.71826 31.5795V30.6518L11.8226 30.5504Z" fill="#FD896B"/>
    <path d="M13.3389 26.8487C13.3123 27.4086 13.2588 28.1091 13.1522 28.6693C13.1256 28.8089 13.0953 28.9406 13.0619 29.0583C12.759 30.1201 12.0017 31.9414 9.88095 31.183C8.94442 30.8482 8.51039 29.8031 8.31689 28.7406C8.18572 28.019 8.16562 27.2899 8.1755 26.7689C8.18572 26.2369 8.47564 25.7507 8.93761 25.4883C10.1893 24.7776 11.5101 25.0427 12.3798 25.3774C12.9835 25.6095 13.3699 26.2031 13.3389 26.8487Z" fill="#FDA893"/>
    <path d="M9.94717 27.9224C9.94717 28.0764 9.86823 28.2011 9.77058 28.2011C9.67293 28.2011 9.59399 28.0761 9.59399 27.9224C9.59399 27.7683 9.67293 27.6437 9.77058 27.6437C9.86823 27.6437 9.94717 27.7683 9.94717 27.9224Z" fill="#0C375A"/>
    <path d="M11.9992 27.9224C11.9992 28.0764 11.9202 28.2011 11.8226 28.2011C11.7249 28.2011 11.646 28.0761 11.646 27.9224C11.646 27.7683 11.7249 27.6437 11.8226 27.6437C11.9202 27.6437 11.9992 27.7683 11.9992 27.9224Z" fill="#0C375A"/>
    <path d="M12.3033 27.0628C12.3033 27.0628 11.7453 26.8418 11.3157 27.0279L11.3586 27.2674C11.3586 27.2674 11.9892 27.2141 12.3067 27.3428C12.3353 27.2506 12.3394 27.1574 12.3033 27.0628Z" fill="#0C375A"/>
    <path d="M9.0521 27.0628C9.0521 27.0628 9.61014 26.8418 10.0397 27.0279L9.99681 27.2674C9.99681 27.2674 9.36621 27.2141 9.04869 27.3428C9.02008 27.2506 9.01599 27.1574 9.0521 27.0628Z" fill="#0C375A"/>
    <path d="M10.7978 29.13C10.6834 29.144 10.5647 29.1133 10.546 29.1081C10.5096 29.0983 10.4881 29.0607 10.498 29.0242C10.5079 28.9877 10.5453 28.9662 10.5817 28.9761C10.646 28.9935 10.7978 29.0147 10.8566 28.9686C10.8679 28.9597 10.8832 28.943 10.8821 28.9014C10.8777 28.6612 10.7158 27.8733 10.7144 27.8655C10.7069 27.8283 10.7304 27.7921 10.7675 27.7846C10.8046 27.7768 10.8406 27.8007 10.8481 27.8379C10.8549 27.8706 11.0142 28.6458 11.0189 28.899C11.0206 28.9942 10.9774 29.0484 10.9407 29.0771C10.9005 29.1081 10.8495 29.1235 10.7978 29.13Z" fill="#FD896B"/>
    <path d="M9.86353 29.5408C9.9194 29.8225 10.1051 30.341 10.7306 30.341C11.3578 30.341 11.5335 29.8673 11.5938 29.5408H9.86353Z" fill="white"/>
    <path d="M10.6779 30.764C10.8545 30.764 11.0045 30.6746 11.0106 30.6708C11.043 30.6514 11.0532 30.6092 11.0338 30.5769C11.0144 30.5446 10.9722 30.5344 10.9399 30.5538C10.9389 30.5545 10.8153 30.6273 10.6779 30.6273C10.5517 30.6273 10.4305 30.5548 10.4295 30.5541C10.3975 30.5344 10.3553 30.5442 10.3356 30.5762C10.3159 30.6082 10.3257 30.6504 10.3577 30.6701C10.3638 30.6742 10.5112 30.764 10.6779 30.764Z" fill="#FD896B"/>
    <path d="M13.2666 27.8498H12.9569C12.9913 27.5383 12.8782 27.1619 12.7849 26.9108C12.5733 26.342 13.0237 26.0912 12.6592 25.8063C12.295 25.5207 11.3878 25.6432 10.7572 25.6228C10.1225 25.6023 9.10247 25.6112 8.85513 25.6688C8.60678 25.7258 8.74305 26.1383 8.83401 26.458C8.92565 26.777 8.52978 27.1305 8.46335 27.4611C8.44427 27.556 8.44836 27.6969 8.46335 27.8498H8.20511C8.17445 27.4472 8.16968 27.0725 8.17547 26.7689C8.18569 26.2369 8.47561 25.7507 8.93758 25.4883C10.1892 24.7776 11.5101 25.0427 12.3798 25.3774C12.9835 25.6095 13.3698 26.2031 13.3392 26.8487C13.3242 27.1558 13.3017 27.5048 13.2666 27.8498Z" fill="#0C375A"/>
    <path d="M26 14C26 14 26.1259 16.2144 27.8713 16.2144C29.6168 16.2144 41.0795 16.2144 41.0795 16.2144C41.0795 16.2144 42.3363 16.5058 43.017 14H26Z" fill="#5655B9"/>
</svg>
