<svg width="24" height="24" viewBox="0 0 24 24" fill="none" xmlns="http://www.w3.org/2000/svg">
    <path d="M22 24H2C1.73478 24 1.48043 23.8946 1.29289 23.7071C1.10536 23.5196 1 23.2652 1 23C1 22.7348 1.10536 22.4804 1.29289 22.2929C1.48043 22.1054 1.73478 22 2 22H22C22.2652 22 22.5196 22.1054 22.7071 22.2929C22.8946 22.4804 23 22.7348 23 23C23 23.2652 22.8946 23.5196 22.7071 23.7071C22.5196 23.8946 22.2652 24 22 24Z" fill="#898989"/>
    <path d="M12.586 5L4.293 13.293C4.16479 13.4213 4.07388 13.582 4.03 13.758L2 20L8.242 17.97C8.41798 17.9261 8.57872 17.8352 8.707 17.707L17 9.414L12.586 5Z" fill="#898989"/>
    <path d="M20.707 4.29297L17.707 1.29297C17.5195 1.1055 17.2652 1.00018 17 1.00018C16.7348 1.00018 16.4805 1.1055 16.293 1.29297L14 3.58597L18.414 7.99997L20.707 5.70697C20.8945 5.51944 20.9998 5.26513 20.9998 4.99997C20.9998 4.73481 20.8945 4.4805 20.707 4.29297Z" fill="#898989"/>
</svg>
