<svg width="24" height="24" viewBox="0 0 24 24" fill="none" xmlns="http://www.w3.org/2000/svg">
    <path d="M22 0H2C1.447 0 1 0.448 1 1V23C1 23.552 1.447 24 2 24H22C22.553 24 23 23.552 23 23V1C23 0.448 22.553 0 22 0ZM20 21H4V3H7V6H10C10 4.895 10.895 4 12 4C13.105 4 14 4.895 14 6H17V3H20V21Z" fill="#898989"/>
    <path d="M10.9999 17.0001C10.7439 17.0001 10.4879 16.9021 10.2929 16.7071L7.58594 14.0001L8.99994 12.5861L10.9999 14.5861L14.9999 10.5861L16.4139 12.0001L11.7069 16.7071C11.5119 16.9021 11.2559 17.0001 10.9999 17.0001Z" fill="#898989"/>
</svg>
