<svg width="24" height="24" viewBox="0 0 24 24" fill="none" xmlns="http://www.w3.org/2000/svg">
    <g clip-path="url(#clip0_193_70)">
        <path d="M12.4141 15.9999L14.4141 13.9999L13.0001 12.5859L11.0001 14.5859L9.41408 12.9999L11.4141 10.9999L10.0001 9.58594L8.00008 11.5859L6.67108 10.2579C6.48355 10.0705 6.22925 9.96515 5.96408 9.96515C5.69892 9.96515 5.44461 10.0705 5.25708 10.2579L3.75708 11.7579C2.75403 12.7597 2.13884 14.0847 2.02092 15.4974C1.90299 16.9101 2.29 18.3188 3.11308 19.4729L0.293081 22.2929C0.197571 22.3852 0.121389 22.4955 0.0689798 22.6175C0.0165708 22.7395 -0.0110155 22.8708 -0.0121693 23.0035C-0.0133231 23.1363 0.0119786 23.268 0.0622595 23.3909C0.11254 23.5138 0.186794 23.6254 0.280686 23.7193C0.374579 23.8132 0.486231 23.8875 0.609127 23.9378C0.732023 23.988 0.863703 24.0133 0.996482 24.0122C1.12926 24.011 1.26048 23.9834 1.38249 23.931C1.50449 23.8786 1.61483 23.8024 1.70708 23.7069L4.52708 20.8869C5.68144 21.7102 7.09043 22.0972 8.50333 21.979C9.91624 21.8609 11.2414 21.2454 12.2431 20.2419L13.7431 18.7419C13.9306 18.5544 14.0359 18.3001 14.0359 18.0349C14.0359 17.7698 13.9306 17.5155 13.7431 17.3279L12.4141 15.9999Z" fill="#898989"/>
        <path d="M17.3291 13.742C17.5167 13.9294 17.771 14.0347 18.0361 14.0347C18.3013 14.0347 18.5556 13.9294 18.7431 13.742L20.2431 12.242C21.2462 11.2402 21.8614 9.91518 21.9793 8.5025C22.0972 7.08983 21.7102 5.68112 20.8871 4.52696L23.7071 1.70696C23.8027 1.61471 23.8788 1.50437 23.9312 1.38236C23.9837 1.26036 24.0112 1.12914 24.0124 0.99636C24.0135 0.863581 23.9882 0.731901 23.938 0.609005C23.8877 0.486109 23.8134 0.374457 23.7195 0.280564C23.6256 0.186671 23.514 0.112418 23.3911 0.0621374C23.2682 0.0118565 23.1365 -0.0134452 23.0037 -0.0122913C22.871 -0.0111375 22.7397 0.0164487 22.6177 0.0688577C22.4957 0.121267 22.3854 0.197449 22.2931 0.292959L19.4731 3.11296C18.3188 2.28973 16.9098 1.90274 15.4969 2.02085C14.084 2.13896 12.7588 2.7545 11.7571 3.75796L10.2571 5.25796C10.0697 5.44549 9.96436 5.69979 9.96436 5.96496C9.96436 6.23012 10.0697 6.48443 10.2571 6.67196L17.3291 13.742Z" fill="#898989"/>
    </g>
    <defs>
        <clipPath id="clip0_193_70">
            <rect width="24" height="24" fill="white"/>
        </clipPath>
    </defs>
</svg>
