<svg width="24" height="24" viewBox="0 0 24 24" fill="none" xmlns="http://www.w3.org/2000/svg">
    <path d="M12.7099 0.300032C12.5183 0.11806 12.2642 0.0166016 11.9999 0.0166016C11.7357 0.0166016 11.4815 0.11806 11.2899 0.300032C10.9519 0.637032 2.99994 8.71103 2.99994 14C2.98831 15.1852 3.21317 16.3607 3.66134 17.4579C4.10952 18.5551 4.77202 19.5519 5.61007 20.3899C6.44812 21.228 7.4449 21.8905 8.54208 22.3386C9.63926 22.7868 10.8148 23.0117 11.9999 23C13.1851 23.0117 14.3606 22.7868 15.4578 22.3386C16.555 21.8905 17.5518 21.228 18.3898 20.3899C19.2279 19.5519 19.8904 18.5551 20.3385 17.4579C20.7867 16.3607 21.0116 15.1852 20.9999 14C20.9999 8.71103 13.0479 0.637032 12.7099 0.300032ZM12.9999 18H11.9999C11.4722 18.0088 10.9481 17.9114 10.4589 17.7135C9.96959 17.5156 9.52513 17.2212 9.15193 16.848C8.77873 16.4748 8.48442 16.0304 8.28651 15.5411C8.08861 15.0518 7.99115 14.5277 7.99994 14V13H9.99994V14C9.99994 14.5305 10.2107 15.0392 10.5857 15.4142C10.9608 15.7893 11.4695 16 11.9999 16H12.9999V18Z" fill="#898989"/>
</svg>
