<svg width="24" height="24" viewBox="0 0 24 24" fill="none" xmlns="http://www.w3.org/2000/svg">
    <g clip-path="url(#clip0_193_303)">
        <path d="M23.8466 11.468C22.9173 10.0707 21.8145 8.79686 20.5646 7.677L8.76465 19.477C9.80965 19.8167 10.9008 19.9931 11.9996 20C19.0706 20 23.6546 12.837 23.8466 12.532C23.9468 12.3726 23.9999 12.1882 23.9999 12C23.9999 11.8118 23.9468 11.6274 23.8466 11.468Z" fill="#898989"/>
        <path d="M22.7058 1.29302C22.5183 1.10585 22.2642 1.00073 21.9993 1.00073C21.7343 1.00073 21.4803 1.10585 21.2928 1.29302L17.2348 5.35102C15.6254 4.48214 13.8286 4.01844 11.9998 4.00002C4.92877 4.00002 0.344767 11.163 0.152767 11.468C0.052633 11.6274 -0.000488281 11.8118 -0.000488281 12C-0.000488281 12.1882 0.052633 12.3726 0.152767 12.532C1.46223 14.4862 3.10728 16.1932 5.01177 17.574L2.29277 20.293C2.19502 20.3847 2.1167 20.495 2.06244 20.6176C2.00819 20.7401 1.97911 20.8723 1.97693 21.0062C1.97476 21.1402 1.99953 21.2733 2.04978 21.3975C2.10003 21.5217 2.17473 21.6345 2.26944 21.7293C2.36416 21.8241 2.47696 21.8989 2.60114 21.9492C2.72532 21.9996 2.85835 22.0244 2.99233 22.0223C3.12631 22.0203 3.2585 21.9913 3.38106 21.9371C3.50362 21.8829 3.61404 21.8047 3.70577 21.707L22.7058 2.70702C22.8932 2.51949 22.9986 2.26518 22.9986 2.00002C22.9986 1.73486 22.8932 1.48055 22.7058 1.29302ZM7.99977 12C7.99977 10.9392 8.42119 9.92174 9.17134 9.17159C9.92149 8.42145 10.9389 8.00002 11.9998 8.00002C12.7103 8.00376 13.4062 8.20229 14.0118 8.57402L8.57377 14.011C8.20264 13.4056 8.00415 12.7102 7.99977 12Z" fill="#898989"/>
    </g>
    <defs>
        <clipPath id="clip0_193_303">
            <rect width="24" height="24" fill="white"/>
        </clipPath>
    </defs>
</svg>
