<svg width="24" height="24" viewBox="0 0 24 24" fill="none" xmlns="http://www.w3.org/2000/svg">
    <g clip-path="url(#clip0_193_307)">
        <path d="M23.8468 11.468C23.6548 11.163 19.0708 4 11.9998 4C4.92877 4 0.344767 11.163 0.152767 11.468C0.052633 11.6274 -0.000488281 11.8118 -0.000488281 12C-0.000488281 12.1882 0.052633 12.3726 0.152767 12.532C0.344767 12.837 4.92877 20 11.9998 20C19.0708 20 23.6548 12.837 23.8468 12.532C23.9469 12.3726 24 12.1882 24 12C24 11.8118 23.9469 11.6274 23.8468 11.468ZM11.9998 16C11.2086 16 10.4353 15.7654 9.77749 15.3259C9.11969 14.8864 8.607 14.2616 8.30425 13.5307C8.0015 12.7998 7.92229 11.9956 8.07663 11.2196C8.23097 10.4437 8.61193 9.73098 9.17134 9.17157C9.73075 8.61216 10.4435 8.2312 11.2194 8.07686C11.9953 7.92252 12.7996 8.00173 13.5305 8.30448C14.2614 8.60723 14.8861 9.11992 15.3256 9.77772C15.7652 10.4355 15.9998 11.2089 15.9998 12C15.9998 13.0609 15.5783 14.0783 14.8282 14.8284C14.078 15.5786 13.0606 16 11.9998 16Z" fill="#898989"/>
    </g>
    <defs>
        <clipPath id="clip0_193_307">
            <rect width="24" height="24" fill="white"/>
        </clipPath>
    </defs>
</svg>
